G04 #@! TF.GenerationSoftware,KiCad,Pcbnew,(6.0.9)*
G04 #@! TF.CreationDate,2022-11-26T18:32:43+01:00*
G04 #@! TF.ProjectId,repeat-hw,72657065-6174-42d6-9877-2e6b69636164,rev?*
G04 #@! TF.SameCoordinates,Original*
G04 #@! TF.FileFunction,Legend,Bot*
G04 #@! TF.FilePolarity,Positive*
%FSLAX46Y46*%
G04 Gerber Fmt 4.6, Leading zero omitted, Abs format (unit mm)*
G04 Created by KiCad (PCBNEW (6.0.9)) date 2022-11-26 18:32:43*
%MOMM*%
%LPD*%
G01*
G04 APERTURE LIST*
G04 Aperture macros list*
%AMRotRect*
0 Rectangle, with rotation*
0 The origin of the aperture is its center*
0 $1 length*
0 $2 width*
0 $3 Rotation angle, in degrees counterclockwise*
0 Add horizontal line*
21,1,$1,$2,0,0,$3*%
G04 Aperture macros list end*
%ADD10C,0.120000*%
%ADD11C,0.650000*%
%ADD12O,2.100000X1.000000*%
%ADD13O,1.600000X1.000000*%
%ADD14C,0.700000*%
%ADD15O,0.800000X1.500000*%
%ADD16C,3.250000*%
%ADD17RotRect,1.800000X1.800000X135.000000*%
%ADD18C,1.800000*%
%ADD19C,1.600000*%
%ADD20C,3.000000*%
G04 APERTURE END LIST*
D10*
X161789080Y-87161224D02*
X153020956Y-95929348D01*
X165120260Y-83463763D02*
X164413153Y-83463763D01*
X164432245Y-107340637D02*
X153020956Y-95929348D01*
X164413153Y-83463763D02*
X165120260Y-82756656D01*
X165120260Y-82756656D02*
X165120260Y-83463763D01*
X173200369Y-98572513D02*
X164432245Y-107340637D01*
X179868386Y-91904496D02*
X168457097Y-80493207D01*
X179868386Y-91904496D02*
X175533821Y-96239061D01*
X168457097Y-80493207D02*
X164122532Y-84827772D01*
%LPC*%
D11*
X175680000Y-107490000D03*
X175680000Y-101710000D03*
D12*
X175180000Y-108920000D03*
D13*
X179360000Y-100280000D03*
X179360000Y-108920000D03*
D12*
X175180000Y-100280000D03*
D14*
X150330000Y-127274500D03*
X149060000Y-127274500D03*
X154140000Y-127274500D03*
X152870000Y-127274500D03*
X151600000Y-127274500D03*
D15*
X149695000Y-128429500D03*
X150965000Y-128429500D03*
X152235000Y-128429500D03*
X153505000Y-128429500D03*
D16*
X162477802Y-89801561D03*
X170560032Y-97883791D03*
D17*
X166964394Y-85307897D03*
D18*
X169658471Y-84409872D03*
X168760445Y-87103948D03*
X171454522Y-86205923D03*
X170556497Y-88900000D03*
X173250574Y-88001974D03*
X172352548Y-90696051D03*
X175046625Y-89798025D03*
X174148599Y-92492102D03*
X176842676Y-91594076D03*
D19*
X169520585Y-100436447D03*
X168085159Y-101871874D03*
X159925146Y-90841008D03*
X158489719Y-92276434D03*
D20*
X174226381Y-97236789D03*
X163124804Y-86135212D03*
M02*
