%TF.GenerationSoftware,KiCad,Pcbnew,(6.0.9)*%
%TF.CreationDate,2022-11-24T21:16:59+01:00*%
%TF.ProjectId,repeat-hw,72657065-6174-42d6-9877-2e6b69636164,rev?*%
%TF.SameCoordinates,Original*%
%TF.FileFunction,Drillmap*%
%TF.FilePolarity,Positive*%
%FSLAX45Y45*%
G04 Gerber Fmt 4.5, Leading zero omitted, Abs format (unit mm)*
G04 Created by KiCad (PCBNEW (6.0.9)) date 2022-11-24 21:16:59*
%MOMM*%
%LPD*%
G01*
G04 APERTURE LIST*
%ADD10C,0.100000*%
%ADD11C,0.200000*%
%ADD12C,0.020000*%
%ADD13C,0.030000*%
%ADD14C,0.060000*%
%ADD15C,0.090000*%
%ADD16C,0.160000*%
G04 APERTURE END LIST*
D10*
X15490000Y-8670000D02*
G75*
G03*
X15440000Y-8720000I0J-50000D01*
G01*
X15480000Y-9385000D02*
G75*
G03*
X15530000Y-9335000I0J50000D01*
G01*
X16051000Y-8770000D02*
G75*
G03*
X16051000Y-8670000I0J50000D01*
G01*
X14010000Y-9285000D02*
G75*
G03*
X14010000Y-9385000I0J-50000D01*
G01*
X17480000Y-12960000D02*
G75*
G03*
X18080000Y-12360000I0J600000D01*
G01*
X18080000Y-8560000D02*
G75*
G03*
X17480000Y-7960000I-600000J0D01*
G01*
X14010000Y-9285000D02*
X15440000Y-9285000D01*
X14010000Y-9385000D02*
X15480000Y-9385000D01*
X13080000Y-8560000D02*
X13080000Y-12360000D01*
X18080000Y-12360000D02*
X18080000Y-8560000D01*
X15530000Y-9335000D02*
X15530000Y-8770000D01*
X13080000Y-12360000D02*
G75*
G03*
X13680000Y-12960000I600000J0D01*
G01*
X13680000Y-7960000D02*
X17480000Y-7960000D01*
X16051000Y-8670000D02*
X15490000Y-8670000D01*
X17480000Y-12960000D02*
X13680000Y-12960000D01*
X15440000Y-8720000D02*
X15440000Y-9285000D01*
X15530000Y-8770000D02*
X16051000Y-8770000D01*
X13680000Y-7960000D02*
G75*
G03*
X13080000Y-8560000I0J-600000D01*
G01*
D11*
D12*
X13149000Y-8674000D02*
X13169000Y-8694000D01*
X13169000Y-8674000D02*
X13149000Y-8694000D01*
X13154000Y-8429000D02*
X13174000Y-8449000D01*
X13174000Y-8429000D02*
X13154000Y-8449000D01*
X13160000Y-12270000D02*
X13180000Y-12290000D01*
X13180000Y-12270000D02*
X13160000Y-12290000D01*
X13165000Y-11940000D02*
X13185000Y-11960000D01*
X13185000Y-11940000D02*
X13165000Y-11960000D01*
X13180000Y-11480000D02*
X13200000Y-11500000D01*
X13200000Y-11480000D02*
X13180000Y-11500000D01*
X13190000Y-11250000D02*
X13210000Y-11270000D01*
X13210000Y-11250000D02*
X13190000Y-11270000D01*
X13190000Y-11370000D02*
X13210000Y-11390000D01*
X13210000Y-11370000D02*
X13190000Y-11390000D01*
X13190000Y-11665000D02*
X13210000Y-11685000D01*
X13210000Y-11665000D02*
X13190000Y-11685000D01*
X13208945Y-10547620D02*
X13228945Y-10567620D01*
X13228945Y-10547620D02*
X13208945Y-10567620D01*
X13215000Y-12515000D02*
X13235000Y-12535000D01*
X13235000Y-12515000D02*
X13215000Y-12535000D01*
X13260000Y-11310000D02*
X13280000Y-11330000D01*
X13280000Y-11310000D02*
X13260000Y-11330000D01*
X13260000Y-11440000D02*
X13280000Y-11460000D01*
X13280000Y-11440000D02*
X13260000Y-11460000D01*
X13285000Y-8455000D02*
X13305000Y-8475000D01*
X13305000Y-8455000D02*
X13285000Y-8475000D01*
X13285000Y-8530000D02*
X13305000Y-8550000D01*
X13305000Y-8530000D02*
X13285000Y-8550000D01*
X13290000Y-8193000D02*
X13310000Y-8213000D01*
X13310000Y-8193000D02*
X13290000Y-8213000D01*
X13290000Y-12330000D02*
X13310000Y-12350000D01*
X13310000Y-12330000D02*
X13290000Y-12350000D01*
X13324726Y-10691810D02*
X13344726Y-10711810D01*
X13344726Y-10691810D02*
X13324726Y-10711810D01*
X13350000Y-10770000D02*
X13370000Y-10790000D01*
X13370000Y-10770000D02*
X13350000Y-10790000D01*
X13355000Y-8495000D02*
X13375000Y-8515000D01*
X13375000Y-8495000D02*
X13355000Y-8515000D01*
X13355000Y-8570000D02*
X13375000Y-8590000D01*
X13375000Y-8570000D02*
X13355000Y-8590000D01*
X13365000Y-12715000D02*
X13385000Y-12735000D01*
X13385000Y-12715000D02*
X13365000Y-12735000D01*
X13380000Y-12230000D02*
X13400000Y-12250000D01*
X13400000Y-12230000D02*
X13380000Y-12250000D01*
X13406000Y-8100000D02*
X13426000Y-8120000D01*
X13426000Y-8100000D02*
X13406000Y-8120000D01*
X13408000Y-8177000D02*
X13428000Y-8197000D01*
X13428000Y-8177000D02*
X13408000Y-8197000D01*
X13440000Y-10770000D02*
X13460000Y-10790000D01*
X13460000Y-10770000D02*
X13440000Y-10790000D01*
X13444259Y-10489729D02*
X13464259Y-10509729D01*
X13464259Y-10489729D02*
X13444259Y-10509729D01*
X13444795Y-10632311D02*
X13464795Y-10652311D01*
X13464795Y-10632311D02*
X13444795Y-10652311D01*
X13500000Y-10860000D02*
X13520000Y-10880000D01*
X13520000Y-10860000D02*
X13500000Y-10880000D01*
X13515000Y-12415000D02*
X13535000Y-12435000D01*
X13535000Y-12415000D02*
X13515000Y-12435000D01*
X13540000Y-11530000D02*
X13560000Y-11550000D01*
X13560000Y-11530000D02*
X13540000Y-11550000D01*
X13540000Y-11600000D02*
X13560000Y-11620000D01*
X13560000Y-11600000D02*
X13540000Y-11620000D01*
X13540000Y-11670000D02*
X13560000Y-11690000D01*
X13560000Y-11670000D02*
X13540000Y-11690000D01*
X13570000Y-10860000D02*
X13590000Y-10880000D01*
X13590000Y-10860000D02*
X13570000Y-10880000D01*
X13615000Y-12590000D02*
X13635000Y-12610000D01*
X13635000Y-12590000D02*
X13615000Y-12610000D01*
X13640000Y-10860000D02*
X13660000Y-10880000D01*
X13660000Y-10860000D02*
X13640000Y-10880000D01*
X13647857Y-8030476D02*
X13667857Y-8050476D01*
X13667857Y-8030476D02*
X13647857Y-8050476D01*
X13649248Y-8210542D02*
X13669248Y-8230542D01*
X13669248Y-8210542D02*
X13649248Y-8230542D01*
X13680000Y-12520000D02*
X13700000Y-12540000D01*
X13700000Y-12520000D02*
X13680000Y-12540000D01*
X13687614Y-10549228D02*
X13707614Y-10569228D01*
X13707614Y-10549228D02*
X13687614Y-10569228D01*
X13704231Y-10763101D02*
X13724231Y-10783101D01*
X13724231Y-10763101D02*
X13704231Y-10783101D01*
X13715000Y-8290000D02*
X13735000Y-8310000D01*
X13735000Y-8290000D02*
X13715000Y-8310000D01*
X13730590Y-8120162D02*
X13750590Y-8140162D01*
X13750590Y-8120162D02*
X13730590Y-8140162D01*
X13735000Y-8595000D02*
X13755000Y-8615000D01*
X13755000Y-8595000D02*
X13735000Y-8615000D01*
X13740000Y-11615000D02*
X13760000Y-11635000D01*
X13760000Y-11615000D02*
X13740000Y-11635000D01*
X13745000Y-8515000D02*
X13765000Y-8535000D01*
X13765000Y-8515000D02*
X13745000Y-8535000D01*
X13750000Y-12450000D02*
X13770000Y-12470000D01*
X13770000Y-12450000D02*
X13750000Y-12470000D01*
X13750000Y-12590000D02*
X13770000Y-12610000D01*
X13770000Y-12590000D02*
X13750000Y-12610000D01*
X13815000Y-8015000D02*
X13835000Y-8035000D01*
X13835000Y-8015000D02*
X13815000Y-8035000D01*
X13820000Y-12520000D02*
X13840000Y-12540000D01*
X13840000Y-12520000D02*
X13820000Y-12540000D01*
X13890000Y-12590000D02*
X13910000Y-12610000D01*
X13910000Y-12590000D02*
X13890000Y-12610000D01*
X13950000Y-8050000D02*
X13970000Y-8070000D01*
X13970000Y-8050000D02*
X13950000Y-8070000D01*
X13967292Y-8339931D02*
X13987292Y-8359931D01*
X13987292Y-8339931D02*
X13967292Y-8359931D01*
X13970629Y-8477588D02*
X13990629Y-8497588D01*
X13990629Y-8477588D02*
X13970629Y-8497588D01*
X13980000Y-12280000D02*
X14000000Y-12300000D01*
X14000000Y-12280000D02*
X13980000Y-12300000D01*
X14015000Y-12490000D02*
X14035000Y-12510000D01*
X14035000Y-12490000D02*
X14015000Y-12510000D01*
X14030000Y-8050000D02*
X14050000Y-8070000D01*
X14050000Y-8050000D02*
X14030000Y-8070000D01*
X14070655Y-8403368D02*
X14090655Y-8423368D01*
X14090655Y-8403368D02*
X14070655Y-8423368D01*
X14110000Y-8050000D02*
X14130000Y-8070000D01*
X14130000Y-8050000D02*
X14110000Y-8070000D01*
X14110000Y-11990000D02*
X14130000Y-12010000D01*
X14130000Y-11990000D02*
X14110000Y-12010000D01*
X14110000Y-12120000D02*
X14130000Y-12140000D01*
X14130000Y-12120000D02*
X14110000Y-12140000D01*
X14110000Y-12270000D02*
X14130000Y-12290000D01*
X14130000Y-12270000D02*
X14110000Y-12290000D01*
X14140000Y-12765000D02*
X14160000Y-12785000D01*
X14160000Y-12765000D02*
X14140000Y-12785000D01*
X14165000Y-12465000D02*
X14185000Y-12485000D01*
X14185000Y-12465000D02*
X14165000Y-12485000D01*
X14169188Y-8480091D02*
X14189188Y-8500091D01*
X14189188Y-8480091D02*
X14169188Y-8500091D01*
X14173586Y-8339329D02*
X14193586Y-8359329D01*
X14193586Y-8339329D02*
X14173586Y-8359329D01*
X14190000Y-8050000D02*
X14210000Y-8070000D01*
X14210000Y-8050000D02*
X14190000Y-8070000D01*
X14190000Y-11690000D02*
X14210000Y-11710000D01*
X14210000Y-11690000D02*
X14190000Y-11710000D01*
X14245000Y-11455000D02*
X14265000Y-11475000D01*
X14265000Y-11455000D02*
X14245000Y-11475000D01*
X14257408Y-12216547D02*
X14277408Y-12236547D01*
X14277408Y-12216547D02*
X14257408Y-12236547D01*
X14270000Y-11610000D02*
X14290000Y-11630000D01*
X14290000Y-11610000D02*
X14270000Y-11630000D01*
X14290000Y-11690000D02*
X14310000Y-11710000D01*
X14310000Y-11690000D02*
X14290000Y-11710000D01*
X14309500Y-12879500D02*
X14329500Y-12899500D01*
X14329500Y-12879500D02*
X14309500Y-12899500D01*
X14330000Y-11110000D02*
X14350000Y-11130000D01*
X14350000Y-11110000D02*
X14330000Y-11130000D01*
X14350000Y-11460000D02*
X14370000Y-11480000D01*
X14370000Y-11460000D02*
X14350000Y-11480000D01*
X14360000Y-12080000D02*
X14380000Y-12100000D01*
X14380000Y-12080000D02*
X14360000Y-12100000D01*
X14370000Y-12220000D02*
X14390000Y-12240000D01*
X14390000Y-12220000D02*
X14370000Y-12240000D01*
X14395000Y-8420000D02*
X14415000Y-8440000D01*
X14415000Y-8420000D02*
X14395000Y-8440000D01*
X14400000Y-8180000D02*
X14420000Y-8200000D01*
X14420000Y-8180000D02*
X14400000Y-8200000D01*
X14420000Y-11770000D02*
X14440000Y-11790000D01*
X14440000Y-11770000D02*
X14420000Y-11790000D01*
X14422220Y-11637710D02*
X14442220Y-11657710D01*
X14442220Y-11637710D02*
X14422220Y-11657710D01*
X14437291Y-12879440D02*
X14457291Y-12899440D01*
X14457291Y-12879440D02*
X14437291Y-12899440D01*
X14465000Y-8640000D02*
X14485000Y-8660000D01*
X14485000Y-8640000D02*
X14465000Y-8660000D01*
X14490000Y-10690000D02*
X14510000Y-10710000D01*
X14510000Y-10690000D02*
X14490000Y-10710000D01*
X14530000Y-10845000D02*
X14550000Y-10865000D01*
X14550000Y-10845000D02*
X14530000Y-10865000D01*
X14560000Y-11690000D02*
X14580000Y-11710000D01*
X14580000Y-11690000D02*
X14560000Y-11710000D01*
X14560000Y-11970000D02*
X14580000Y-11990000D01*
X14580000Y-11970000D02*
X14560000Y-11990000D01*
X14560000Y-12070000D02*
X14580000Y-12090000D01*
X14580000Y-12070000D02*
X14560000Y-12090000D01*
X14563500Y-12185000D02*
X14583500Y-12205000D01*
X14583500Y-12185000D02*
X14563500Y-12205000D01*
X14565041Y-12879368D02*
X14585041Y-12899368D01*
X14585041Y-12879368D02*
X14565041Y-12899368D01*
X14590000Y-10090000D02*
X14610000Y-10110000D01*
X14610000Y-10090000D02*
X14590000Y-10110000D01*
X14590000Y-10390000D02*
X14610000Y-10410000D01*
X14610000Y-10390000D02*
X14590000Y-10410000D01*
X14595000Y-8320000D02*
X14615000Y-8340000D01*
X14615000Y-8320000D02*
X14595000Y-8340000D01*
X14620000Y-8420000D02*
X14640000Y-8440000D01*
X14640000Y-8420000D02*
X14620000Y-8440000D01*
X14630000Y-11500000D02*
X14650000Y-11520000D01*
X14650000Y-11500000D02*
X14630000Y-11520000D01*
X14665000Y-10715000D02*
X14685000Y-10735000D01*
X14685000Y-10715000D02*
X14665000Y-10735000D01*
X14670204Y-11320000D02*
X14690204Y-11340000D01*
X14690204Y-11320000D02*
X14670204Y-11340000D01*
X14670204Y-11410000D02*
X14690204Y-11430000D01*
X14690204Y-11410000D02*
X14670204Y-11430000D01*
X14680000Y-11200000D02*
X14700000Y-11220000D01*
X14700000Y-11200000D02*
X14680000Y-11220000D01*
X14690000Y-11090000D02*
X14710000Y-11110000D01*
X14710000Y-11090000D02*
X14690000Y-11110000D01*
X14690000Y-12890000D02*
X14710000Y-12910000D01*
X14710000Y-12890000D02*
X14690000Y-12910000D01*
X14690500Y-12185000D02*
X14710500Y-12205000D01*
X14710500Y-12185000D02*
X14690500Y-12205000D01*
X14760000Y-9800000D02*
X14780000Y-9820000D01*
X14780000Y-9800000D02*
X14760000Y-9820000D01*
X14760000Y-10890000D02*
X14780000Y-10910000D01*
X14780000Y-10890000D02*
X14760000Y-10910000D01*
X14760000Y-12810000D02*
X14780000Y-12830000D01*
X14780000Y-12810000D02*
X14760000Y-12830000D01*
X14776024Y-8444773D02*
X14796024Y-8464773D01*
X14796024Y-8444773D02*
X14776024Y-8464773D01*
X14780000Y-12700000D02*
X14800000Y-12720000D01*
X14800000Y-12700000D02*
X14780000Y-12720000D01*
X14790000Y-11570000D02*
X14810000Y-11590000D01*
X14810000Y-11570000D02*
X14790000Y-11590000D01*
X14790000Y-11970000D02*
X14810000Y-11990000D01*
X14810000Y-11970000D02*
X14790000Y-11990000D01*
X14790000Y-12050000D02*
X14810000Y-12070000D01*
X14810000Y-12050000D02*
X14790000Y-12070000D01*
X14793318Y-11692780D02*
X14813318Y-11712780D01*
X14813318Y-11692780D02*
X14793318Y-11712780D01*
X14800000Y-11800000D02*
X14820000Y-11820000D01*
X14820000Y-11800000D02*
X14800000Y-11820000D01*
X14810000Y-8850000D02*
X14830000Y-8870000D01*
X14830000Y-8850000D02*
X14810000Y-8870000D01*
X14820000Y-12140000D02*
X14840000Y-12160000D01*
X14840000Y-12140000D02*
X14820000Y-12160000D01*
X14820000Y-12520000D02*
X14840000Y-12540000D01*
X14840000Y-12520000D02*
X14820000Y-12540000D01*
X14860000Y-8290000D02*
X14880000Y-8310000D01*
X14880000Y-8290000D02*
X14860000Y-8310000D01*
X14860000Y-12840000D02*
X14880000Y-12860000D01*
X14880000Y-12840000D02*
X14860000Y-12860000D01*
X14890000Y-10490000D02*
X14910000Y-10510000D01*
X14910000Y-10490000D02*
X14890000Y-10510000D01*
X14936000Y-8444000D02*
X14956000Y-8464000D01*
X14956000Y-8444000D02*
X14936000Y-8464000D01*
X14950000Y-10690000D02*
X14970000Y-10710000D01*
X14970000Y-10690000D02*
X14950000Y-10710000D01*
X14960000Y-11870000D02*
X14980000Y-11890000D01*
X14980000Y-11870000D02*
X14960000Y-11890000D01*
X14960000Y-11910000D02*
X14980000Y-11930000D01*
X14980000Y-11910000D02*
X14960000Y-11930000D01*
X14960000Y-12070000D02*
X14980000Y-12090000D01*
X14980000Y-12070000D02*
X14960000Y-12090000D01*
X14960000Y-12110000D02*
X14980000Y-12130000D01*
X14980000Y-12110000D02*
X14960000Y-12130000D01*
X14980000Y-12300000D02*
X15000000Y-12320000D01*
X15000000Y-12300000D02*
X14980000Y-12320000D01*
X14990000Y-10190000D02*
X15010000Y-10210000D01*
X15010000Y-10190000D02*
X14990000Y-10210000D01*
X15000000Y-8580000D02*
X15020000Y-8600000D01*
X15020000Y-8580000D02*
X15000000Y-8600000D01*
X15000000Y-12110000D02*
X15020000Y-12130000D01*
X15020000Y-12110000D02*
X15000000Y-12130000D01*
X15010000Y-11210000D02*
X15030000Y-11230000D01*
X15030000Y-11210000D02*
X15010000Y-11230000D01*
X15020000Y-8290000D02*
X15040000Y-8310000D01*
X15040000Y-8290000D02*
X15020000Y-8310000D01*
X15020000Y-11510000D02*
X15040000Y-11530000D01*
X15040000Y-11510000D02*
X15020000Y-11530000D01*
X15020000Y-12150000D02*
X15040000Y-12170000D01*
X15040000Y-12150000D02*
X15020000Y-12170000D01*
X15020000Y-12530000D02*
X15040000Y-12550000D01*
X15040000Y-12530000D02*
X15020000Y-12550000D01*
X15040000Y-10680000D02*
X15060000Y-10700000D01*
X15060000Y-10680000D02*
X15040000Y-10700000D01*
X15054096Y-11640683D02*
X15074096Y-11660683D01*
X15074096Y-11640683D02*
X15054096Y-11660683D01*
X15056338Y-11790876D02*
X15076338Y-11810876D01*
X15076338Y-11790876D02*
X15056338Y-11810876D01*
X15056338Y-11938828D02*
X15076338Y-11958828D01*
X15076338Y-11938828D02*
X15056338Y-11958828D01*
X15060000Y-12290000D02*
X15080000Y-12310000D01*
X15080000Y-12290000D02*
X15060000Y-12310000D01*
X15080000Y-10630000D02*
X15100000Y-10650000D01*
X15100000Y-10630000D02*
X15080000Y-10650000D01*
X15080000Y-11410000D02*
X15100000Y-11430000D01*
X15100000Y-11410000D02*
X15080000Y-11430000D01*
X15080000Y-12110000D02*
X15100000Y-12130000D01*
X15100000Y-12110000D02*
X15080000Y-12130000D01*
X15090000Y-9990000D02*
X15110000Y-10010000D01*
X15110000Y-9990000D02*
X15090000Y-10010000D01*
X15095122Y-8444889D02*
X15115122Y-8464889D01*
X15115122Y-8444889D02*
X15095122Y-8464889D01*
X15110000Y-8680000D02*
X15130000Y-8700000D01*
X15130000Y-8680000D02*
X15110000Y-8700000D01*
X15120000Y-12110000D02*
X15140000Y-12130000D01*
X15140000Y-12110000D02*
X15120000Y-12130000D01*
X15130000Y-11460000D02*
X15150000Y-11480000D01*
X15150000Y-11460000D02*
X15130000Y-11480000D01*
X15140000Y-11210000D02*
X15160000Y-11230000D01*
X15160000Y-11210000D02*
X15140000Y-11230000D01*
X15140000Y-12270000D02*
X15160000Y-12290000D01*
X15160000Y-12270000D02*
X15140000Y-12290000D01*
X15140000Y-12510000D02*
X15160000Y-12530000D01*
X15160000Y-12510000D02*
X15140000Y-12530000D01*
X15140000Y-12610000D02*
X15160000Y-12630000D01*
X15160000Y-12610000D02*
X15140000Y-12630000D01*
X15150000Y-10700000D02*
X15170000Y-10720000D01*
X15170000Y-10700000D02*
X15150000Y-10720000D01*
X15150000Y-10880000D02*
X15170000Y-10900000D01*
X15170000Y-10880000D02*
X15150000Y-10900000D01*
X15160000Y-12110000D02*
X15180000Y-12130000D01*
X15180000Y-12110000D02*
X15160000Y-12130000D01*
X15180000Y-8850000D02*
X15200000Y-8870000D01*
X15200000Y-8850000D02*
X15180000Y-8870000D01*
X15190000Y-9790000D02*
X15210000Y-9810000D01*
X15210000Y-9790000D02*
X15190000Y-9810000D01*
X15200000Y-12110000D02*
X15220000Y-12130000D01*
X15220000Y-12110000D02*
X15200000Y-12130000D01*
X15210000Y-8580000D02*
X15230000Y-8600000D01*
X15230000Y-8580000D02*
X15210000Y-8600000D01*
X15233432Y-11791997D02*
X15253432Y-11811997D01*
X15253432Y-11791997D02*
X15233432Y-11811997D01*
X15234553Y-11938828D02*
X15254553Y-11958828D01*
X15254553Y-11938828D02*
X15234553Y-11958828D01*
X15240000Y-12110000D02*
X15260000Y-12130000D01*
X15260000Y-12110000D02*
X15240000Y-12130000D01*
X15240000Y-12594341D02*
X15260000Y-12614341D01*
X15260000Y-12594341D02*
X15240000Y-12614341D01*
X15243519Y-11642924D02*
X15263519Y-11662924D01*
X15263519Y-11642924D02*
X15243519Y-11662924D01*
X15250000Y-10010000D02*
X15270000Y-10030000D01*
X15270000Y-10010000D02*
X15250000Y-10030000D01*
X15260000Y-12270000D02*
X15280000Y-12290000D01*
X15280000Y-12270000D02*
X15260000Y-12290000D01*
X15260000Y-12510000D02*
X15280000Y-12530000D01*
X15280000Y-12510000D02*
X15260000Y-12530000D01*
X15280000Y-12110000D02*
X15300000Y-12130000D01*
X15300000Y-12110000D02*
X15280000Y-12130000D01*
X15290000Y-8390000D02*
X15310000Y-8410000D01*
X15310000Y-8390000D02*
X15290000Y-8410000D01*
X15300000Y-11210000D02*
X15320000Y-11230000D01*
X15320000Y-11210000D02*
X15300000Y-11230000D01*
X15300000Y-11510000D02*
X15320000Y-11530000D01*
X15320000Y-11510000D02*
X15300000Y-11530000D01*
X15300292Y-12554391D02*
X15320292Y-12574391D01*
X15320292Y-12554391D02*
X15300292Y-12574391D01*
X15302500Y-11400000D02*
X15322500Y-11420000D01*
X15322500Y-11400000D02*
X15302500Y-11420000D01*
X15320000Y-10090000D02*
X15340000Y-10110000D01*
X15340000Y-10090000D02*
X15320000Y-10110000D01*
X15320000Y-12110000D02*
X15340000Y-12130000D01*
X15340000Y-12110000D02*
X15320000Y-12130000D01*
X15330000Y-9960000D02*
X15350000Y-9980000D01*
X15350000Y-9960000D02*
X15330000Y-9980000D01*
X15386988Y-11937707D02*
X15406988Y-11957707D01*
X15406988Y-11937707D02*
X15386988Y-11957707D01*
X15389230Y-11796480D02*
X15409230Y-11816480D01*
X15409230Y-11796480D02*
X15389230Y-11816480D01*
X15390000Y-9990000D02*
X15410000Y-10010000D01*
X15410000Y-9990000D02*
X15390000Y-10010000D01*
X15390000Y-10640000D02*
X15410000Y-10660000D01*
X15410000Y-10640000D02*
X15390000Y-10660000D01*
X15394834Y-11646287D02*
X15414834Y-11666287D01*
X15414834Y-11646287D02*
X15394834Y-11666287D01*
X15400000Y-11550000D02*
X15420000Y-11570000D01*
X15420000Y-11550000D02*
X15400000Y-11570000D01*
X15420000Y-12270000D02*
X15440000Y-12290000D01*
X15440000Y-12270000D02*
X15420000Y-12290000D01*
X15420000Y-12510000D02*
X15440000Y-12530000D01*
X15440000Y-12510000D02*
X15420000Y-12530000D01*
X15430000Y-10930000D02*
X15450000Y-10950000D01*
X15450000Y-10930000D02*
X15430000Y-10950000D01*
X15460000Y-11510000D02*
X15480000Y-11530000D01*
X15480000Y-11510000D02*
X15460000Y-11530000D01*
X15460000Y-12860000D02*
X15480000Y-12880000D01*
X15480000Y-12860000D02*
X15460000Y-12880000D01*
X15480000Y-11140000D02*
X15500000Y-11160000D01*
X15500000Y-11140000D02*
X15480000Y-11160000D01*
X15480000Y-12110000D02*
X15500000Y-12130000D01*
X15500000Y-12110000D02*
X15480000Y-12130000D01*
X15490000Y-8490000D02*
X15510000Y-8510000D01*
X15510000Y-8490000D02*
X15490000Y-8510000D01*
X15490000Y-9790000D02*
X15510000Y-9810000D01*
X15510000Y-9790000D02*
X15490000Y-9810000D01*
X15490000Y-10650000D02*
X15510000Y-10670000D01*
X15510000Y-10650000D02*
X15490000Y-10670000D01*
X15500000Y-10830000D02*
X15520000Y-10850000D01*
X15520000Y-10830000D02*
X15500000Y-10850000D01*
X15510000Y-10410000D02*
X15530000Y-10430000D01*
X15530000Y-10410000D02*
X15510000Y-10430000D01*
X15510000Y-10760000D02*
X15530000Y-10780000D01*
X15530000Y-10760000D02*
X15510000Y-10780000D01*
X15522500Y-10027500D02*
X15542500Y-10047500D01*
X15542500Y-10027500D02*
X15522500Y-10047500D01*
X15536760Y-11404704D02*
X15556760Y-11424704D01*
X15556760Y-11404704D02*
X15536760Y-11424704D01*
X15560000Y-11650000D02*
X15580000Y-11670000D01*
X15580000Y-11650000D02*
X15560000Y-11670000D01*
X15560000Y-11890000D02*
X15580000Y-11910000D01*
X15580000Y-11890000D02*
X15560000Y-11910000D01*
X15560000Y-11930000D02*
X15580000Y-11950000D01*
X15580000Y-11930000D02*
X15560000Y-11950000D01*
X15560000Y-12620000D02*
X15580000Y-12640000D01*
X15580000Y-12620000D02*
X15560000Y-12640000D01*
X15560000Y-12860000D02*
X15580000Y-12880000D01*
X15580000Y-12860000D02*
X15560000Y-12880000D01*
X15570000Y-10250000D02*
X15590000Y-10270000D01*
X15590000Y-10250000D02*
X15570000Y-10270000D01*
X15570000Y-10480000D02*
X15590000Y-10500000D01*
X15590000Y-10480000D02*
X15570000Y-10500000D01*
X15570000Y-11130000D02*
X15590000Y-11150000D01*
X15590000Y-11130000D02*
X15570000Y-11150000D01*
X15590000Y-9590000D02*
X15610000Y-9610000D01*
X15610000Y-9590000D02*
X15590000Y-9610000D01*
X15592500Y-10027500D02*
X15612500Y-10047500D01*
X15612500Y-10027500D02*
X15592500Y-10047500D01*
X15620000Y-11820000D02*
X15640000Y-11840000D01*
X15640000Y-11820000D02*
X15620000Y-11840000D01*
X15635000Y-10505000D02*
X15655000Y-10525000D01*
X15655000Y-10505000D02*
X15635000Y-10525000D01*
X15640000Y-8470000D02*
X15660000Y-8490000D01*
X15660000Y-8470000D02*
X15640000Y-8490000D01*
X15640000Y-8960000D02*
X15660000Y-8980000D01*
X15660000Y-8960000D02*
X15640000Y-8980000D01*
X15640000Y-12050000D02*
X15660000Y-12070000D01*
X15660000Y-12050000D02*
X15640000Y-12070000D01*
X15651681Y-11553229D02*
X15671681Y-11573229D01*
X15671681Y-11553229D02*
X15651681Y-11573229D01*
X15660000Y-12520000D02*
X15680000Y-12540000D01*
X15680000Y-12520000D02*
X15660000Y-12540000D01*
X15680000Y-12180000D02*
X15700000Y-12200000D01*
X15700000Y-12180000D02*
X15680000Y-12200000D01*
X15680000Y-12250000D02*
X15700000Y-12270000D01*
X15700000Y-12250000D02*
X15680000Y-12270000D01*
X15690000Y-9190000D02*
X15710000Y-9210000D01*
X15710000Y-9190000D02*
X15690000Y-9210000D01*
X15690000Y-9390000D02*
X15710000Y-9410000D01*
X15710000Y-9390000D02*
X15690000Y-9410000D01*
X15690000Y-11820000D02*
X15710000Y-11840000D01*
X15710000Y-11820000D02*
X15690000Y-11840000D01*
X15695960Y-11640794D02*
X15715960Y-11660794D01*
X15715960Y-11640794D02*
X15695960Y-11660794D01*
X15700000Y-10550000D02*
X15720000Y-10570000D01*
X15720000Y-10550000D02*
X15700000Y-10570000D01*
X15700000Y-11920000D02*
X15720000Y-11940000D01*
X15720000Y-11920000D02*
X15700000Y-11940000D01*
X15702037Y-10661361D02*
X15722037Y-10681361D01*
X15722037Y-10661361D02*
X15702037Y-10681361D01*
X15710000Y-9780000D02*
X15730000Y-9800000D01*
X15730000Y-9780000D02*
X15710000Y-9800000D01*
X15724218Y-10486191D02*
X15744218Y-10506191D01*
X15744218Y-10486191D02*
X15724218Y-10506191D01*
X15725000Y-10415000D02*
X15745000Y-10435000D01*
X15745000Y-10415000D02*
X15725000Y-10435000D01*
X15725000Y-10780000D02*
X15745000Y-10800000D01*
X15745000Y-10780000D02*
X15725000Y-10800000D01*
X15725000Y-10865000D02*
X15745000Y-10885000D01*
X15745000Y-10865000D02*
X15725000Y-10885000D01*
X15726431Y-10314997D02*
X15746431Y-10334997D01*
X15746431Y-10314997D02*
X15726431Y-10334997D01*
X15740000Y-8470000D02*
X15760000Y-8490000D01*
X15760000Y-8470000D02*
X15740000Y-8490000D01*
X15740000Y-8960000D02*
X15760000Y-8980000D01*
X15760000Y-8960000D02*
X15740000Y-8980000D01*
X15740000Y-12410000D02*
X15760000Y-12430000D01*
X15760000Y-12410000D02*
X15740000Y-12430000D01*
X15760000Y-11640000D02*
X15780000Y-11660000D01*
X15780000Y-11640000D02*
X15760000Y-11660000D01*
X15760000Y-12880000D02*
X15780000Y-12900000D01*
X15780000Y-12880000D02*
X15760000Y-12900000D01*
X15765000Y-11165000D02*
X15785000Y-11185000D01*
X15785000Y-11165000D02*
X15765000Y-11185000D01*
X15770000Y-9870000D02*
X15790000Y-9890000D01*
X15790000Y-9870000D02*
X15770000Y-9890000D01*
X15770000Y-10070000D02*
X15790000Y-10090000D01*
X15790000Y-10070000D02*
X15770000Y-10090000D01*
X15810000Y-12050000D02*
X15830000Y-12070000D01*
X15830000Y-12050000D02*
X15810000Y-12070000D01*
X15810000Y-12220000D02*
X15830000Y-12240000D01*
X15830000Y-12220000D02*
X15810000Y-12240000D01*
X15810000Y-12313000D02*
X15830000Y-12333000D01*
X15830000Y-12313000D02*
X15810000Y-12333000D01*
X15810000Y-12491000D02*
X15830000Y-12511000D01*
X15830000Y-12491000D02*
X15810000Y-12511000D01*
X15810000Y-12580000D02*
X15830000Y-12600000D01*
X15830000Y-12580000D02*
X15810000Y-12600000D01*
X15820000Y-8470000D02*
X15840000Y-8490000D01*
X15840000Y-8470000D02*
X15820000Y-8490000D01*
X15820000Y-12120000D02*
X15840000Y-12140000D01*
X15840000Y-12120000D02*
X15820000Y-12140000D01*
X15830000Y-8970000D02*
X15850000Y-8990000D01*
X15850000Y-8970000D02*
X15830000Y-8990000D01*
X15830000Y-11640000D02*
X15850000Y-11660000D01*
X15850000Y-11640000D02*
X15830000Y-11660000D01*
X15830000Y-11820000D02*
X15850000Y-11840000D01*
X15850000Y-11820000D02*
X15830000Y-11840000D01*
X15832051Y-11250050D02*
X15852051Y-11270050D01*
X15852051Y-11250050D02*
X15832051Y-11270050D01*
X15850000Y-12730000D02*
X15870000Y-12750000D01*
X15870000Y-12730000D02*
X15850000Y-12750000D01*
X15867500Y-11440000D02*
X15887500Y-11460000D01*
X15887500Y-11440000D02*
X15867500Y-11460000D01*
X15880000Y-11030000D02*
X15900000Y-11050000D01*
X15900000Y-11030000D02*
X15880000Y-11050000D01*
X15880000Y-12050000D02*
X15900000Y-12070000D01*
X15900000Y-12050000D02*
X15880000Y-12070000D01*
X15890000Y-9590000D02*
X15910000Y-9610000D01*
X15910000Y-9590000D02*
X15890000Y-9610000D01*
X15910000Y-8970000D02*
X15930000Y-8990000D01*
X15930000Y-8970000D02*
X15910000Y-8990000D01*
X15910000Y-11640000D02*
X15930000Y-11660000D01*
X15930000Y-11640000D02*
X15910000Y-11660000D01*
X15910000Y-11820000D02*
X15930000Y-11840000D01*
X15930000Y-11820000D02*
X15910000Y-11840000D01*
X15925000Y-8450000D02*
X15945000Y-8470000D01*
X15945000Y-8450000D02*
X15925000Y-8470000D01*
X15960000Y-12010000D02*
X15980000Y-12030000D01*
X15980000Y-12010000D02*
X15960000Y-12030000D01*
X15965000Y-9390000D02*
X15985000Y-9410000D01*
X15985000Y-9390000D02*
X15965000Y-9410000D01*
X15970000Y-11020050D02*
X15990000Y-11040050D01*
X15990000Y-11020050D02*
X15970000Y-11040050D01*
X15970000Y-12730000D02*
X15990000Y-12750000D01*
X15990000Y-12730000D02*
X15970000Y-12750000D01*
X15975000Y-10415000D02*
X15995000Y-10435000D01*
X15995000Y-10415000D02*
X15975000Y-10435000D01*
X15980815Y-10583782D02*
X16000815Y-10603782D01*
X16000815Y-10583782D02*
X15980815Y-10603782D01*
X15981585Y-10769377D02*
X16001585Y-10789377D01*
X16001585Y-10769377D02*
X15981585Y-10789377D01*
X15990000Y-8390000D02*
X16010000Y-8410000D01*
X16010000Y-8390000D02*
X15990000Y-8410000D01*
X15990000Y-9290000D02*
X16010000Y-9310000D01*
X16010000Y-9290000D02*
X15990000Y-9310000D01*
X15990000Y-11640000D02*
X16010000Y-11660000D01*
X16010000Y-11640000D02*
X15990000Y-11660000D01*
X15990000Y-11820000D02*
X16010000Y-11840000D01*
X16010000Y-11820000D02*
X15990000Y-11840000D01*
X16010000Y-11130000D02*
X16030000Y-11150000D01*
X16030000Y-11130000D02*
X16010000Y-11150000D01*
X16010000Y-12313000D02*
X16030000Y-12333000D01*
X16030000Y-12313000D02*
X16010000Y-12333000D01*
X16010000Y-12402000D02*
X16030000Y-12422000D01*
X16030000Y-12402000D02*
X16010000Y-12422000D01*
X16010000Y-12491000D02*
X16030000Y-12511000D01*
X16030000Y-12491000D02*
X16010000Y-12511000D01*
X16010000Y-12580000D02*
X16030000Y-12600000D01*
X16030000Y-12580000D02*
X16010000Y-12600000D01*
X16030000Y-8470000D02*
X16050000Y-8490000D01*
X16050000Y-8470000D02*
X16030000Y-8490000D01*
X16032500Y-11345000D02*
X16052500Y-11365000D01*
X16052500Y-11345000D02*
X16032500Y-11365000D01*
X16041213Y-10151213D02*
X16061213Y-10171213D01*
X16061213Y-10151213D02*
X16041213Y-10171213D01*
X16060000Y-11640000D02*
X16080000Y-11660000D01*
X16080000Y-11640000D02*
X16060000Y-11660000D01*
X16060000Y-11890000D02*
X16080000Y-11910000D01*
X16080000Y-11890000D02*
X16060000Y-11910000D01*
X16060000Y-12880000D02*
X16080000Y-12900000D01*
X16080000Y-12880000D02*
X16060000Y-12900000D01*
X16080000Y-11090000D02*
X16100000Y-11110000D01*
X16100000Y-11090000D02*
X16080000Y-11110000D01*
X16090000Y-8290000D02*
X16110000Y-8310000D01*
X16110000Y-8290000D02*
X16090000Y-8310000D01*
X16110000Y-10160000D02*
X16130000Y-10180000D01*
X16130000Y-10160000D02*
X16110000Y-10180000D01*
X16110000Y-11820000D02*
X16130000Y-11840000D01*
X16130000Y-11820000D02*
X16110000Y-11840000D01*
X16110000Y-12210000D02*
X16130000Y-12230000D01*
X16130000Y-12210000D02*
X16110000Y-12230000D01*
X16126035Y-11616063D02*
X16146035Y-11636063D01*
X16146035Y-11616063D02*
X16126035Y-11636063D01*
X16130000Y-12010000D02*
X16150000Y-12030000D01*
X16150000Y-12010000D02*
X16130000Y-12030000D01*
X16133278Y-9403278D02*
X16153278Y-9423278D01*
X16153278Y-9403278D02*
X16133278Y-9423278D01*
X16150000Y-9310000D02*
X16170000Y-9330000D01*
X16170000Y-9310000D02*
X16150000Y-9330000D01*
X16151778Y-10412820D02*
X16171778Y-10432820D01*
X16171778Y-10412820D02*
X16151778Y-10432820D01*
X16155000Y-11417500D02*
X16175000Y-11437500D01*
X16175000Y-11417500D02*
X16155000Y-11437500D01*
X16155198Y-10718460D02*
X16175198Y-10738460D01*
X16175198Y-10718460D02*
X16155198Y-10738460D01*
X16159479Y-10589943D02*
X16179479Y-10609943D01*
X16179479Y-10589943D02*
X16159479Y-10609943D01*
X16175522Y-11001045D02*
X16195522Y-11021045D01*
X16195522Y-11001045D02*
X16175522Y-11021045D01*
X16188417Y-11585539D02*
X16208417Y-11605539D01*
X16208417Y-11585539D02*
X16188417Y-11605539D01*
X16190000Y-11800000D02*
X16210000Y-11820000D01*
X16210000Y-11800000D02*
X16190000Y-11820000D01*
X16200000Y-9480000D02*
X16220000Y-9500000D01*
X16220000Y-9480000D02*
X16200000Y-9500000D01*
X16260000Y-11080000D02*
X16280000Y-11100000D01*
X16280000Y-11080000D02*
X16260000Y-11100000D01*
X16260000Y-11750000D02*
X16280000Y-11770000D01*
X16280000Y-11750000D02*
X16260000Y-11770000D01*
X16270000Y-11570000D02*
X16290000Y-11590000D01*
X16290000Y-11570000D02*
X16270000Y-11590000D01*
X16270000Y-12270000D02*
X16290000Y-12290000D01*
X16290000Y-12270000D02*
X16270000Y-12290000D01*
X16270000Y-12350000D02*
X16290000Y-12370000D01*
X16290000Y-12350000D02*
X16270000Y-12370000D01*
X16270000Y-12430000D02*
X16290000Y-12450000D01*
X16290000Y-12430000D02*
X16270000Y-12450000D01*
X16270000Y-12510000D02*
X16290000Y-12530000D01*
X16290000Y-12510000D02*
X16270000Y-12530000D01*
X16270000Y-12590000D02*
X16290000Y-12610000D01*
X16290000Y-12590000D02*
X16270000Y-12610000D01*
X16270000Y-12670000D02*
X16290000Y-12690000D01*
X16290000Y-12670000D02*
X16270000Y-12690000D01*
X16270000Y-12750000D02*
X16290000Y-12770000D01*
X16290000Y-12750000D02*
X16270000Y-12770000D01*
X16270000Y-12830000D02*
X16290000Y-12850000D01*
X16290000Y-12830000D02*
X16270000Y-12850000D01*
X16270000Y-12900000D02*
X16290000Y-12920000D01*
X16290000Y-12900000D02*
X16270000Y-12920000D01*
X16275000Y-10160000D02*
X16295000Y-10180000D01*
X16295000Y-10160000D02*
X16275000Y-10180000D01*
X16300000Y-11810000D02*
X16320000Y-11830000D01*
X16320000Y-11810000D02*
X16300000Y-11830000D01*
X16320000Y-10720000D02*
X16340000Y-10740000D01*
X16340000Y-10720000D02*
X16320000Y-10740000D01*
X16322741Y-10589943D02*
X16342741Y-10609943D01*
X16342741Y-10589943D02*
X16322741Y-10609943D01*
X16325000Y-9585000D02*
X16345000Y-9605000D01*
X16345000Y-9585000D02*
X16325000Y-9605000D01*
X16325000Y-10415000D02*
X16345000Y-10435000D01*
X16345000Y-10415000D02*
X16325000Y-10435000D01*
X16329778Y-12010000D02*
X16349778Y-12030000D01*
X16349778Y-12010000D02*
X16329778Y-12030000D01*
X16329778Y-12210000D02*
X16349778Y-12230000D01*
X16349778Y-12210000D02*
X16329778Y-12230000D01*
X16330000Y-11080000D02*
X16350000Y-11100000D01*
X16350000Y-11080000D02*
X16330000Y-11100000D01*
X16337764Y-9442236D02*
X16357764Y-9462236D01*
X16357764Y-9442236D02*
X16337764Y-9462236D01*
X16350000Y-11570000D02*
X16370000Y-11590000D01*
X16370000Y-11570000D02*
X16350000Y-11590000D01*
X16350000Y-11750000D02*
X16370000Y-11770000D01*
X16370000Y-11750000D02*
X16350000Y-11770000D01*
X16380000Y-11480000D02*
X16400000Y-11500000D01*
X16400000Y-11480000D02*
X16380000Y-11500000D01*
X16390000Y-11940000D02*
X16410000Y-11960000D01*
X16410000Y-11940000D02*
X16390000Y-11960000D01*
X16410000Y-11830000D02*
X16430000Y-11850000D01*
X16430000Y-11830000D02*
X16410000Y-11850000D01*
X16413555Y-12010000D02*
X16433555Y-12030000D01*
X16433555Y-12010000D02*
X16413555Y-12030000D01*
X16413555Y-12210000D02*
X16433555Y-12230000D01*
X16433555Y-12210000D02*
X16413555Y-12230000D01*
X16424634Y-9685366D02*
X16444634Y-9705366D01*
X16444634Y-9685366D02*
X16424634Y-9705366D01*
X16425434Y-11000984D02*
X16445434Y-11020984D01*
X16445434Y-11000984D02*
X16425434Y-11020984D01*
X16430000Y-11570000D02*
X16450000Y-11590000D01*
X16450000Y-11570000D02*
X16430000Y-11590000D01*
X16440000Y-10170000D02*
X16460000Y-10190000D01*
X16460000Y-10170000D02*
X16440000Y-10190000D01*
X16446059Y-8873941D02*
X16466059Y-8893941D01*
X16466059Y-8873941D02*
X16446059Y-8893941D01*
X16460000Y-8970000D02*
X16480000Y-8990000D01*
X16480000Y-8970000D02*
X16460000Y-8990000D01*
X16470000Y-8810000D02*
X16490000Y-8830000D01*
X16490000Y-8810000D02*
X16470000Y-8830000D01*
X16470000Y-11470000D02*
X16490000Y-11490000D01*
X16490000Y-11470000D02*
X16470000Y-11490000D01*
X16470000Y-11920000D02*
X16490000Y-11940000D01*
X16490000Y-11920000D02*
X16470000Y-11940000D01*
X16490000Y-9080000D02*
X16510000Y-9100000D01*
X16510000Y-9080000D02*
X16490000Y-9100000D01*
X16497333Y-12010000D02*
X16517333Y-12030000D01*
X16517333Y-12010000D02*
X16497333Y-12030000D01*
X16497333Y-12210000D02*
X16517333Y-12230000D01*
X16517333Y-12210000D02*
X16497333Y-12230000D01*
X16540000Y-9130000D02*
X16560000Y-9150000D01*
X16560000Y-9130000D02*
X16540000Y-9150000D01*
X16550000Y-11510000D02*
X16570000Y-11530000D01*
X16570000Y-11510000D02*
X16550000Y-11530000D01*
X16553750Y-11886250D02*
X16573750Y-11906250D01*
X16573750Y-11886250D02*
X16553750Y-11906250D01*
X16572070Y-10463965D02*
X16592070Y-10483965D01*
X16592070Y-10463965D02*
X16572070Y-10483965D01*
X16580000Y-11370000D02*
X16600000Y-11390000D01*
X16600000Y-11370000D02*
X16580000Y-11390000D01*
X16581111Y-12010000D02*
X16601111Y-12030000D01*
X16601111Y-12010000D02*
X16581111Y-12030000D01*
X16581111Y-12210000D02*
X16601111Y-12230000D01*
X16601111Y-12210000D02*
X16581111Y-12230000D01*
X16590000Y-10300000D02*
X16610000Y-10320000D01*
X16610000Y-10300000D02*
X16590000Y-10320000D01*
X16590000Y-10930000D02*
X16610000Y-10950000D01*
X16610000Y-10930000D02*
X16590000Y-10950000D01*
X16615000Y-9205000D02*
X16635000Y-9225000D01*
X16635000Y-9205000D02*
X16615000Y-9225000D01*
X16616066Y-9886066D02*
X16636066Y-9906066D01*
X16636066Y-9886066D02*
X16616066Y-9906066D01*
X16630000Y-10360000D02*
X16650000Y-10380000D01*
X16650000Y-10360000D02*
X16630000Y-10380000D01*
X16660000Y-9250000D02*
X16680000Y-9270000D01*
X16680000Y-9250000D02*
X16660000Y-9270000D01*
X16664889Y-12010000D02*
X16684889Y-12030000D01*
X16684889Y-12010000D02*
X16664889Y-12030000D01*
X16664889Y-12210000D02*
X16684889Y-12230000D01*
X16684889Y-12210000D02*
X16664889Y-12230000D01*
X16665000Y-10090000D02*
X16685000Y-10110000D01*
X16685000Y-10090000D02*
X16665000Y-10110000D01*
X16680000Y-10640000D02*
X16700000Y-10660000D01*
X16700000Y-10640000D02*
X16680000Y-10660000D01*
X16680000Y-10700000D02*
X16700000Y-10720000D01*
X16700000Y-10700000D02*
X16680000Y-10720000D01*
X16680000Y-11020000D02*
X16700000Y-11040000D01*
X16700000Y-11020000D02*
X16680000Y-11040000D01*
X16727021Y-10395445D02*
X16747021Y-10415445D01*
X16747021Y-10395445D02*
X16727021Y-10415445D01*
X16748667Y-12010000D02*
X16768667Y-12030000D01*
X16768667Y-12010000D02*
X16748667Y-12030000D01*
X16748667Y-12210000D02*
X16768667Y-12230000D01*
X16768667Y-12210000D02*
X16748667Y-12230000D01*
X16749479Y-11427654D02*
X16769479Y-11447654D01*
X16769479Y-11427654D02*
X16749479Y-11447654D01*
X16765000Y-9355000D02*
X16785000Y-9375000D01*
X16785000Y-9355000D02*
X16765000Y-9375000D01*
X16790000Y-9915000D02*
X16810000Y-9935000D01*
X16810000Y-9915000D02*
X16790000Y-9935000D01*
X16810000Y-9400000D02*
X16830000Y-9420000D01*
X16830000Y-9400000D02*
X16810000Y-9420000D01*
X16813750Y-11423750D02*
X16833750Y-11443750D01*
X16833750Y-11423750D02*
X16813750Y-11443750D01*
X16832444Y-12010000D02*
X16852444Y-12030000D01*
X16852444Y-12010000D02*
X16832444Y-12030000D01*
X16832444Y-12210000D02*
X16852444Y-12230000D01*
X16852444Y-12210000D02*
X16832444Y-12230000D01*
X16870000Y-11120000D02*
X16890000Y-11140000D01*
X16890000Y-11120000D02*
X16870000Y-11140000D01*
X16880000Y-9480000D02*
X16900000Y-9500000D01*
X16900000Y-9480000D02*
X16880000Y-9500000D01*
X16910000Y-11500000D02*
X16930000Y-11520000D01*
X16930000Y-11500000D02*
X16910000Y-11520000D01*
X16916222Y-12010000D02*
X16936222Y-12030000D01*
X16936222Y-12010000D02*
X16916222Y-12030000D01*
X16916222Y-12210000D02*
X16936222Y-12230000D01*
X16936222Y-12210000D02*
X16916222Y-12230000D01*
X16930000Y-9520000D02*
X16950000Y-9540000D01*
X16950000Y-9520000D02*
X16930000Y-9540000D01*
X16960000Y-11120000D02*
X16980000Y-11140000D01*
X16980000Y-11120000D02*
X16960000Y-11140000D01*
X16990000Y-11480000D02*
X17010000Y-11500000D01*
X17010000Y-11480000D02*
X16990000Y-11500000D01*
X17000000Y-11300000D02*
X17020000Y-11320000D01*
X17020000Y-11300000D02*
X17000000Y-11320000D01*
X17000000Y-11380000D02*
X17020000Y-11400000D01*
X17020000Y-11380000D02*
X17000000Y-11400000D01*
X17000000Y-12010000D02*
X17020000Y-12030000D01*
X17020000Y-12010000D02*
X17000000Y-12030000D01*
X17000000Y-12210000D02*
X17020000Y-12230000D01*
X17020000Y-12210000D02*
X17000000Y-12230000D01*
X17010000Y-11830000D02*
X17030000Y-11850000D01*
X17030000Y-11830000D02*
X17010000Y-11850000D01*
X17010000Y-11920000D02*
X17030000Y-11940000D01*
X17030000Y-11920000D02*
X17010000Y-11940000D01*
X17030000Y-9550000D02*
X17050000Y-9570000D01*
X17050000Y-9550000D02*
X17030000Y-9570000D01*
X17040000Y-10990000D02*
X17060000Y-11010000D01*
X17060000Y-10990000D02*
X17040000Y-11010000D01*
X17040000Y-11215000D02*
X17060000Y-11235000D01*
X17060000Y-11215000D02*
X17040000Y-11235000D01*
X17060000Y-11480000D02*
X17080000Y-11500000D01*
X17080000Y-11480000D02*
X17060000Y-11500000D01*
X17070000Y-11070000D02*
X17090000Y-11090000D01*
X17090000Y-11070000D02*
X17070000Y-11090000D01*
X17090000Y-9440000D02*
X17110000Y-9460000D01*
X17110000Y-9440000D02*
X17090000Y-9460000D01*
X17090000Y-12190000D02*
X17110000Y-12210000D01*
X17110000Y-12190000D02*
X17090000Y-12210000D01*
X17115000Y-11365000D02*
X17135000Y-11385000D01*
X17135000Y-11365000D02*
X17115000Y-11385000D01*
X17125000Y-10485000D02*
X17145000Y-10505000D01*
X17145000Y-10485000D02*
X17125000Y-10505000D01*
X17130000Y-10330000D02*
X17150000Y-10350000D01*
X17150000Y-10330000D02*
X17130000Y-10350000D01*
X17130000Y-10400000D02*
X17150000Y-10420000D01*
X17150000Y-10400000D02*
X17130000Y-10420000D01*
X17130000Y-10550000D02*
X17150000Y-10570000D01*
X17150000Y-10550000D02*
X17130000Y-10570000D01*
X17130000Y-11480000D02*
X17150000Y-11500000D01*
X17150000Y-11480000D02*
X17130000Y-11500000D01*
X17140000Y-11670000D02*
X17160000Y-11690000D01*
X17160000Y-11670000D02*
X17140000Y-11690000D01*
X17145000Y-9575000D02*
X17165000Y-9595000D01*
X17165000Y-9575000D02*
X17145000Y-9595000D01*
X17148000Y-11092000D02*
X17168000Y-11112000D01*
X17168000Y-11092000D02*
X17148000Y-11112000D01*
X17160000Y-12140000D02*
X17180000Y-12160000D01*
X17180000Y-12140000D02*
X17160000Y-12160000D01*
X17185000Y-10055000D02*
X17205000Y-10075000D01*
X17205000Y-10055000D02*
X17185000Y-10075000D01*
X17190000Y-12200000D02*
X17210000Y-12220000D01*
X17210000Y-12200000D02*
X17190000Y-12220000D01*
X17200000Y-12070000D02*
X17220000Y-12090000D01*
X17220000Y-12070000D02*
X17200000Y-12090000D01*
X17204931Y-9535069D02*
X17224931Y-9555069D01*
X17224931Y-9535069D02*
X17204931Y-9555069D01*
X17210000Y-11750000D02*
X17230000Y-11770000D01*
X17230000Y-11750000D02*
X17210000Y-11770000D01*
X17210000Y-11830000D02*
X17230000Y-11850000D01*
X17230000Y-11830000D02*
X17210000Y-11850000D01*
X17210000Y-11910000D02*
X17230000Y-11930000D01*
X17230000Y-11910000D02*
X17210000Y-11930000D01*
X17216250Y-11680000D02*
X17236250Y-11700000D01*
X17236250Y-11680000D02*
X17216250Y-11700000D01*
X17270000Y-12200000D02*
X17290000Y-12220000D01*
X17290000Y-12200000D02*
X17270000Y-12220000D01*
X17290000Y-10965000D02*
X17310000Y-10985000D01*
X17310000Y-10965000D02*
X17290000Y-10985000D01*
X17298000Y-11092000D02*
X17318000Y-11112000D01*
X17318000Y-11092000D02*
X17298000Y-11112000D01*
X17299167Y-11480000D02*
X17319167Y-11500000D01*
X17319167Y-11480000D02*
X17299167Y-11500000D01*
X17299167Y-11680000D02*
X17319167Y-11700000D01*
X17319167Y-11680000D02*
X17299167Y-11700000D01*
X17315000Y-12040000D02*
X17335000Y-12060000D01*
X17335000Y-12040000D02*
X17315000Y-12060000D01*
X17350000Y-12200000D02*
X17370000Y-12220000D01*
X17370000Y-12200000D02*
X17350000Y-12220000D01*
X17360000Y-10130000D02*
X17380000Y-10150000D01*
X17380000Y-10130000D02*
X17360000Y-10150000D01*
X17360000Y-10770000D02*
X17380000Y-10790000D01*
X17380000Y-10770000D02*
X17360000Y-10790000D01*
X17360000Y-10880000D02*
X17380000Y-10900000D01*
X17380000Y-10880000D02*
X17360000Y-10900000D01*
X17365000Y-11365000D02*
X17385000Y-11385000D01*
X17385000Y-11365000D02*
X17365000Y-11385000D01*
X17368928Y-10018922D02*
X17388928Y-10038922D01*
X17388928Y-10018922D02*
X17368928Y-10038922D01*
X17382083Y-11480000D02*
X17402083Y-11500000D01*
X17402083Y-11480000D02*
X17382083Y-11500000D01*
X17420000Y-11780000D02*
X17440000Y-11800000D01*
X17440000Y-11780000D02*
X17420000Y-11800000D01*
X17420000Y-11960000D02*
X17440000Y-11980000D01*
X17440000Y-11960000D02*
X17420000Y-11980000D01*
X17420000Y-12040000D02*
X17440000Y-12060000D01*
X17440000Y-12040000D02*
X17420000Y-12060000D01*
X17420000Y-12120000D02*
X17440000Y-12140000D01*
X17440000Y-12120000D02*
X17420000Y-12140000D01*
X17420000Y-12190000D02*
X17440000Y-12210000D01*
X17440000Y-12190000D02*
X17420000Y-12210000D01*
X17465000Y-11480000D02*
X17485000Y-11500000D01*
X17485000Y-11480000D02*
X17465000Y-11500000D01*
X17510000Y-10980000D02*
X17530000Y-11000000D01*
X17530000Y-10980000D02*
X17510000Y-11000000D01*
X17546766Y-8136766D02*
X17566766Y-8156766D01*
X17566766Y-8136766D02*
X17546766Y-8156766D01*
X17550000Y-11500000D02*
X17570000Y-11520000D01*
X17570000Y-11500000D02*
X17550000Y-11520000D01*
X17570000Y-10280000D02*
X17590000Y-10300000D01*
X17590000Y-10280000D02*
X17570000Y-10300000D01*
X17574500Y-10624500D02*
X17594500Y-10644500D01*
X17594500Y-10624500D02*
X17574500Y-10644500D01*
X17600000Y-10400000D02*
X17620000Y-10420000D01*
X17620000Y-10400000D02*
X17600000Y-10420000D01*
X17600000Y-10510000D02*
X17620000Y-10530000D01*
X17620000Y-10510000D02*
X17600000Y-10530000D01*
X17610000Y-11550000D02*
X17630000Y-11570000D01*
X17630000Y-11550000D02*
X17610000Y-11570000D01*
X17613234Y-8203234D02*
X17633234Y-8223234D01*
X17633234Y-8203234D02*
X17613234Y-8223234D01*
X17615000Y-11390000D02*
X17635000Y-11410000D01*
X17635000Y-11390000D02*
X17615000Y-11410000D01*
X17629480Y-12034129D02*
X17649480Y-12054129D01*
X17649480Y-12034129D02*
X17629480Y-12054129D01*
X17630000Y-11770000D02*
X17650000Y-11790000D01*
X17650000Y-11770000D02*
X17630000Y-11790000D01*
X17630000Y-11960000D02*
X17650000Y-11980000D01*
X17650000Y-11960000D02*
X17630000Y-11980000D01*
X17630000Y-12110000D02*
X17650000Y-12130000D01*
X17650000Y-12110000D02*
X17630000Y-12130000D01*
X17640000Y-8380000D02*
X17660000Y-8400000D01*
X17660000Y-8380000D02*
X17640000Y-8400000D01*
X17640000Y-11620000D02*
X17660000Y-11640000D01*
X17660000Y-11620000D02*
X17640000Y-11640000D01*
X17651941Y-10016997D02*
X17671941Y-10036997D01*
X17671941Y-10016997D02*
X17651941Y-10036997D01*
X17670000Y-10910000D02*
X17690000Y-10930000D01*
X17690000Y-10910000D02*
X17670000Y-10930000D01*
X17670000Y-11010000D02*
X17690000Y-11030000D01*
X17690000Y-11010000D02*
X17670000Y-11030000D01*
X17690000Y-12190000D02*
X17710000Y-12210000D01*
X17710000Y-12190000D02*
X17690000Y-12210000D01*
X17720000Y-8700000D02*
X17740000Y-8720000D01*
X17740000Y-8700000D02*
X17720000Y-8720000D01*
X17740000Y-10215000D02*
X17760000Y-10235000D01*
X17760000Y-10215000D02*
X17740000Y-10235000D01*
X17740000Y-10540000D02*
X17760000Y-10560000D01*
X17760000Y-10540000D02*
X17740000Y-10560000D01*
X17750000Y-9510000D02*
X17770000Y-9530000D01*
X17770000Y-9510000D02*
X17750000Y-9530000D01*
X17760000Y-12190000D02*
X17780000Y-12210000D01*
X17780000Y-12190000D02*
X17760000Y-12210000D01*
X17775594Y-11376753D02*
X17795594Y-11396753D01*
X17795594Y-11376753D02*
X17775594Y-11396753D01*
X17790000Y-11715000D02*
X17810000Y-11735000D01*
X17810000Y-11715000D02*
X17790000Y-11735000D01*
X17800000Y-10880000D02*
X17820000Y-10900000D01*
X17820000Y-10880000D02*
X17800000Y-10900000D01*
X17805961Y-10020848D02*
X17825961Y-10040848D01*
X17825961Y-10020848D02*
X17805961Y-10040848D01*
X17815000Y-12040000D02*
X17835000Y-12060000D01*
X17835000Y-12040000D02*
X17815000Y-12060000D01*
X17815467Y-8405467D02*
X17835467Y-8425467D01*
X17835467Y-8405467D02*
X17815467Y-8425467D01*
X17820000Y-9380000D02*
X17840000Y-9400000D01*
X17840000Y-9380000D02*
X17820000Y-9400000D01*
X17840000Y-12190000D02*
X17860000Y-12210000D01*
X17860000Y-12190000D02*
X17840000Y-12210000D01*
X17842844Y-11492726D02*
X17862844Y-11512726D01*
X17862844Y-11492726D02*
X17842844Y-11512726D01*
X17850000Y-9710000D02*
X17870000Y-9730000D01*
X17870000Y-9710000D02*
X17850000Y-9730000D01*
X17873130Y-9486870D02*
X17893130Y-9506870D01*
X17893130Y-9486870D02*
X17873130Y-9506870D01*
X17881935Y-8471935D02*
X17901935Y-8491935D01*
X17901935Y-8471935D02*
X17881935Y-8491935D01*
X17920000Y-12190000D02*
X17940000Y-12210000D01*
X17940000Y-12190000D02*
X17920000Y-12210000D01*
X17924686Y-9927152D02*
X17944686Y-9947152D01*
X17944686Y-9927152D02*
X17924686Y-9947152D01*
X17925327Y-10789026D02*
X17945327Y-10809026D01*
X17945327Y-10789026D02*
X17925327Y-10809026D01*
X17927894Y-10111335D02*
X17947894Y-10131335D01*
X17947894Y-10111335D02*
X17927894Y-10131335D01*
X17930000Y-10970000D02*
X17950000Y-10990000D01*
X17950000Y-10970000D02*
X17930000Y-10990000D01*
X17940000Y-10415000D02*
X17960000Y-10435000D01*
X17960000Y-10415000D02*
X17940000Y-10435000D01*
X17940000Y-10690000D02*
X17960000Y-10710000D01*
X17960000Y-10690000D02*
X17940000Y-10710000D01*
X17950000Y-8620000D02*
X17970000Y-8640000D01*
X17970000Y-8620000D02*
X17950000Y-8640000D01*
X17960000Y-8340000D02*
X17980000Y-8360000D01*
X17980000Y-8340000D02*
X17960000Y-8360000D01*
X17960000Y-9850000D02*
X17980000Y-9870000D01*
X17980000Y-9850000D02*
X17960000Y-9870000D01*
X17970000Y-9280000D02*
X17990000Y-9300000D01*
X17990000Y-9280000D02*
X17970000Y-9300000D01*
X17970000Y-11390000D02*
X17990000Y-11410000D01*
X17990000Y-11390000D02*
X17970000Y-11410000D01*
X17990000Y-11840000D02*
X18010000Y-11860000D01*
X18010000Y-11840000D02*
X17990000Y-11860000D01*
X18000000Y-12190000D02*
X18020000Y-12210000D01*
X18020000Y-12190000D02*
X18000000Y-12210000D01*
X18010000Y-9550000D02*
X18030000Y-9570000D01*
X18030000Y-9550000D02*
X18010000Y-9570000D01*
X18020000Y-8570000D02*
X18040000Y-8590000D01*
X18040000Y-8570000D02*
X18020000Y-8590000D01*
X18020000Y-9390000D02*
X18040000Y-9410000D01*
X18040000Y-9390000D02*
X18020000Y-9410000D01*
X16626250Y-11590000D02*
G75*
G03*
X16626250Y-11590000I-10000J0D01*
G01*
X16626250Y-11700000D02*
G75*
G03*
X16626250Y-11700000I-10000J0D01*
G01*
X16626250Y-11810000D02*
G75*
G03*
X16626250Y-11810000I-10000J0D01*
G01*
X16736250Y-11590000D02*
G75*
G03*
X16736250Y-11590000I-10000J0D01*
G01*
X16736250Y-11700000D02*
G75*
G03*
X16736250Y-11700000I-10000J0D01*
G01*
X16736250Y-11810000D02*
G75*
G03*
X16736250Y-11810000I-10000J0D01*
G01*
X16846250Y-11590000D02*
G75*
G03*
X16846250Y-11590000I-10000J0D01*
G01*
X16846250Y-11700000D02*
G75*
G03*
X16846250Y-11700000I-10000J0D01*
G01*
X16846250Y-11810000D02*
G75*
G03*
X16846250Y-11810000I-10000J0D01*
G01*
D13*
X17745000Y-12262500D02*
X17745000Y-12292500D01*
X17730000Y-12277500D02*
X17760000Y-12277500D01*
D14*
X17539213Y-10049213D02*
X17539213Y-10006787D01*
X17496787Y-10006787D01*
X17496787Y-10049213D01*
X17539213Y-10049213D01*
D11*
X17463000Y-10058000D02*
X17573000Y-10058000D01*
X17463000Y-9998000D02*
X17573000Y-9998000D01*
X17573000Y-10058000D02*
G75*
G03*
X17573000Y-9998000I0J30000D01*
G01*
X17463000Y-9998000D02*
G75*
G03*
X17463000Y-10058000I0J-30000D01*
G01*
D14*
X17539213Y-10913213D02*
X17539213Y-10870787D01*
X17496787Y-10870787D01*
X17496787Y-10913213D01*
X17539213Y-10913213D01*
D11*
X17463000Y-10922000D02*
X17573000Y-10922000D01*
X17463000Y-10862000D02*
X17573000Y-10862000D01*
X17573000Y-10922000D02*
G75*
G03*
X17573000Y-10862000I0J30000D01*
G01*
X17463000Y-10862000D02*
G75*
G03*
X17463000Y-10922000I0J-30000D01*
G01*
D14*
X17957213Y-10049213D02*
X17957213Y-10006787D01*
X17914787Y-10006787D01*
X17914787Y-10049213D01*
X17957213Y-10049213D01*
D11*
X17906000Y-10058000D02*
X17966000Y-10058000D01*
X17906000Y-9998000D02*
X17966000Y-9998000D01*
X17966000Y-10058000D02*
G75*
G03*
X17966000Y-9998000I0J30000D01*
G01*
X17906000Y-9998000D02*
G75*
G03*
X17906000Y-10058000I0J-30000D01*
G01*
D14*
X17957213Y-10913213D02*
X17957213Y-10870787D01*
X17914787Y-10870787D01*
X17914787Y-10913213D01*
X17957213Y-10913213D01*
D11*
X17906000Y-10922000D02*
X17966000Y-10922000D01*
X17906000Y-10862000D02*
X17966000Y-10862000D01*
X17966000Y-10922000D02*
G75*
G03*
X17966000Y-10862000I0J30000D01*
G01*
X17906000Y-10862000D02*
G75*
G03*
X17906000Y-10922000I0J-30000D01*
G01*
D15*
X16696439Y-8575790D02*
X16741439Y-8530790D01*
X16696439Y-8485790D01*
X16651439Y-8530790D01*
X16696439Y-8575790D01*
X16876045Y-8755395D02*
X16921045Y-8710395D01*
X16876045Y-8665395D01*
X16831045Y-8710395D01*
X16876045Y-8755395D01*
X16965847Y-8485987D02*
X17010847Y-8440987D01*
X16965847Y-8395987D01*
X16920847Y-8440987D01*
X16965847Y-8485987D01*
X17055650Y-8935000D02*
X17100650Y-8890000D01*
X17055650Y-8845000D01*
X17010650Y-8890000D01*
X17055650Y-8935000D01*
X17145452Y-8665592D02*
X17190452Y-8620592D01*
X17145452Y-8575592D01*
X17100452Y-8620592D01*
X17145452Y-8665592D01*
X17235255Y-9114605D02*
X17280255Y-9069605D01*
X17235255Y-9024605D01*
X17190255Y-9069605D01*
X17235255Y-9114605D01*
X17325057Y-8845197D02*
X17370057Y-8800197D01*
X17325057Y-8755197D01*
X17280057Y-8800197D01*
X17325057Y-8845197D01*
X17414860Y-9294210D02*
X17459860Y-9249210D01*
X17414860Y-9204210D01*
X17369860Y-9249210D01*
X17414860Y-9294210D01*
X17504663Y-9024803D02*
X17549663Y-8979803D01*
X17504663Y-8934803D01*
X17459663Y-8979803D01*
X17504663Y-9024803D01*
X17684268Y-9204408D02*
X17729268Y-9159408D01*
X17684268Y-9114408D01*
X17639268Y-9159408D01*
X17684268Y-9204408D01*
D10*
X15798972Y-9177643D02*
X15898972Y-9277643D01*
X15898972Y-9177643D02*
X15798972Y-9277643D01*
X15898972Y-9227643D02*
G75*
G03*
X15898972Y-9227643I-50000J0D01*
G01*
X15942515Y-9034101D02*
X16042515Y-9134101D01*
X16042515Y-9034101D02*
X15942515Y-9134101D01*
X16042515Y-9084101D02*
G75*
G03*
X16042515Y-9084101I-50000J0D01*
G01*
X16758516Y-10137187D02*
X16858516Y-10237187D01*
X16858516Y-10137187D02*
X16758516Y-10237187D01*
X16858516Y-10187187D02*
G75*
G03*
X16858516Y-10187187I-50000J0D01*
G01*
X16902059Y-9993645D02*
X17002059Y-10093645D01*
X17002059Y-9993645D02*
X16902059Y-10093645D01*
X17002059Y-10043645D02*
G75*
G03*
X17002059Y-10043645I-50000J0D01*
G01*
D16*
X16232480Y-8533521D02*
X16392480Y-8693521D01*
X16392480Y-8533521D02*
X16232480Y-8693521D01*
X16312480Y-8533521D02*
X16312480Y-8693521D01*
X16232480Y-8613521D02*
X16392480Y-8613521D01*
X17342638Y-9643679D02*
X17502638Y-9803679D01*
X17502638Y-9643679D02*
X17342638Y-9803679D01*
X17422638Y-9643679D02*
X17422638Y-9803679D01*
X17342638Y-9723679D02*
X17502638Y-9723679D01*
D11*
X13332619Y-13275476D02*
X13332619Y-13075476D01*
X13380238Y-13075476D01*
X13408809Y-13085000D01*
X13427857Y-13104048D01*
X13437381Y-13123095D01*
X13446905Y-13161190D01*
X13446905Y-13189762D01*
X13437381Y-13227857D01*
X13427857Y-13246905D01*
X13408809Y-13265952D01*
X13380238Y-13275476D01*
X13332619Y-13275476D01*
X13532619Y-13275476D02*
X13532619Y-13142143D01*
X13532619Y-13180238D02*
X13542143Y-13161190D01*
X13551667Y-13151667D01*
X13570714Y-13142143D01*
X13589762Y-13142143D01*
X13656428Y-13275476D02*
X13656428Y-13142143D01*
X13656428Y-13075476D02*
X13646905Y-13085000D01*
X13656428Y-13094524D01*
X13665952Y-13085000D01*
X13656428Y-13075476D01*
X13656428Y-13094524D01*
X13780238Y-13275476D02*
X13761190Y-13265952D01*
X13751667Y-13246905D01*
X13751667Y-13075476D01*
X13885000Y-13275476D02*
X13865952Y-13265952D01*
X13856428Y-13246905D01*
X13856428Y-13075476D01*
X14113571Y-13275476D02*
X14113571Y-13075476D01*
X14180238Y-13218333D01*
X14246905Y-13075476D01*
X14246905Y-13275476D01*
X14427857Y-13275476D02*
X14427857Y-13170714D01*
X14418333Y-13151667D01*
X14399286Y-13142143D01*
X14361190Y-13142143D01*
X14342143Y-13151667D01*
X14427857Y-13265952D02*
X14408809Y-13275476D01*
X14361190Y-13275476D01*
X14342143Y-13265952D01*
X14332619Y-13246905D01*
X14332619Y-13227857D01*
X14342143Y-13208809D01*
X14361190Y-13199286D01*
X14408809Y-13199286D01*
X14427857Y-13189762D01*
X14523095Y-13142143D02*
X14523095Y-13342143D01*
X14523095Y-13151667D02*
X14542143Y-13142143D01*
X14580238Y-13142143D01*
X14599286Y-13151667D01*
X14608809Y-13161190D01*
X14618333Y-13180238D01*
X14618333Y-13237381D01*
X14608809Y-13256428D01*
X14599286Y-13265952D01*
X14580238Y-13275476D01*
X14542143Y-13275476D01*
X14523095Y-13265952D01*
X14704048Y-13256428D02*
X14713571Y-13265952D01*
X14704048Y-13275476D01*
X14694524Y-13265952D01*
X14704048Y-13256428D01*
X14704048Y-13275476D01*
X14704048Y-13151667D02*
X14713571Y-13161190D01*
X14704048Y-13170714D01*
X14694524Y-13161190D01*
X14704048Y-13151667D01*
X14704048Y-13170714D01*
D12*
X13055000Y-13595000D02*
X13075000Y-13615000D01*
X13075000Y-13595000D02*
X13055000Y-13615000D01*
D11*
X13370714Y-13495476D02*
X13389762Y-13495476D01*
X13408809Y-13505000D01*
X13418333Y-13514524D01*
X13427857Y-13533571D01*
X13437381Y-13571667D01*
X13437381Y-13619286D01*
X13427857Y-13657381D01*
X13418333Y-13676428D01*
X13408809Y-13685952D01*
X13389762Y-13695476D01*
X13370714Y-13695476D01*
X13351667Y-13685952D01*
X13342143Y-13676428D01*
X13332619Y-13657381D01*
X13323095Y-13619286D01*
X13323095Y-13571667D01*
X13332619Y-13533571D01*
X13342143Y-13514524D01*
X13351667Y-13505000D01*
X13370714Y-13495476D01*
X13523095Y-13676428D02*
X13532619Y-13685952D01*
X13523095Y-13695476D01*
X13513571Y-13685952D01*
X13523095Y-13676428D01*
X13523095Y-13695476D01*
X13608809Y-13514524D02*
X13618333Y-13505000D01*
X13637381Y-13495476D01*
X13685000Y-13495476D01*
X13704048Y-13505000D01*
X13713571Y-13514524D01*
X13723095Y-13533571D01*
X13723095Y-13552619D01*
X13713571Y-13581190D01*
X13599286Y-13695476D01*
X13723095Y-13695476D01*
X13846905Y-13495476D02*
X13865952Y-13495476D01*
X13885000Y-13505000D01*
X13894524Y-13514524D01*
X13904048Y-13533571D01*
X13913571Y-13571667D01*
X13913571Y-13619286D01*
X13904048Y-13657381D01*
X13894524Y-13676428D01*
X13885000Y-13685952D01*
X13865952Y-13695476D01*
X13846905Y-13695476D01*
X13827857Y-13685952D01*
X13818333Y-13676428D01*
X13808809Y-13657381D01*
X13799286Y-13619286D01*
X13799286Y-13571667D01*
X13808809Y-13533571D01*
X13818333Y-13514524D01*
X13827857Y-13505000D01*
X13846905Y-13495476D01*
X14037381Y-13495476D02*
X14056428Y-13495476D01*
X14075476Y-13505000D01*
X14085000Y-13514524D01*
X14094524Y-13533571D01*
X14104048Y-13571667D01*
X14104048Y-13619286D01*
X14094524Y-13657381D01*
X14085000Y-13676428D01*
X14075476Y-13685952D01*
X14056428Y-13695476D01*
X14037381Y-13695476D01*
X14018333Y-13685952D01*
X14008809Y-13676428D01*
X13999286Y-13657381D01*
X13989762Y-13619286D01*
X13989762Y-13571667D01*
X13999286Y-13533571D01*
X14008809Y-13514524D01*
X14018333Y-13505000D01*
X14037381Y-13495476D01*
X14189762Y-13695476D02*
X14189762Y-13562143D01*
X14189762Y-13581190D02*
X14199286Y-13571667D01*
X14218333Y-13562143D01*
X14246905Y-13562143D01*
X14265952Y-13571667D01*
X14275476Y-13590714D01*
X14275476Y-13695476D01*
X14275476Y-13590714D02*
X14285000Y-13571667D01*
X14304048Y-13562143D01*
X14332619Y-13562143D01*
X14351667Y-13571667D01*
X14361190Y-13590714D01*
X14361190Y-13695476D01*
X14456428Y-13695476D02*
X14456428Y-13562143D01*
X14456428Y-13581190D02*
X14465952Y-13571667D01*
X14485000Y-13562143D01*
X14513571Y-13562143D01*
X14532619Y-13571667D01*
X14542143Y-13590714D01*
X14542143Y-13695476D01*
X14542143Y-13590714D02*
X14551667Y-13571667D01*
X14570714Y-13562143D01*
X14599286Y-13562143D01*
X14618333Y-13571667D01*
X14627857Y-13590714D01*
X14627857Y-13695476D01*
X15018333Y-13485952D02*
X14846905Y-13743095D01*
X15275476Y-13495476D02*
X15294524Y-13495476D01*
X15313571Y-13505000D01*
X15323095Y-13514524D01*
X15332619Y-13533571D01*
X15342143Y-13571667D01*
X15342143Y-13619286D01*
X15332619Y-13657381D01*
X15323095Y-13676428D01*
X15313571Y-13685952D01*
X15294524Y-13695476D01*
X15275476Y-13695476D01*
X15256428Y-13685952D01*
X15246905Y-13676428D01*
X15237381Y-13657381D01*
X15227857Y-13619286D01*
X15227857Y-13571667D01*
X15237381Y-13533571D01*
X15246905Y-13514524D01*
X15256428Y-13505000D01*
X15275476Y-13495476D01*
X15427857Y-13676428D02*
X15437381Y-13685952D01*
X15427857Y-13695476D01*
X15418333Y-13685952D01*
X15427857Y-13676428D01*
X15427857Y-13695476D01*
X15561190Y-13495476D02*
X15580238Y-13495476D01*
X15599286Y-13505000D01*
X15608809Y-13514524D01*
X15618333Y-13533571D01*
X15627857Y-13571667D01*
X15627857Y-13619286D01*
X15618333Y-13657381D01*
X15608809Y-13676428D01*
X15599286Y-13685952D01*
X15580238Y-13695476D01*
X15561190Y-13695476D01*
X15542143Y-13685952D01*
X15532619Y-13676428D01*
X15523095Y-13657381D01*
X15513571Y-13619286D01*
X15513571Y-13571667D01*
X15523095Y-13533571D01*
X15532619Y-13514524D01*
X15542143Y-13505000D01*
X15561190Y-13495476D01*
X15751667Y-13495476D02*
X15770714Y-13495476D01*
X15789762Y-13505000D01*
X15799286Y-13514524D01*
X15808809Y-13533571D01*
X15818333Y-13571667D01*
X15818333Y-13619286D01*
X15808809Y-13657381D01*
X15799286Y-13676428D01*
X15789762Y-13685952D01*
X15770714Y-13695476D01*
X15751667Y-13695476D01*
X15732619Y-13685952D01*
X15723095Y-13676428D01*
X15713571Y-13657381D01*
X15704048Y-13619286D01*
X15704048Y-13571667D01*
X15713571Y-13533571D01*
X15723095Y-13514524D01*
X15732619Y-13505000D01*
X15751667Y-13495476D01*
X15885000Y-13495476D02*
X16018333Y-13495476D01*
X15932619Y-13695476D01*
X16104048Y-13695476D02*
X16142143Y-13695476D01*
X16161190Y-13685952D01*
X16170714Y-13676428D01*
X16189762Y-13647857D01*
X16199286Y-13609762D01*
X16199286Y-13533571D01*
X16189762Y-13514524D01*
X16180238Y-13505000D01*
X16161190Y-13495476D01*
X16123095Y-13495476D01*
X16104048Y-13505000D01*
X16094524Y-13514524D01*
X16085000Y-13533571D01*
X16085000Y-13581190D01*
X16094524Y-13600238D01*
X16104048Y-13609762D01*
X16123095Y-13619286D01*
X16161190Y-13619286D01*
X16180238Y-13609762D01*
X16189762Y-13600238D01*
X16199286Y-13581190D01*
X16275476Y-13495476D02*
X16275476Y-13533571D01*
X16351667Y-13495476D02*
X16351667Y-13533571D01*
X16646905Y-13771667D02*
X16637381Y-13762143D01*
X16618333Y-13733571D01*
X16608809Y-13714524D01*
X16599286Y-13685952D01*
X16589762Y-13638333D01*
X16589762Y-13600238D01*
X16599286Y-13552619D01*
X16608809Y-13524048D01*
X16618333Y-13505000D01*
X16637381Y-13476428D01*
X16646905Y-13466905D01*
X16808810Y-13562143D02*
X16808810Y-13695476D01*
X16761190Y-13485952D02*
X16713571Y-13628809D01*
X16837381Y-13628809D01*
X16894524Y-13495476D02*
X17027857Y-13495476D01*
X16942143Y-13695476D01*
X17199286Y-13495476D02*
X17104048Y-13495476D01*
X17094524Y-13590714D01*
X17104048Y-13581190D01*
X17123095Y-13571667D01*
X17170714Y-13571667D01*
X17189762Y-13581190D01*
X17199286Y-13590714D01*
X17208810Y-13609762D01*
X17208810Y-13657381D01*
X17199286Y-13676428D01*
X17189762Y-13685952D01*
X17170714Y-13695476D01*
X17123095Y-13695476D01*
X17104048Y-13685952D01*
X17094524Y-13676428D01*
X17446905Y-13695476D02*
X17446905Y-13495476D01*
X17532619Y-13695476D02*
X17532619Y-13590714D01*
X17523095Y-13571667D01*
X17504048Y-13562143D01*
X17475476Y-13562143D01*
X17456429Y-13571667D01*
X17446905Y-13581190D01*
X17656429Y-13695476D02*
X17637381Y-13685952D01*
X17627857Y-13676428D01*
X17618333Y-13657381D01*
X17618333Y-13600238D01*
X17627857Y-13581190D01*
X17637381Y-13571667D01*
X17656429Y-13562143D01*
X17685000Y-13562143D01*
X17704048Y-13571667D01*
X17713571Y-13581190D01*
X17723095Y-13600238D01*
X17723095Y-13657381D01*
X17713571Y-13676428D01*
X17704048Y-13685952D01*
X17685000Y-13695476D01*
X17656429Y-13695476D01*
X17837381Y-13695476D02*
X17818333Y-13685952D01*
X17808810Y-13666905D01*
X17808810Y-13495476D01*
X17989762Y-13685952D02*
X17970714Y-13695476D01*
X17932619Y-13695476D01*
X17913571Y-13685952D01*
X17904048Y-13666905D01*
X17904048Y-13590714D01*
X17913571Y-13571667D01*
X17932619Y-13562143D01*
X17970714Y-13562143D01*
X17989762Y-13571667D01*
X17999286Y-13590714D01*
X17999286Y-13609762D01*
X17904048Y-13628809D01*
X18075476Y-13685952D02*
X18094524Y-13695476D01*
X18132619Y-13695476D01*
X18151667Y-13685952D01*
X18161190Y-13666905D01*
X18161190Y-13657381D01*
X18151667Y-13638333D01*
X18132619Y-13628809D01*
X18104048Y-13628809D01*
X18085000Y-13619286D01*
X18075476Y-13600238D01*
X18075476Y-13590714D01*
X18085000Y-13571667D01*
X18104048Y-13562143D01*
X18132619Y-13562143D01*
X18151667Y-13571667D01*
X18227857Y-13771667D02*
X18237381Y-13762143D01*
X18256429Y-13733571D01*
X18265952Y-13714524D01*
X18275476Y-13685952D01*
X18285000Y-13638333D01*
X18285000Y-13600238D01*
X18275476Y-13552619D01*
X18265952Y-13524048D01*
X18256429Y-13505000D01*
X18237381Y-13476428D01*
X18227857Y-13466905D01*
D12*
X13075000Y-13869000D02*
G75*
G03*
X13075000Y-13869000I-10000J0D01*
G01*
D11*
X13370714Y-13759476D02*
X13389762Y-13759476D01*
X13408809Y-13769000D01*
X13418333Y-13778524D01*
X13427857Y-13797571D01*
X13437381Y-13835667D01*
X13437381Y-13883286D01*
X13427857Y-13921381D01*
X13418333Y-13940428D01*
X13408809Y-13949952D01*
X13389762Y-13959476D01*
X13370714Y-13959476D01*
X13351667Y-13949952D01*
X13342143Y-13940428D01*
X13332619Y-13921381D01*
X13323095Y-13883286D01*
X13323095Y-13835667D01*
X13332619Y-13797571D01*
X13342143Y-13778524D01*
X13351667Y-13769000D01*
X13370714Y-13759476D01*
X13523095Y-13940428D02*
X13532619Y-13949952D01*
X13523095Y-13959476D01*
X13513571Y-13949952D01*
X13523095Y-13940428D01*
X13523095Y-13959476D01*
X13608809Y-13778524D02*
X13618333Y-13769000D01*
X13637381Y-13759476D01*
X13685000Y-13759476D01*
X13704048Y-13769000D01*
X13713571Y-13778524D01*
X13723095Y-13797571D01*
X13723095Y-13816619D01*
X13713571Y-13845190D01*
X13599286Y-13959476D01*
X13723095Y-13959476D01*
X13846905Y-13759476D02*
X13865952Y-13759476D01*
X13885000Y-13769000D01*
X13894524Y-13778524D01*
X13904048Y-13797571D01*
X13913571Y-13835667D01*
X13913571Y-13883286D01*
X13904048Y-13921381D01*
X13894524Y-13940428D01*
X13885000Y-13949952D01*
X13865952Y-13959476D01*
X13846905Y-13959476D01*
X13827857Y-13949952D01*
X13818333Y-13940428D01*
X13808809Y-13921381D01*
X13799286Y-13883286D01*
X13799286Y-13835667D01*
X13808809Y-13797571D01*
X13818333Y-13778524D01*
X13827857Y-13769000D01*
X13846905Y-13759476D01*
X14037381Y-13759476D02*
X14056428Y-13759476D01*
X14075476Y-13769000D01*
X14085000Y-13778524D01*
X14094524Y-13797571D01*
X14104048Y-13835667D01*
X14104048Y-13883286D01*
X14094524Y-13921381D01*
X14085000Y-13940428D01*
X14075476Y-13949952D01*
X14056428Y-13959476D01*
X14037381Y-13959476D01*
X14018333Y-13949952D01*
X14008809Y-13940428D01*
X13999286Y-13921381D01*
X13989762Y-13883286D01*
X13989762Y-13835667D01*
X13999286Y-13797571D01*
X14008809Y-13778524D01*
X14018333Y-13769000D01*
X14037381Y-13759476D01*
X14189762Y-13959476D02*
X14189762Y-13826143D01*
X14189762Y-13845190D02*
X14199286Y-13835667D01*
X14218333Y-13826143D01*
X14246905Y-13826143D01*
X14265952Y-13835667D01*
X14275476Y-13854714D01*
X14275476Y-13959476D01*
X14275476Y-13854714D02*
X14285000Y-13835667D01*
X14304048Y-13826143D01*
X14332619Y-13826143D01*
X14351667Y-13835667D01*
X14361190Y-13854714D01*
X14361190Y-13959476D01*
X14456428Y-13959476D02*
X14456428Y-13826143D01*
X14456428Y-13845190D02*
X14465952Y-13835667D01*
X14485000Y-13826143D01*
X14513571Y-13826143D01*
X14532619Y-13835667D01*
X14542143Y-13854714D01*
X14542143Y-13959476D01*
X14542143Y-13854714D02*
X14551667Y-13835667D01*
X14570714Y-13826143D01*
X14599286Y-13826143D01*
X14618333Y-13835667D01*
X14627857Y-13854714D01*
X14627857Y-13959476D01*
X15018333Y-13749952D02*
X14846905Y-14007095D01*
X15275476Y-13759476D02*
X15294524Y-13759476D01*
X15313571Y-13769000D01*
X15323095Y-13778524D01*
X15332619Y-13797571D01*
X15342143Y-13835667D01*
X15342143Y-13883286D01*
X15332619Y-13921381D01*
X15323095Y-13940428D01*
X15313571Y-13949952D01*
X15294524Y-13959476D01*
X15275476Y-13959476D01*
X15256428Y-13949952D01*
X15246905Y-13940428D01*
X15237381Y-13921381D01*
X15227857Y-13883286D01*
X15227857Y-13835667D01*
X15237381Y-13797571D01*
X15246905Y-13778524D01*
X15256428Y-13769000D01*
X15275476Y-13759476D01*
X15427857Y-13940428D02*
X15437381Y-13949952D01*
X15427857Y-13959476D01*
X15418333Y-13949952D01*
X15427857Y-13940428D01*
X15427857Y-13959476D01*
X15561190Y-13759476D02*
X15580238Y-13759476D01*
X15599286Y-13769000D01*
X15608809Y-13778524D01*
X15618333Y-13797571D01*
X15627857Y-13835667D01*
X15627857Y-13883286D01*
X15618333Y-13921381D01*
X15608809Y-13940428D01*
X15599286Y-13949952D01*
X15580238Y-13959476D01*
X15561190Y-13959476D01*
X15542143Y-13949952D01*
X15532619Y-13940428D01*
X15523095Y-13921381D01*
X15513571Y-13883286D01*
X15513571Y-13835667D01*
X15523095Y-13797571D01*
X15532619Y-13778524D01*
X15542143Y-13769000D01*
X15561190Y-13759476D01*
X15751667Y-13759476D02*
X15770714Y-13759476D01*
X15789762Y-13769000D01*
X15799286Y-13778524D01*
X15808809Y-13797571D01*
X15818333Y-13835667D01*
X15818333Y-13883286D01*
X15808809Y-13921381D01*
X15799286Y-13940428D01*
X15789762Y-13949952D01*
X15770714Y-13959476D01*
X15751667Y-13959476D01*
X15732619Y-13949952D01*
X15723095Y-13940428D01*
X15713571Y-13921381D01*
X15704048Y-13883286D01*
X15704048Y-13835667D01*
X15713571Y-13797571D01*
X15723095Y-13778524D01*
X15732619Y-13769000D01*
X15751667Y-13759476D01*
X15885000Y-13759476D02*
X16018333Y-13759476D01*
X15932619Y-13959476D01*
X16104048Y-13959476D02*
X16142143Y-13959476D01*
X16161190Y-13949952D01*
X16170714Y-13940428D01*
X16189762Y-13911857D01*
X16199286Y-13873762D01*
X16199286Y-13797571D01*
X16189762Y-13778524D01*
X16180238Y-13769000D01*
X16161190Y-13759476D01*
X16123095Y-13759476D01*
X16104048Y-13769000D01*
X16094524Y-13778524D01*
X16085000Y-13797571D01*
X16085000Y-13845190D01*
X16094524Y-13864238D01*
X16104048Y-13873762D01*
X16123095Y-13883286D01*
X16161190Y-13883286D01*
X16180238Y-13873762D01*
X16189762Y-13864238D01*
X16199286Y-13845190D01*
X16275476Y-13759476D02*
X16275476Y-13797571D01*
X16351667Y-13759476D02*
X16351667Y-13797571D01*
X16646905Y-14035667D02*
X16637381Y-14026143D01*
X16618333Y-13997571D01*
X16608809Y-13978524D01*
X16599286Y-13949952D01*
X16589762Y-13902333D01*
X16589762Y-13864238D01*
X16599286Y-13816619D01*
X16608809Y-13788048D01*
X16618333Y-13769000D01*
X16637381Y-13740428D01*
X16646905Y-13730905D01*
X16732619Y-13959476D02*
X16770714Y-13959476D01*
X16789762Y-13949952D01*
X16799286Y-13940428D01*
X16818333Y-13911857D01*
X16827857Y-13873762D01*
X16827857Y-13797571D01*
X16818333Y-13778524D01*
X16808810Y-13769000D01*
X16789762Y-13759476D01*
X16751667Y-13759476D01*
X16732619Y-13769000D01*
X16723095Y-13778524D01*
X16713571Y-13797571D01*
X16713571Y-13845190D01*
X16723095Y-13864238D01*
X16732619Y-13873762D01*
X16751667Y-13883286D01*
X16789762Y-13883286D01*
X16808810Y-13873762D01*
X16818333Y-13864238D01*
X16827857Y-13845190D01*
X17065952Y-13959476D02*
X17065952Y-13759476D01*
X17151667Y-13959476D02*
X17151667Y-13854714D01*
X17142143Y-13835667D01*
X17123095Y-13826143D01*
X17094524Y-13826143D01*
X17075476Y-13835667D01*
X17065952Y-13845190D01*
X17275476Y-13959476D02*
X17256429Y-13949952D01*
X17246905Y-13940428D01*
X17237381Y-13921381D01*
X17237381Y-13864238D01*
X17246905Y-13845190D01*
X17256429Y-13835667D01*
X17275476Y-13826143D01*
X17304048Y-13826143D01*
X17323095Y-13835667D01*
X17332619Y-13845190D01*
X17342143Y-13864238D01*
X17342143Y-13921381D01*
X17332619Y-13940428D01*
X17323095Y-13949952D01*
X17304048Y-13959476D01*
X17275476Y-13959476D01*
X17456429Y-13959476D02*
X17437381Y-13949952D01*
X17427857Y-13930905D01*
X17427857Y-13759476D01*
X17608810Y-13949952D02*
X17589762Y-13959476D01*
X17551667Y-13959476D01*
X17532619Y-13949952D01*
X17523095Y-13930905D01*
X17523095Y-13854714D01*
X17532619Y-13835667D01*
X17551667Y-13826143D01*
X17589762Y-13826143D01*
X17608810Y-13835667D01*
X17618333Y-13854714D01*
X17618333Y-13873762D01*
X17523095Y-13892809D01*
X17694524Y-13949952D02*
X17713571Y-13959476D01*
X17751667Y-13959476D01*
X17770714Y-13949952D01*
X17780238Y-13930905D01*
X17780238Y-13921381D01*
X17770714Y-13902333D01*
X17751667Y-13892809D01*
X17723095Y-13892809D01*
X17704048Y-13883286D01*
X17694524Y-13864238D01*
X17694524Y-13854714D01*
X17704048Y-13835667D01*
X17723095Y-13826143D01*
X17751667Y-13826143D01*
X17770714Y-13835667D01*
X17846905Y-14035667D02*
X17856429Y-14026143D01*
X17875476Y-13997571D01*
X17885000Y-13978524D01*
X17894524Y-13949952D01*
X17904048Y-13902333D01*
X17904048Y-13864238D01*
X17894524Y-13816619D01*
X17885000Y-13788048D01*
X17875476Y-13769000D01*
X17856429Y-13740428D01*
X17846905Y-13730905D01*
D13*
X13060000Y-14118000D02*
X13060000Y-14148000D01*
X13045000Y-14133000D02*
X13075000Y-14133000D01*
D11*
X13370714Y-14023476D02*
X13389762Y-14023476D01*
X13408809Y-14033000D01*
X13418333Y-14042524D01*
X13427857Y-14061571D01*
X13437381Y-14099667D01*
X13437381Y-14147286D01*
X13427857Y-14185381D01*
X13418333Y-14204428D01*
X13408809Y-14213952D01*
X13389762Y-14223476D01*
X13370714Y-14223476D01*
X13351667Y-14213952D01*
X13342143Y-14204428D01*
X13332619Y-14185381D01*
X13323095Y-14147286D01*
X13323095Y-14099667D01*
X13332619Y-14061571D01*
X13342143Y-14042524D01*
X13351667Y-14033000D01*
X13370714Y-14023476D01*
X13523095Y-14204428D02*
X13532619Y-14213952D01*
X13523095Y-14223476D01*
X13513571Y-14213952D01*
X13523095Y-14204428D01*
X13523095Y-14223476D01*
X13599286Y-14023476D02*
X13723095Y-14023476D01*
X13656428Y-14099667D01*
X13685000Y-14099667D01*
X13704048Y-14109190D01*
X13713571Y-14118714D01*
X13723095Y-14137762D01*
X13723095Y-14185381D01*
X13713571Y-14204428D01*
X13704048Y-14213952D01*
X13685000Y-14223476D01*
X13627857Y-14223476D01*
X13608809Y-14213952D01*
X13599286Y-14204428D01*
X13846905Y-14023476D02*
X13865952Y-14023476D01*
X13885000Y-14033000D01*
X13894524Y-14042524D01*
X13904048Y-14061571D01*
X13913571Y-14099667D01*
X13913571Y-14147286D01*
X13904048Y-14185381D01*
X13894524Y-14204428D01*
X13885000Y-14213952D01*
X13865952Y-14223476D01*
X13846905Y-14223476D01*
X13827857Y-14213952D01*
X13818333Y-14204428D01*
X13808809Y-14185381D01*
X13799286Y-14147286D01*
X13799286Y-14099667D01*
X13808809Y-14061571D01*
X13818333Y-14042524D01*
X13827857Y-14033000D01*
X13846905Y-14023476D01*
X14037381Y-14023476D02*
X14056428Y-14023476D01*
X14075476Y-14033000D01*
X14085000Y-14042524D01*
X14094524Y-14061571D01*
X14104048Y-14099667D01*
X14104048Y-14147286D01*
X14094524Y-14185381D01*
X14085000Y-14204428D01*
X14075476Y-14213952D01*
X14056428Y-14223476D01*
X14037381Y-14223476D01*
X14018333Y-14213952D01*
X14008809Y-14204428D01*
X13999286Y-14185381D01*
X13989762Y-14147286D01*
X13989762Y-14099667D01*
X13999286Y-14061571D01*
X14008809Y-14042524D01*
X14018333Y-14033000D01*
X14037381Y-14023476D01*
X14189762Y-14223476D02*
X14189762Y-14090143D01*
X14189762Y-14109190D02*
X14199286Y-14099667D01*
X14218333Y-14090143D01*
X14246905Y-14090143D01*
X14265952Y-14099667D01*
X14275476Y-14118714D01*
X14275476Y-14223476D01*
X14275476Y-14118714D02*
X14285000Y-14099667D01*
X14304048Y-14090143D01*
X14332619Y-14090143D01*
X14351667Y-14099667D01*
X14361190Y-14118714D01*
X14361190Y-14223476D01*
X14456428Y-14223476D02*
X14456428Y-14090143D01*
X14456428Y-14109190D02*
X14465952Y-14099667D01*
X14485000Y-14090143D01*
X14513571Y-14090143D01*
X14532619Y-14099667D01*
X14542143Y-14118714D01*
X14542143Y-14223476D01*
X14542143Y-14118714D02*
X14551667Y-14099667D01*
X14570714Y-14090143D01*
X14599286Y-14090143D01*
X14618333Y-14099667D01*
X14627857Y-14118714D01*
X14627857Y-14223476D01*
X15018333Y-14013952D02*
X14846905Y-14271095D01*
X15275476Y-14023476D02*
X15294524Y-14023476D01*
X15313571Y-14033000D01*
X15323095Y-14042524D01*
X15332619Y-14061571D01*
X15342143Y-14099667D01*
X15342143Y-14147286D01*
X15332619Y-14185381D01*
X15323095Y-14204428D01*
X15313571Y-14213952D01*
X15294524Y-14223476D01*
X15275476Y-14223476D01*
X15256428Y-14213952D01*
X15246905Y-14204428D01*
X15237381Y-14185381D01*
X15227857Y-14147286D01*
X15227857Y-14099667D01*
X15237381Y-14061571D01*
X15246905Y-14042524D01*
X15256428Y-14033000D01*
X15275476Y-14023476D01*
X15427857Y-14204428D02*
X15437381Y-14213952D01*
X15427857Y-14223476D01*
X15418333Y-14213952D01*
X15427857Y-14204428D01*
X15427857Y-14223476D01*
X15561190Y-14023476D02*
X15580238Y-14023476D01*
X15599286Y-14033000D01*
X15608809Y-14042524D01*
X15618333Y-14061571D01*
X15627857Y-14099667D01*
X15627857Y-14147286D01*
X15618333Y-14185381D01*
X15608809Y-14204428D01*
X15599286Y-14213952D01*
X15580238Y-14223476D01*
X15561190Y-14223476D01*
X15542143Y-14213952D01*
X15532619Y-14204428D01*
X15523095Y-14185381D01*
X15513571Y-14147286D01*
X15513571Y-14099667D01*
X15523095Y-14061571D01*
X15532619Y-14042524D01*
X15542143Y-14033000D01*
X15561190Y-14023476D01*
X15818333Y-14223476D02*
X15704048Y-14223476D01*
X15761190Y-14223476D02*
X15761190Y-14023476D01*
X15742143Y-14052048D01*
X15723095Y-14071095D01*
X15704048Y-14080619D01*
X16008809Y-14223476D02*
X15894524Y-14223476D01*
X15951667Y-14223476D02*
X15951667Y-14023476D01*
X15932619Y-14052048D01*
X15913571Y-14071095D01*
X15894524Y-14080619D01*
X16123095Y-14109190D02*
X16104048Y-14099667D01*
X16094524Y-14090143D01*
X16085000Y-14071095D01*
X16085000Y-14061571D01*
X16094524Y-14042524D01*
X16104048Y-14033000D01*
X16123095Y-14023476D01*
X16161190Y-14023476D01*
X16180238Y-14033000D01*
X16189762Y-14042524D01*
X16199286Y-14061571D01*
X16199286Y-14071095D01*
X16189762Y-14090143D01*
X16180238Y-14099667D01*
X16161190Y-14109190D01*
X16123095Y-14109190D01*
X16104048Y-14118714D01*
X16094524Y-14128238D01*
X16085000Y-14147286D01*
X16085000Y-14185381D01*
X16094524Y-14204428D01*
X16104048Y-14213952D01*
X16123095Y-14223476D01*
X16161190Y-14223476D01*
X16180238Y-14213952D01*
X16189762Y-14204428D01*
X16199286Y-14185381D01*
X16199286Y-14147286D01*
X16189762Y-14128238D01*
X16180238Y-14118714D01*
X16161190Y-14109190D01*
X16275476Y-14023476D02*
X16275476Y-14061571D01*
X16351667Y-14023476D02*
X16351667Y-14061571D01*
X16646905Y-14299667D02*
X16637381Y-14290143D01*
X16618333Y-14261571D01*
X16608809Y-14242524D01*
X16599286Y-14213952D01*
X16589762Y-14166333D01*
X16589762Y-14128238D01*
X16599286Y-14080619D01*
X16608809Y-14052048D01*
X16618333Y-14033000D01*
X16637381Y-14004428D01*
X16646905Y-13994905D01*
X16827857Y-14223476D02*
X16713571Y-14223476D01*
X16770714Y-14223476D02*
X16770714Y-14023476D01*
X16751667Y-14052048D01*
X16732619Y-14071095D01*
X16713571Y-14080619D01*
X17065952Y-14223476D02*
X17065952Y-14023476D01*
X17151667Y-14223476D02*
X17151667Y-14118714D01*
X17142143Y-14099667D01*
X17123095Y-14090143D01*
X17094524Y-14090143D01*
X17075476Y-14099667D01*
X17065952Y-14109190D01*
X17275476Y-14223476D02*
X17256429Y-14213952D01*
X17246905Y-14204428D01*
X17237381Y-14185381D01*
X17237381Y-14128238D01*
X17246905Y-14109190D01*
X17256429Y-14099667D01*
X17275476Y-14090143D01*
X17304048Y-14090143D01*
X17323095Y-14099667D01*
X17332619Y-14109190D01*
X17342143Y-14128238D01*
X17342143Y-14185381D01*
X17332619Y-14204428D01*
X17323095Y-14213952D01*
X17304048Y-14223476D01*
X17275476Y-14223476D01*
X17456429Y-14223476D02*
X17437381Y-14213952D01*
X17427857Y-14194905D01*
X17427857Y-14023476D01*
X17608810Y-14213952D02*
X17589762Y-14223476D01*
X17551667Y-14223476D01*
X17532619Y-14213952D01*
X17523095Y-14194905D01*
X17523095Y-14118714D01*
X17532619Y-14099667D01*
X17551667Y-14090143D01*
X17589762Y-14090143D01*
X17608810Y-14099667D01*
X17618333Y-14118714D01*
X17618333Y-14137762D01*
X17523095Y-14156809D01*
X17685000Y-14299667D02*
X17694524Y-14290143D01*
X17713571Y-14261571D01*
X17723095Y-14242524D01*
X17732619Y-14213952D01*
X17742143Y-14166333D01*
X17742143Y-14128238D01*
X17732619Y-14080619D01*
X17723095Y-14052048D01*
X17713571Y-14033000D01*
X17694524Y-14004428D01*
X17685000Y-13994905D01*
D14*
X13066213Y-14418213D02*
X13066213Y-14375787D01*
X13023787Y-14375787D01*
X13023787Y-14418213D01*
X13066213Y-14418213D01*
D11*
X13370714Y-14287476D02*
X13389762Y-14287476D01*
X13408809Y-14297000D01*
X13418333Y-14306524D01*
X13427857Y-14325571D01*
X13437381Y-14363667D01*
X13437381Y-14411286D01*
X13427857Y-14449381D01*
X13418333Y-14468428D01*
X13408809Y-14477952D01*
X13389762Y-14487476D01*
X13370714Y-14487476D01*
X13351667Y-14477952D01*
X13342143Y-14468428D01*
X13332619Y-14449381D01*
X13323095Y-14411286D01*
X13323095Y-14363667D01*
X13332619Y-14325571D01*
X13342143Y-14306524D01*
X13351667Y-14297000D01*
X13370714Y-14287476D01*
X13523095Y-14468428D02*
X13532619Y-14477952D01*
X13523095Y-14487476D01*
X13513571Y-14477952D01*
X13523095Y-14468428D01*
X13523095Y-14487476D01*
X13704048Y-14287476D02*
X13665952Y-14287476D01*
X13646905Y-14297000D01*
X13637381Y-14306524D01*
X13618333Y-14335095D01*
X13608809Y-14373190D01*
X13608809Y-14449381D01*
X13618333Y-14468428D01*
X13627857Y-14477952D01*
X13646905Y-14487476D01*
X13685000Y-14487476D01*
X13704048Y-14477952D01*
X13713571Y-14468428D01*
X13723095Y-14449381D01*
X13723095Y-14401762D01*
X13713571Y-14382714D01*
X13704048Y-14373190D01*
X13685000Y-14363667D01*
X13646905Y-14363667D01*
X13627857Y-14373190D01*
X13618333Y-14382714D01*
X13608809Y-14401762D01*
X13846905Y-14287476D02*
X13865952Y-14287476D01*
X13885000Y-14297000D01*
X13894524Y-14306524D01*
X13904048Y-14325571D01*
X13913571Y-14363667D01*
X13913571Y-14411286D01*
X13904048Y-14449381D01*
X13894524Y-14468428D01*
X13885000Y-14477952D01*
X13865952Y-14487476D01*
X13846905Y-14487476D01*
X13827857Y-14477952D01*
X13818333Y-14468428D01*
X13808809Y-14449381D01*
X13799286Y-14411286D01*
X13799286Y-14363667D01*
X13808809Y-14325571D01*
X13818333Y-14306524D01*
X13827857Y-14297000D01*
X13846905Y-14287476D01*
X14037381Y-14287476D02*
X14056428Y-14287476D01*
X14075476Y-14297000D01*
X14085000Y-14306524D01*
X14094524Y-14325571D01*
X14104048Y-14363667D01*
X14104048Y-14411286D01*
X14094524Y-14449381D01*
X14085000Y-14468428D01*
X14075476Y-14477952D01*
X14056428Y-14487476D01*
X14037381Y-14487476D01*
X14018333Y-14477952D01*
X14008809Y-14468428D01*
X13999286Y-14449381D01*
X13989762Y-14411286D01*
X13989762Y-14363667D01*
X13999286Y-14325571D01*
X14008809Y-14306524D01*
X14018333Y-14297000D01*
X14037381Y-14287476D01*
X14189762Y-14487476D02*
X14189762Y-14354143D01*
X14189762Y-14373190D02*
X14199286Y-14363667D01*
X14218333Y-14354143D01*
X14246905Y-14354143D01*
X14265952Y-14363667D01*
X14275476Y-14382714D01*
X14275476Y-14487476D01*
X14275476Y-14382714D02*
X14285000Y-14363667D01*
X14304048Y-14354143D01*
X14332619Y-14354143D01*
X14351667Y-14363667D01*
X14361190Y-14382714D01*
X14361190Y-14487476D01*
X14456428Y-14487476D02*
X14456428Y-14354143D01*
X14456428Y-14373190D02*
X14465952Y-14363667D01*
X14485000Y-14354143D01*
X14513571Y-14354143D01*
X14532619Y-14363667D01*
X14542143Y-14382714D01*
X14542143Y-14487476D01*
X14542143Y-14382714D02*
X14551667Y-14363667D01*
X14570714Y-14354143D01*
X14599286Y-14354143D01*
X14618333Y-14363667D01*
X14627857Y-14382714D01*
X14627857Y-14487476D01*
X15018333Y-14277952D02*
X14846905Y-14535095D01*
X15275476Y-14287476D02*
X15294524Y-14287476D01*
X15313571Y-14297000D01*
X15323095Y-14306524D01*
X15332619Y-14325571D01*
X15342143Y-14363667D01*
X15342143Y-14411286D01*
X15332619Y-14449381D01*
X15323095Y-14468428D01*
X15313571Y-14477952D01*
X15294524Y-14487476D01*
X15275476Y-14487476D01*
X15256428Y-14477952D01*
X15246905Y-14468428D01*
X15237381Y-14449381D01*
X15227857Y-14411286D01*
X15227857Y-14363667D01*
X15237381Y-14325571D01*
X15246905Y-14306524D01*
X15256428Y-14297000D01*
X15275476Y-14287476D01*
X15427857Y-14468428D02*
X15437381Y-14477952D01*
X15427857Y-14487476D01*
X15418333Y-14477952D01*
X15427857Y-14468428D01*
X15427857Y-14487476D01*
X15561190Y-14287476D02*
X15580238Y-14287476D01*
X15599286Y-14297000D01*
X15608809Y-14306524D01*
X15618333Y-14325571D01*
X15627857Y-14363667D01*
X15627857Y-14411286D01*
X15618333Y-14449381D01*
X15608809Y-14468428D01*
X15599286Y-14477952D01*
X15580238Y-14487476D01*
X15561190Y-14487476D01*
X15542143Y-14477952D01*
X15532619Y-14468428D01*
X15523095Y-14449381D01*
X15513571Y-14411286D01*
X15513571Y-14363667D01*
X15523095Y-14325571D01*
X15532619Y-14306524D01*
X15542143Y-14297000D01*
X15561190Y-14287476D01*
X15704048Y-14306524D02*
X15713571Y-14297000D01*
X15732619Y-14287476D01*
X15780238Y-14287476D01*
X15799286Y-14297000D01*
X15808809Y-14306524D01*
X15818333Y-14325571D01*
X15818333Y-14344619D01*
X15808809Y-14373190D01*
X15694524Y-14487476D01*
X15818333Y-14487476D01*
X15885000Y-14287476D02*
X16008809Y-14287476D01*
X15942143Y-14363667D01*
X15970714Y-14363667D01*
X15989762Y-14373190D01*
X15999286Y-14382714D01*
X16008809Y-14401762D01*
X16008809Y-14449381D01*
X15999286Y-14468428D01*
X15989762Y-14477952D01*
X15970714Y-14487476D01*
X15913571Y-14487476D01*
X15894524Y-14477952D01*
X15885000Y-14468428D01*
X16180238Y-14287476D02*
X16142143Y-14287476D01*
X16123095Y-14297000D01*
X16113571Y-14306524D01*
X16094524Y-14335095D01*
X16085000Y-14373190D01*
X16085000Y-14449381D01*
X16094524Y-14468428D01*
X16104048Y-14477952D01*
X16123095Y-14487476D01*
X16161190Y-14487476D01*
X16180238Y-14477952D01*
X16189762Y-14468428D01*
X16199286Y-14449381D01*
X16199286Y-14401762D01*
X16189762Y-14382714D01*
X16180238Y-14373190D01*
X16161190Y-14363667D01*
X16123095Y-14363667D01*
X16104048Y-14373190D01*
X16094524Y-14382714D01*
X16085000Y-14401762D01*
X16275476Y-14287476D02*
X16275476Y-14325571D01*
X16351667Y-14287476D02*
X16351667Y-14325571D01*
X16646905Y-14563667D02*
X16637381Y-14554143D01*
X16618333Y-14525571D01*
X16608809Y-14506524D01*
X16599286Y-14477952D01*
X16589762Y-14430333D01*
X16589762Y-14392238D01*
X16599286Y-14344619D01*
X16608809Y-14316048D01*
X16618333Y-14297000D01*
X16637381Y-14268428D01*
X16646905Y-14258905D01*
X16761190Y-14287476D02*
X16780238Y-14287476D01*
X16799286Y-14297000D01*
X16808810Y-14306524D01*
X16818333Y-14325571D01*
X16827857Y-14363667D01*
X16827857Y-14411286D01*
X16818333Y-14449381D01*
X16808810Y-14468428D01*
X16799286Y-14477952D01*
X16780238Y-14487476D01*
X16761190Y-14487476D01*
X16742143Y-14477952D01*
X16732619Y-14468428D01*
X16723095Y-14449381D01*
X16713571Y-14411286D01*
X16713571Y-14363667D01*
X16723095Y-14325571D01*
X16732619Y-14306524D01*
X16742143Y-14297000D01*
X16761190Y-14287476D01*
X17065952Y-14487476D02*
X17065952Y-14287476D01*
X17151667Y-14487476D02*
X17151667Y-14382714D01*
X17142143Y-14363667D01*
X17123095Y-14354143D01*
X17094524Y-14354143D01*
X17075476Y-14363667D01*
X17065952Y-14373190D01*
X17275476Y-14487476D02*
X17256429Y-14477952D01*
X17246905Y-14468428D01*
X17237381Y-14449381D01*
X17237381Y-14392238D01*
X17246905Y-14373190D01*
X17256429Y-14363667D01*
X17275476Y-14354143D01*
X17304048Y-14354143D01*
X17323095Y-14363667D01*
X17332619Y-14373190D01*
X17342143Y-14392238D01*
X17342143Y-14449381D01*
X17332619Y-14468428D01*
X17323095Y-14477952D01*
X17304048Y-14487476D01*
X17275476Y-14487476D01*
X17456429Y-14487476D02*
X17437381Y-14477952D01*
X17427857Y-14458905D01*
X17427857Y-14287476D01*
X17608810Y-14477952D02*
X17589762Y-14487476D01*
X17551667Y-14487476D01*
X17532619Y-14477952D01*
X17523095Y-14458905D01*
X17523095Y-14382714D01*
X17532619Y-14363667D01*
X17551667Y-14354143D01*
X17589762Y-14354143D01*
X17608810Y-14363667D01*
X17618333Y-14382714D01*
X17618333Y-14401762D01*
X17523095Y-14420809D01*
X17694524Y-14477952D02*
X17713571Y-14487476D01*
X17751667Y-14487476D01*
X17770714Y-14477952D01*
X17780238Y-14458905D01*
X17780238Y-14449381D01*
X17770714Y-14430333D01*
X17751667Y-14420809D01*
X17723095Y-14420809D01*
X17704048Y-14411286D01*
X17694524Y-14392238D01*
X17694524Y-14382714D01*
X17704048Y-14363667D01*
X17723095Y-14354143D01*
X17751667Y-14354143D01*
X17770714Y-14363667D01*
X18018333Y-14411286D02*
X18170714Y-14411286D01*
X18094524Y-14487476D02*
X18094524Y-14335095D01*
X18504048Y-14354143D02*
X18504048Y-14487476D01*
X18456429Y-14277952D02*
X18408810Y-14420809D01*
X18532619Y-14420809D01*
X18751667Y-14477952D02*
X18770714Y-14487476D01*
X18808810Y-14487476D01*
X18827857Y-14477952D01*
X18837381Y-14458905D01*
X18837381Y-14449381D01*
X18827857Y-14430333D01*
X18808810Y-14420809D01*
X18780238Y-14420809D01*
X18761190Y-14411286D01*
X18751667Y-14392238D01*
X18751667Y-14382714D01*
X18761190Y-14363667D01*
X18780238Y-14354143D01*
X18808810Y-14354143D01*
X18827857Y-14363667D01*
X18951667Y-14487476D02*
X18932619Y-14477952D01*
X18923095Y-14458905D01*
X18923095Y-14287476D01*
X19056429Y-14487476D02*
X19037381Y-14477952D01*
X19027857Y-14468428D01*
X19018333Y-14449381D01*
X19018333Y-14392238D01*
X19027857Y-14373190D01*
X19037381Y-14363667D01*
X19056429Y-14354143D01*
X19085000Y-14354143D01*
X19104048Y-14363667D01*
X19113571Y-14373190D01*
X19123095Y-14392238D01*
X19123095Y-14449381D01*
X19113571Y-14468428D01*
X19104048Y-14477952D01*
X19085000Y-14487476D01*
X19056429Y-14487476D01*
X19180238Y-14354143D02*
X19256429Y-14354143D01*
X19208810Y-14287476D02*
X19208810Y-14458905D01*
X19218333Y-14477952D01*
X19237381Y-14487476D01*
X19256429Y-14487476D01*
X19313571Y-14477952D02*
X19332619Y-14487476D01*
X19370714Y-14487476D01*
X19389762Y-14477952D01*
X19399286Y-14458905D01*
X19399286Y-14449381D01*
X19389762Y-14430333D01*
X19370714Y-14420809D01*
X19342143Y-14420809D01*
X19323095Y-14411286D01*
X19313571Y-14392238D01*
X19313571Y-14382714D01*
X19323095Y-14363667D01*
X19342143Y-14354143D01*
X19370714Y-14354143D01*
X19389762Y-14363667D01*
X19465952Y-14563667D02*
X19475476Y-14554143D01*
X19494524Y-14525571D01*
X19504048Y-14506524D01*
X19513571Y-14477952D01*
X19523095Y-14430333D01*
X19523095Y-14392238D01*
X19513571Y-14344619D01*
X19504048Y-14316048D01*
X19494524Y-14297000D01*
X19475476Y-14268428D01*
X19465952Y-14258905D01*
D15*
X13030000Y-14706000D02*
X13075000Y-14661000D01*
X13030000Y-14616000D01*
X12985000Y-14661000D01*
X13030000Y-14706000D01*
D11*
X13370714Y-14551476D02*
X13389762Y-14551476D01*
X13408809Y-14561000D01*
X13418333Y-14570524D01*
X13427857Y-14589571D01*
X13437381Y-14627667D01*
X13437381Y-14675286D01*
X13427857Y-14713381D01*
X13418333Y-14732428D01*
X13408809Y-14741952D01*
X13389762Y-14751476D01*
X13370714Y-14751476D01*
X13351667Y-14741952D01*
X13342143Y-14732428D01*
X13332619Y-14713381D01*
X13323095Y-14675286D01*
X13323095Y-14627667D01*
X13332619Y-14589571D01*
X13342143Y-14570524D01*
X13351667Y-14561000D01*
X13370714Y-14551476D01*
X13523095Y-14732428D02*
X13532619Y-14741952D01*
X13523095Y-14751476D01*
X13513571Y-14741952D01*
X13523095Y-14732428D01*
X13523095Y-14751476D01*
X13627857Y-14751476D02*
X13665952Y-14751476D01*
X13685000Y-14741952D01*
X13694524Y-14732428D01*
X13713571Y-14703857D01*
X13723095Y-14665762D01*
X13723095Y-14589571D01*
X13713571Y-14570524D01*
X13704048Y-14561000D01*
X13685000Y-14551476D01*
X13646905Y-14551476D01*
X13627857Y-14561000D01*
X13618333Y-14570524D01*
X13608809Y-14589571D01*
X13608809Y-14637190D01*
X13618333Y-14656238D01*
X13627857Y-14665762D01*
X13646905Y-14675286D01*
X13685000Y-14675286D01*
X13704048Y-14665762D01*
X13713571Y-14656238D01*
X13723095Y-14637190D01*
X13846905Y-14551476D02*
X13865952Y-14551476D01*
X13885000Y-14561000D01*
X13894524Y-14570524D01*
X13904048Y-14589571D01*
X13913571Y-14627667D01*
X13913571Y-14675286D01*
X13904048Y-14713381D01*
X13894524Y-14732428D01*
X13885000Y-14741952D01*
X13865952Y-14751476D01*
X13846905Y-14751476D01*
X13827857Y-14741952D01*
X13818333Y-14732428D01*
X13808809Y-14713381D01*
X13799286Y-14675286D01*
X13799286Y-14627667D01*
X13808809Y-14589571D01*
X13818333Y-14570524D01*
X13827857Y-14561000D01*
X13846905Y-14551476D01*
X14037381Y-14551476D02*
X14056428Y-14551476D01*
X14075476Y-14561000D01*
X14085000Y-14570524D01*
X14094524Y-14589571D01*
X14104048Y-14627667D01*
X14104048Y-14675286D01*
X14094524Y-14713381D01*
X14085000Y-14732428D01*
X14075476Y-14741952D01*
X14056428Y-14751476D01*
X14037381Y-14751476D01*
X14018333Y-14741952D01*
X14008809Y-14732428D01*
X13999286Y-14713381D01*
X13989762Y-14675286D01*
X13989762Y-14627667D01*
X13999286Y-14589571D01*
X14008809Y-14570524D01*
X14018333Y-14561000D01*
X14037381Y-14551476D01*
X14189762Y-14751476D02*
X14189762Y-14618143D01*
X14189762Y-14637190D02*
X14199286Y-14627667D01*
X14218333Y-14618143D01*
X14246905Y-14618143D01*
X14265952Y-14627667D01*
X14275476Y-14646714D01*
X14275476Y-14751476D01*
X14275476Y-14646714D02*
X14285000Y-14627667D01*
X14304048Y-14618143D01*
X14332619Y-14618143D01*
X14351667Y-14627667D01*
X14361190Y-14646714D01*
X14361190Y-14751476D01*
X14456428Y-14751476D02*
X14456428Y-14618143D01*
X14456428Y-14637190D02*
X14465952Y-14627667D01*
X14485000Y-14618143D01*
X14513571Y-14618143D01*
X14532619Y-14627667D01*
X14542143Y-14646714D01*
X14542143Y-14751476D01*
X14542143Y-14646714D02*
X14551667Y-14627667D01*
X14570714Y-14618143D01*
X14599286Y-14618143D01*
X14618333Y-14627667D01*
X14627857Y-14646714D01*
X14627857Y-14751476D01*
X15018333Y-14541952D02*
X14846905Y-14799095D01*
X15275476Y-14551476D02*
X15294524Y-14551476D01*
X15313571Y-14561000D01*
X15323095Y-14570524D01*
X15332619Y-14589571D01*
X15342143Y-14627667D01*
X15342143Y-14675286D01*
X15332619Y-14713381D01*
X15323095Y-14732428D01*
X15313571Y-14741952D01*
X15294524Y-14751476D01*
X15275476Y-14751476D01*
X15256428Y-14741952D01*
X15246905Y-14732428D01*
X15237381Y-14713381D01*
X15227857Y-14675286D01*
X15227857Y-14627667D01*
X15237381Y-14589571D01*
X15246905Y-14570524D01*
X15256428Y-14561000D01*
X15275476Y-14551476D01*
X15427857Y-14732428D02*
X15437381Y-14741952D01*
X15427857Y-14751476D01*
X15418333Y-14741952D01*
X15427857Y-14732428D01*
X15427857Y-14751476D01*
X15561190Y-14551476D02*
X15580238Y-14551476D01*
X15599286Y-14561000D01*
X15608809Y-14570524D01*
X15618333Y-14589571D01*
X15627857Y-14627667D01*
X15627857Y-14675286D01*
X15618333Y-14713381D01*
X15608809Y-14732428D01*
X15599286Y-14741952D01*
X15580238Y-14751476D01*
X15561190Y-14751476D01*
X15542143Y-14741952D01*
X15532619Y-14732428D01*
X15523095Y-14713381D01*
X15513571Y-14675286D01*
X15513571Y-14627667D01*
X15523095Y-14589571D01*
X15532619Y-14570524D01*
X15542143Y-14561000D01*
X15561190Y-14551476D01*
X15694524Y-14551476D02*
X15818333Y-14551476D01*
X15751667Y-14627667D01*
X15780238Y-14627667D01*
X15799286Y-14637190D01*
X15808809Y-14646714D01*
X15818333Y-14665762D01*
X15818333Y-14713381D01*
X15808809Y-14732428D01*
X15799286Y-14741952D01*
X15780238Y-14751476D01*
X15723095Y-14751476D01*
X15704048Y-14741952D01*
X15694524Y-14732428D01*
X15999286Y-14551476D02*
X15904048Y-14551476D01*
X15894524Y-14646714D01*
X15904048Y-14637190D01*
X15923095Y-14627667D01*
X15970714Y-14627667D01*
X15989762Y-14637190D01*
X15999286Y-14646714D01*
X16008809Y-14665762D01*
X16008809Y-14713381D01*
X15999286Y-14732428D01*
X15989762Y-14741952D01*
X15970714Y-14751476D01*
X15923095Y-14751476D01*
X15904048Y-14741952D01*
X15894524Y-14732428D01*
X16180238Y-14618143D02*
X16180238Y-14751476D01*
X16132619Y-14541952D02*
X16085000Y-14684809D01*
X16208809Y-14684809D01*
X16275476Y-14551476D02*
X16275476Y-14589571D01*
X16351667Y-14551476D02*
X16351667Y-14589571D01*
X16646905Y-14827667D02*
X16637381Y-14818143D01*
X16618333Y-14789571D01*
X16608809Y-14770524D01*
X16599286Y-14741952D01*
X16589762Y-14694333D01*
X16589762Y-14656238D01*
X16599286Y-14608619D01*
X16608809Y-14580048D01*
X16618333Y-14561000D01*
X16637381Y-14532428D01*
X16646905Y-14522905D01*
X16827857Y-14751476D02*
X16713571Y-14751476D01*
X16770714Y-14751476D02*
X16770714Y-14551476D01*
X16751667Y-14580048D01*
X16732619Y-14599095D01*
X16713571Y-14608619D01*
X16951667Y-14551476D02*
X16970714Y-14551476D01*
X16989762Y-14561000D01*
X16999286Y-14570524D01*
X17008810Y-14589571D01*
X17018333Y-14627667D01*
X17018333Y-14675286D01*
X17008810Y-14713381D01*
X16999286Y-14732428D01*
X16989762Y-14741952D01*
X16970714Y-14751476D01*
X16951667Y-14751476D01*
X16932619Y-14741952D01*
X16923095Y-14732428D01*
X16913571Y-14713381D01*
X16904048Y-14675286D01*
X16904048Y-14627667D01*
X16913571Y-14589571D01*
X16923095Y-14570524D01*
X16932619Y-14561000D01*
X16951667Y-14551476D01*
X17256429Y-14751476D02*
X17256429Y-14551476D01*
X17342143Y-14751476D02*
X17342143Y-14646714D01*
X17332619Y-14627667D01*
X17313571Y-14618143D01*
X17285000Y-14618143D01*
X17265952Y-14627667D01*
X17256429Y-14637190D01*
X17465952Y-14751476D02*
X17446905Y-14741952D01*
X17437381Y-14732428D01*
X17427857Y-14713381D01*
X17427857Y-14656238D01*
X17437381Y-14637190D01*
X17446905Y-14627667D01*
X17465952Y-14618143D01*
X17494524Y-14618143D01*
X17513571Y-14627667D01*
X17523095Y-14637190D01*
X17532619Y-14656238D01*
X17532619Y-14713381D01*
X17523095Y-14732428D01*
X17513571Y-14741952D01*
X17494524Y-14751476D01*
X17465952Y-14751476D01*
X17646905Y-14751476D02*
X17627857Y-14741952D01*
X17618333Y-14722905D01*
X17618333Y-14551476D01*
X17799286Y-14741952D02*
X17780238Y-14751476D01*
X17742143Y-14751476D01*
X17723095Y-14741952D01*
X17713571Y-14722905D01*
X17713571Y-14646714D01*
X17723095Y-14627667D01*
X17742143Y-14618143D01*
X17780238Y-14618143D01*
X17799286Y-14627667D01*
X17808810Y-14646714D01*
X17808810Y-14665762D01*
X17713571Y-14684809D01*
X17885000Y-14741952D02*
X17904048Y-14751476D01*
X17942143Y-14751476D01*
X17961190Y-14741952D01*
X17970714Y-14722905D01*
X17970714Y-14713381D01*
X17961190Y-14694333D01*
X17942143Y-14684809D01*
X17913571Y-14684809D01*
X17894524Y-14675286D01*
X17885000Y-14656238D01*
X17885000Y-14646714D01*
X17894524Y-14627667D01*
X17913571Y-14618143D01*
X17942143Y-14618143D01*
X17961190Y-14627667D01*
X18037381Y-14827667D02*
X18046905Y-14818143D01*
X18065952Y-14789571D01*
X18075476Y-14770524D01*
X18085000Y-14741952D01*
X18094524Y-14694333D01*
X18094524Y-14656238D01*
X18085000Y-14608619D01*
X18075476Y-14580048D01*
X18065952Y-14561000D01*
X18046905Y-14532428D01*
X18037381Y-14522905D01*
D10*
X12975000Y-14875000D02*
X13075000Y-14975000D01*
X13075000Y-14875000D02*
X12975000Y-14975000D01*
X13075000Y-14925000D02*
G75*
G03*
X13075000Y-14925000I-50000J0D01*
G01*
D11*
X13437381Y-15015476D02*
X13323095Y-15015476D01*
X13380238Y-15015476D02*
X13380238Y-14815476D01*
X13361190Y-14844048D01*
X13342143Y-14863095D01*
X13323095Y-14872619D01*
X13523095Y-14996428D02*
X13532619Y-15005952D01*
X13523095Y-15015476D01*
X13513571Y-15005952D01*
X13523095Y-14996428D01*
X13523095Y-15015476D01*
X13656428Y-14815476D02*
X13675476Y-14815476D01*
X13694524Y-14825000D01*
X13704048Y-14834524D01*
X13713571Y-14853571D01*
X13723095Y-14891667D01*
X13723095Y-14939286D01*
X13713571Y-14977381D01*
X13704048Y-14996428D01*
X13694524Y-15005952D01*
X13675476Y-15015476D01*
X13656428Y-15015476D01*
X13637381Y-15005952D01*
X13627857Y-14996428D01*
X13618333Y-14977381D01*
X13608809Y-14939286D01*
X13608809Y-14891667D01*
X13618333Y-14853571D01*
X13627857Y-14834524D01*
X13637381Y-14825000D01*
X13656428Y-14815476D01*
X13846905Y-14815476D02*
X13865952Y-14815476D01*
X13885000Y-14825000D01*
X13894524Y-14834524D01*
X13904048Y-14853571D01*
X13913571Y-14891667D01*
X13913571Y-14939286D01*
X13904048Y-14977381D01*
X13894524Y-14996428D01*
X13885000Y-15005952D01*
X13865952Y-15015476D01*
X13846905Y-15015476D01*
X13827857Y-15005952D01*
X13818333Y-14996428D01*
X13808809Y-14977381D01*
X13799286Y-14939286D01*
X13799286Y-14891667D01*
X13808809Y-14853571D01*
X13818333Y-14834524D01*
X13827857Y-14825000D01*
X13846905Y-14815476D01*
X14037381Y-14815476D02*
X14056428Y-14815476D01*
X14075476Y-14825000D01*
X14085000Y-14834524D01*
X14094524Y-14853571D01*
X14104048Y-14891667D01*
X14104048Y-14939286D01*
X14094524Y-14977381D01*
X14085000Y-14996428D01*
X14075476Y-15005952D01*
X14056428Y-15015476D01*
X14037381Y-15015476D01*
X14018333Y-15005952D01*
X14008809Y-14996428D01*
X13999286Y-14977381D01*
X13989762Y-14939286D01*
X13989762Y-14891667D01*
X13999286Y-14853571D01*
X14008809Y-14834524D01*
X14018333Y-14825000D01*
X14037381Y-14815476D01*
X14189762Y-15015476D02*
X14189762Y-14882143D01*
X14189762Y-14901190D02*
X14199286Y-14891667D01*
X14218333Y-14882143D01*
X14246905Y-14882143D01*
X14265952Y-14891667D01*
X14275476Y-14910714D01*
X14275476Y-15015476D01*
X14275476Y-14910714D02*
X14285000Y-14891667D01*
X14304048Y-14882143D01*
X14332619Y-14882143D01*
X14351667Y-14891667D01*
X14361190Y-14910714D01*
X14361190Y-15015476D01*
X14456428Y-15015476D02*
X14456428Y-14882143D01*
X14456428Y-14901190D02*
X14465952Y-14891667D01*
X14485000Y-14882143D01*
X14513571Y-14882143D01*
X14532619Y-14891667D01*
X14542143Y-14910714D01*
X14542143Y-15015476D01*
X14542143Y-14910714D02*
X14551667Y-14891667D01*
X14570714Y-14882143D01*
X14599286Y-14882143D01*
X14618333Y-14891667D01*
X14627857Y-14910714D01*
X14627857Y-15015476D01*
X15018333Y-14805952D02*
X14846905Y-15063095D01*
X15275476Y-14815476D02*
X15294524Y-14815476D01*
X15313571Y-14825000D01*
X15323095Y-14834524D01*
X15332619Y-14853571D01*
X15342143Y-14891667D01*
X15342143Y-14939286D01*
X15332619Y-14977381D01*
X15323095Y-14996428D01*
X15313571Y-15005952D01*
X15294524Y-15015476D01*
X15275476Y-15015476D01*
X15256428Y-15005952D01*
X15246905Y-14996428D01*
X15237381Y-14977381D01*
X15227857Y-14939286D01*
X15227857Y-14891667D01*
X15237381Y-14853571D01*
X15246905Y-14834524D01*
X15256428Y-14825000D01*
X15275476Y-14815476D01*
X15427857Y-14996428D02*
X15437381Y-15005952D01*
X15427857Y-15015476D01*
X15418333Y-15005952D01*
X15427857Y-14996428D01*
X15427857Y-15015476D01*
X15561190Y-14815476D02*
X15580238Y-14815476D01*
X15599286Y-14825000D01*
X15608809Y-14834524D01*
X15618333Y-14853571D01*
X15627857Y-14891667D01*
X15627857Y-14939286D01*
X15618333Y-14977381D01*
X15608809Y-14996428D01*
X15599286Y-15005952D01*
X15580238Y-15015476D01*
X15561190Y-15015476D01*
X15542143Y-15005952D01*
X15532619Y-14996428D01*
X15523095Y-14977381D01*
X15513571Y-14939286D01*
X15513571Y-14891667D01*
X15523095Y-14853571D01*
X15532619Y-14834524D01*
X15542143Y-14825000D01*
X15561190Y-14815476D01*
X15694524Y-14815476D02*
X15818333Y-14815476D01*
X15751667Y-14891667D01*
X15780238Y-14891667D01*
X15799286Y-14901190D01*
X15808809Y-14910714D01*
X15818333Y-14929762D01*
X15818333Y-14977381D01*
X15808809Y-14996428D01*
X15799286Y-15005952D01*
X15780238Y-15015476D01*
X15723095Y-15015476D01*
X15704048Y-15005952D01*
X15694524Y-14996428D01*
X15913571Y-15015476D02*
X15951667Y-15015476D01*
X15970714Y-15005952D01*
X15980238Y-14996428D01*
X15999286Y-14967857D01*
X16008809Y-14929762D01*
X16008809Y-14853571D01*
X15999286Y-14834524D01*
X15989762Y-14825000D01*
X15970714Y-14815476D01*
X15932619Y-14815476D01*
X15913571Y-14825000D01*
X15904048Y-14834524D01*
X15894524Y-14853571D01*
X15894524Y-14901190D01*
X15904048Y-14920238D01*
X15913571Y-14929762D01*
X15932619Y-14939286D01*
X15970714Y-14939286D01*
X15989762Y-14929762D01*
X15999286Y-14920238D01*
X16008809Y-14901190D01*
X16180238Y-14882143D02*
X16180238Y-15015476D01*
X16132619Y-14805952D02*
X16085000Y-14948809D01*
X16208809Y-14948809D01*
X16275476Y-14815476D02*
X16275476Y-14853571D01*
X16351667Y-14815476D02*
X16351667Y-14853571D01*
X16646905Y-15091667D02*
X16637381Y-15082143D01*
X16618333Y-15053571D01*
X16608809Y-15034524D01*
X16599286Y-15005952D01*
X16589762Y-14958333D01*
X16589762Y-14920238D01*
X16599286Y-14872619D01*
X16608809Y-14844048D01*
X16618333Y-14825000D01*
X16637381Y-14796428D01*
X16646905Y-14786905D01*
X16808810Y-14882143D02*
X16808810Y-15015476D01*
X16761190Y-14805952D02*
X16713571Y-14948809D01*
X16837381Y-14948809D01*
X17065952Y-15015476D02*
X17065952Y-14815476D01*
X17151667Y-15015476D02*
X17151667Y-14910714D01*
X17142143Y-14891667D01*
X17123095Y-14882143D01*
X17094524Y-14882143D01*
X17075476Y-14891667D01*
X17065952Y-14901190D01*
X17275476Y-15015476D02*
X17256429Y-15005952D01*
X17246905Y-14996428D01*
X17237381Y-14977381D01*
X17237381Y-14920238D01*
X17246905Y-14901190D01*
X17256429Y-14891667D01*
X17275476Y-14882143D01*
X17304048Y-14882143D01*
X17323095Y-14891667D01*
X17332619Y-14901190D01*
X17342143Y-14920238D01*
X17342143Y-14977381D01*
X17332619Y-14996428D01*
X17323095Y-15005952D01*
X17304048Y-15015476D01*
X17275476Y-15015476D01*
X17456429Y-15015476D02*
X17437381Y-15005952D01*
X17427857Y-14986905D01*
X17427857Y-14815476D01*
X17608810Y-15005952D02*
X17589762Y-15015476D01*
X17551667Y-15015476D01*
X17532619Y-15005952D01*
X17523095Y-14986905D01*
X17523095Y-14910714D01*
X17532619Y-14891667D01*
X17551667Y-14882143D01*
X17589762Y-14882143D01*
X17608810Y-14891667D01*
X17618333Y-14910714D01*
X17618333Y-14929762D01*
X17523095Y-14948809D01*
X17694524Y-15005952D02*
X17713571Y-15015476D01*
X17751667Y-15015476D01*
X17770714Y-15005952D01*
X17780238Y-14986905D01*
X17780238Y-14977381D01*
X17770714Y-14958333D01*
X17751667Y-14948809D01*
X17723095Y-14948809D01*
X17704048Y-14939286D01*
X17694524Y-14920238D01*
X17694524Y-14910714D01*
X17704048Y-14891667D01*
X17723095Y-14882143D01*
X17751667Y-14882143D01*
X17770714Y-14891667D01*
X17846905Y-15091667D02*
X17856429Y-15082143D01*
X17875476Y-15053571D01*
X17885000Y-15034524D01*
X17894524Y-15005952D01*
X17904048Y-14958333D01*
X17904048Y-14920238D01*
X17894524Y-14872619D01*
X17885000Y-14844048D01*
X17875476Y-14825000D01*
X17856429Y-14796428D01*
X17846905Y-14786905D01*
D16*
X12915000Y-15109000D02*
X13075000Y-15269000D01*
X13075000Y-15109000D02*
X12915000Y-15269000D01*
X12995000Y-15109000D02*
X12995000Y-15269000D01*
X12915000Y-15189000D02*
X13075000Y-15189000D01*
D11*
X13437381Y-15279476D02*
X13323095Y-15279476D01*
X13380238Y-15279476D02*
X13380238Y-15079476D01*
X13361190Y-15108048D01*
X13342143Y-15127095D01*
X13323095Y-15136619D01*
X13523095Y-15260428D02*
X13532619Y-15269952D01*
X13523095Y-15279476D01*
X13513571Y-15269952D01*
X13523095Y-15260428D01*
X13523095Y-15279476D01*
X13704048Y-15079476D02*
X13665952Y-15079476D01*
X13646905Y-15089000D01*
X13637381Y-15098524D01*
X13618333Y-15127095D01*
X13608809Y-15165190D01*
X13608809Y-15241381D01*
X13618333Y-15260428D01*
X13627857Y-15269952D01*
X13646905Y-15279476D01*
X13685000Y-15279476D01*
X13704048Y-15269952D01*
X13713571Y-15260428D01*
X13723095Y-15241381D01*
X13723095Y-15193762D01*
X13713571Y-15174714D01*
X13704048Y-15165190D01*
X13685000Y-15155667D01*
X13646905Y-15155667D01*
X13627857Y-15165190D01*
X13618333Y-15174714D01*
X13608809Y-15193762D01*
X13846905Y-15079476D02*
X13865952Y-15079476D01*
X13885000Y-15089000D01*
X13894524Y-15098524D01*
X13904048Y-15117571D01*
X13913571Y-15155667D01*
X13913571Y-15203286D01*
X13904048Y-15241381D01*
X13894524Y-15260428D01*
X13885000Y-15269952D01*
X13865952Y-15279476D01*
X13846905Y-15279476D01*
X13827857Y-15269952D01*
X13818333Y-15260428D01*
X13808809Y-15241381D01*
X13799286Y-15203286D01*
X13799286Y-15155667D01*
X13808809Y-15117571D01*
X13818333Y-15098524D01*
X13827857Y-15089000D01*
X13846905Y-15079476D01*
X14037381Y-15079476D02*
X14056428Y-15079476D01*
X14075476Y-15089000D01*
X14085000Y-15098524D01*
X14094524Y-15117571D01*
X14104048Y-15155667D01*
X14104048Y-15203286D01*
X14094524Y-15241381D01*
X14085000Y-15260428D01*
X14075476Y-15269952D01*
X14056428Y-15279476D01*
X14037381Y-15279476D01*
X14018333Y-15269952D01*
X14008809Y-15260428D01*
X13999286Y-15241381D01*
X13989762Y-15203286D01*
X13989762Y-15155667D01*
X13999286Y-15117571D01*
X14008809Y-15098524D01*
X14018333Y-15089000D01*
X14037381Y-15079476D01*
X14189762Y-15279476D02*
X14189762Y-15146143D01*
X14189762Y-15165190D02*
X14199286Y-15155667D01*
X14218333Y-15146143D01*
X14246905Y-15146143D01*
X14265952Y-15155667D01*
X14275476Y-15174714D01*
X14275476Y-15279476D01*
X14275476Y-15174714D02*
X14285000Y-15155667D01*
X14304048Y-15146143D01*
X14332619Y-15146143D01*
X14351667Y-15155667D01*
X14361190Y-15174714D01*
X14361190Y-15279476D01*
X14456428Y-15279476D02*
X14456428Y-15146143D01*
X14456428Y-15165190D02*
X14465952Y-15155667D01*
X14485000Y-15146143D01*
X14513571Y-15146143D01*
X14532619Y-15155667D01*
X14542143Y-15174714D01*
X14542143Y-15279476D01*
X14542143Y-15174714D02*
X14551667Y-15155667D01*
X14570714Y-15146143D01*
X14599286Y-15146143D01*
X14618333Y-15155667D01*
X14627857Y-15174714D01*
X14627857Y-15279476D01*
X15018333Y-15069952D02*
X14846905Y-15327095D01*
X15275476Y-15079476D02*
X15294524Y-15079476D01*
X15313571Y-15089000D01*
X15323095Y-15098524D01*
X15332619Y-15117571D01*
X15342143Y-15155667D01*
X15342143Y-15203286D01*
X15332619Y-15241381D01*
X15323095Y-15260428D01*
X15313571Y-15269952D01*
X15294524Y-15279476D01*
X15275476Y-15279476D01*
X15256428Y-15269952D01*
X15246905Y-15260428D01*
X15237381Y-15241381D01*
X15227857Y-15203286D01*
X15227857Y-15155667D01*
X15237381Y-15117571D01*
X15246905Y-15098524D01*
X15256428Y-15089000D01*
X15275476Y-15079476D01*
X15427857Y-15260428D02*
X15437381Y-15269952D01*
X15427857Y-15279476D01*
X15418333Y-15269952D01*
X15427857Y-15260428D01*
X15427857Y-15279476D01*
X15561190Y-15079476D02*
X15580238Y-15079476D01*
X15599286Y-15089000D01*
X15608809Y-15098524D01*
X15618333Y-15117571D01*
X15627857Y-15155667D01*
X15627857Y-15203286D01*
X15618333Y-15241381D01*
X15608809Y-15260428D01*
X15599286Y-15269952D01*
X15580238Y-15279476D01*
X15561190Y-15279476D01*
X15542143Y-15269952D01*
X15532619Y-15260428D01*
X15523095Y-15241381D01*
X15513571Y-15203286D01*
X15513571Y-15155667D01*
X15523095Y-15117571D01*
X15532619Y-15098524D01*
X15542143Y-15089000D01*
X15561190Y-15079476D01*
X15799286Y-15079476D02*
X15761190Y-15079476D01*
X15742143Y-15089000D01*
X15732619Y-15098524D01*
X15713571Y-15127095D01*
X15704048Y-15165190D01*
X15704048Y-15241381D01*
X15713571Y-15260428D01*
X15723095Y-15269952D01*
X15742143Y-15279476D01*
X15780238Y-15279476D01*
X15799286Y-15269952D01*
X15808809Y-15260428D01*
X15818333Y-15241381D01*
X15818333Y-15193762D01*
X15808809Y-15174714D01*
X15799286Y-15165190D01*
X15780238Y-15155667D01*
X15742143Y-15155667D01*
X15723095Y-15165190D01*
X15713571Y-15174714D01*
X15704048Y-15193762D01*
X15885000Y-15079476D02*
X16008809Y-15079476D01*
X15942143Y-15155667D01*
X15970714Y-15155667D01*
X15989762Y-15165190D01*
X15999286Y-15174714D01*
X16008809Y-15193762D01*
X16008809Y-15241381D01*
X15999286Y-15260428D01*
X15989762Y-15269952D01*
X15970714Y-15279476D01*
X15913571Y-15279476D01*
X15894524Y-15269952D01*
X15885000Y-15260428D01*
X16132619Y-15079476D02*
X16151667Y-15079476D01*
X16170714Y-15089000D01*
X16180238Y-15098524D01*
X16189762Y-15117571D01*
X16199286Y-15155667D01*
X16199286Y-15203286D01*
X16189762Y-15241381D01*
X16180238Y-15260428D01*
X16170714Y-15269952D01*
X16151667Y-15279476D01*
X16132619Y-15279476D01*
X16113571Y-15269952D01*
X16104048Y-15260428D01*
X16094524Y-15241381D01*
X16085000Y-15203286D01*
X16085000Y-15155667D01*
X16094524Y-15117571D01*
X16104048Y-15098524D01*
X16113571Y-15089000D01*
X16132619Y-15079476D01*
X16275476Y-15079476D02*
X16275476Y-15117571D01*
X16351667Y-15079476D02*
X16351667Y-15117571D01*
X16646905Y-15355667D02*
X16637381Y-15346143D01*
X16618333Y-15317571D01*
X16608809Y-15298524D01*
X16599286Y-15269952D01*
X16589762Y-15222333D01*
X16589762Y-15184238D01*
X16599286Y-15136619D01*
X16608809Y-15108048D01*
X16618333Y-15089000D01*
X16637381Y-15060428D01*
X16646905Y-15050905D01*
X16713571Y-15098524D02*
X16723095Y-15089000D01*
X16742143Y-15079476D01*
X16789762Y-15079476D01*
X16808810Y-15089000D01*
X16818333Y-15098524D01*
X16827857Y-15117571D01*
X16827857Y-15136619D01*
X16818333Y-15165190D01*
X16704048Y-15279476D01*
X16827857Y-15279476D01*
X17065952Y-15279476D02*
X17065952Y-15079476D01*
X17151667Y-15279476D02*
X17151667Y-15174714D01*
X17142143Y-15155667D01*
X17123095Y-15146143D01*
X17094524Y-15146143D01*
X17075476Y-15155667D01*
X17065952Y-15165190D01*
X17275476Y-15279476D02*
X17256429Y-15269952D01*
X17246905Y-15260428D01*
X17237381Y-15241381D01*
X17237381Y-15184238D01*
X17246905Y-15165190D01*
X17256429Y-15155667D01*
X17275476Y-15146143D01*
X17304048Y-15146143D01*
X17323095Y-15155667D01*
X17332619Y-15165190D01*
X17342143Y-15184238D01*
X17342143Y-15241381D01*
X17332619Y-15260428D01*
X17323095Y-15269952D01*
X17304048Y-15279476D01*
X17275476Y-15279476D01*
X17456429Y-15279476D02*
X17437381Y-15269952D01*
X17427857Y-15250905D01*
X17427857Y-15079476D01*
X17608810Y-15269952D02*
X17589762Y-15279476D01*
X17551667Y-15279476D01*
X17532619Y-15269952D01*
X17523095Y-15250905D01*
X17523095Y-15174714D01*
X17532619Y-15155667D01*
X17551667Y-15146143D01*
X17589762Y-15146143D01*
X17608810Y-15155667D01*
X17618333Y-15174714D01*
X17618333Y-15193762D01*
X17523095Y-15212809D01*
X17694524Y-15269952D02*
X17713571Y-15279476D01*
X17751667Y-15279476D01*
X17770714Y-15269952D01*
X17780238Y-15250905D01*
X17780238Y-15241381D01*
X17770714Y-15222333D01*
X17751667Y-15212809D01*
X17723095Y-15212809D01*
X17704048Y-15203286D01*
X17694524Y-15184238D01*
X17694524Y-15174714D01*
X17704048Y-15155667D01*
X17723095Y-15146143D01*
X17751667Y-15146143D01*
X17770714Y-15155667D01*
X17846905Y-15355667D02*
X17856429Y-15346143D01*
X17875476Y-15317571D01*
X17885000Y-15298524D01*
X17894524Y-15269952D01*
X17904048Y-15222333D01*
X17904048Y-15184238D01*
X17894524Y-15136619D01*
X17885000Y-15108048D01*
X17875476Y-15089000D01*
X17856429Y-15060428D01*
X17846905Y-15050905D01*
M02*
