M48
; DRILL file {KiCad (6.0.9)} date Thu 24 Nov 2022 09:16:58 PM CET
; FORMAT={-:-/ absolute / metric / decimal}
; #@! TF.CreationDate,2022-11-24T21:16:58+01:00
; #@! TF.GenerationSoftware,Kicad,Pcbnew,(6.0.9)
; #@! TF.FileFunction,Plated,1,6,PTH
FMAT,2
METRIC
; #@! TA.AperFunction,Plated,PTH,ViaDrill
T1C0.200
; #@! TA.AperFunction,Plated,PTH,ComponentDrill
T2C0.200
; #@! TA.AperFunction,Plated,PTH,ComponentDrill
T3C0.300
; #@! TA.AperFunction,Plated,PTH,ComponentDrill
T4C0.600
; #@! TA.AperFunction,Plated,PTH,ComponentDrill
T5C0.900
; #@! TA.AperFunction,Plated,PTH,ComponentDrill
T6C1.000
; #@! TA.AperFunction,Plated,PTH,ComponentDrill
T7C1.600
%
G90
G05
T1
X131.59Y-86.84
X131.64Y-84.39
X131.7Y-122.8
X131.75Y-119.5
X131.9Y-114.9
X132.0Y-112.6
X132.0Y-113.8
X132.0Y-116.75
X132.189Y-105.576
X132.25Y-125.25
X132.7Y-113.2
X132.7Y-114.5
X132.95Y-84.65
X132.95Y-85.4
X133.0Y-82.03
X133.0Y-123.4
X133.347Y-107.018
X133.6Y-107.8
X133.65Y-85.05
X133.65Y-85.8
X133.75Y-127.25
X133.9Y-122.4
X134.16Y-81.1
X134.18Y-81.87
X134.5Y-107.8
X134.543Y-104.997
X134.548Y-106.423
X135.1Y-108.7
X135.25Y-124.25
X135.5Y-115.4
X135.5Y-116.1
X135.5Y-116.8
X135.8Y-108.7
X136.25Y-126.0
X136.5Y-108.7
X136.579Y-80.405
X136.592Y-82.205
X136.9Y-125.3
X136.976Y-105.592
X137.142Y-107.731
X137.25Y-83.0
X137.406Y-81.302
X137.45Y-86.05
X137.5Y-116.25
X137.55Y-85.25
X137.6Y-124.6
X137.6Y-126.0
X138.25Y-80.25
X138.3Y-125.3
X139.0Y-126.0
X139.6Y-80.6
X139.773Y-83.499
X139.806Y-84.876
X139.9Y-122.9
X140.25Y-125.0
X140.4Y-80.6
X140.807Y-84.134
X141.2Y-80.6
X141.2Y-120.0
X141.2Y-121.3
X141.2Y-122.8
X141.5Y-127.75
X141.75Y-124.75
X141.792Y-84.901
X141.836Y-83.493
X142.0Y-80.6
X142.0Y-117.0
X142.55Y-114.65
X142.674Y-122.265
X142.8Y-116.2
X143.0Y-117.0
X143.195Y-128.895
X143.4Y-111.2
X143.6Y-114.7
X143.7Y-120.9
X143.8Y-122.3
X144.05Y-84.3
X144.1Y-81.9
X144.3Y-117.8
X144.322Y-116.477
X144.473Y-128.894
X144.75Y-86.5
X145.0Y-107.0
X145.4Y-108.55
X145.7Y-117.0
X145.7Y-119.8
X145.7Y-120.8
X145.735Y-121.95
X145.75Y-128.894
X146.0Y-101.0
X146.0Y-104.0
X146.05Y-83.3
X146.3Y-84.3
X146.4Y-115.1
X146.75Y-107.25
X146.802Y-113.3
X146.802Y-114.2
X146.9Y-112.1
X147.0Y-111.0
X147.0Y-129.0
X147.005Y-121.95
X147.7Y-98.1
X147.7Y-109.0
X147.7Y-128.2
X147.86Y-84.548
X147.9Y-127.1
X148.0Y-115.8
X148.0Y-119.8
X148.0Y-120.6
X148.033Y-117.028
X148.1Y-118.1
X148.2Y-88.6
X148.3Y-121.5
X148.3Y-125.3
X148.7Y-83.0
X148.7Y-128.5
X149.0Y-105.0
X149.46Y-84.54
X149.6Y-107.0
X149.7Y-118.8
X149.7Y-119.2
X149.7Y-120.8
X149.7Y-121.2
X149.9Y-123.1
X150.0Y-102.0
X150.1Y-85.9
X150.1Y-121.2
X150.2Y-112.2
X150.3Y-83.0
X150.3Y-115.2
X150.3Y-121.6
X150.3Y-125.4
X150.5Y-106.9
X150.641Y-116.507
X150.663Y-118.009
X150.663Y-119.488
X150.7Y-123.0
X150.9Y-106.4
X150.9Y-114.2
X150.9Y-121.2
X151.0Y-100.0
X151.051Y-84.549
X151.2Y-86.9
X151.3Y-121.2
X151.4Y-114.7
X151.5Y-112.2
X151.5Y-122.8
X151.5Y-125.2
X151.5Y-126.2
X151.6Y-107.1
X151.6Y-108.9
X151.7Y-121.2
X151.9Y-88.6
X152.0Y-98.0
X152.1Y-121.2
X152.2Y-85.9
X152.434Y-118.02
X152.446Y-119.488
X152.5Y-121.2
X152.5Y-126.043
X152.535Y-116.529
X152.6Y-100.2
X152.7Y-122.8
X152.7Y-125.2
X152.9Y-121.2
X153.0Y-84.0
X153.1Y-112.2
X153.1Y-115.2
X153.103Y-125.644
X153.125Y-114.1
X153.3Y-101.0
X153.3Y-121.2
X153.4Y-99.7
X153.97Y-119.477
X153.992Y-118.065
X154.0Y-100.0
X154.0Y-106.5
X154.048Y-116.563
X154.1Y-115.6
X154.3Y-122.8
X154.3Y-125.2
X154.4Y-109.4
X154.7Y-115.2
X154.7Y-128.7
X154.9Y-111.5
X154.9Y-121.2
X155.0Y-85.0
X155.0Y-98.0
X155.0Y-106.6
X155.1Y-108.4
X155.2Y-104.2
X155.2Y-107.7
X155.325Y-100.375
X155.468Y-114.147
X155.7Y-116.6
X155.7Y-119.0
X155.7Y-119.4
X155.7Y-126.3
X155.7Y-128.7
X155.8Y-102.6
X155.8Y-104.9
X155.8Y-111.4
X156.0Y-96.0
X156.025Y-100.375
X156.3Y-118.3
X156.45Y-105.15
X156.5Y-84.8
X156.5Y-89.7
X156.5Y-120.6
X156.617Y-115.632
X156.7Y-125.3
X156.9Y-121.9
X156.9Y-122.6
X157.0Y-92.0
X157.0Y-94.0
X157.0Y-118.3
X157.06Y-116.508
X157.1Y-105.6
X157.1Y-119.3
X157.12Y-106.714
X157.2Y-97.9
X157.342Y-104.962
X157.35Y-104.25
X157.35Y-107.9
X157.35Y-108.75
X157.364Y-103.25
X157.5Y-84.8
X157.5Y-89.7
X157.5Y-124.2
X157.7Y-116.5
X157.7Y-128.9
X157.75Y-111.75
X157.8Y-98.8
X157.8Y-100.8
X158.2Y-120.6
X158.2Y-122.3
X158.2Y-123.23
X158.2Y-125.01
X158.2Y-125.9
X158.3Y-84.8
X158.3Y-121.3
X158.4Y-89.8
X158.4Y-116.5
X158.4Y-118.3
X158.421Y-112.6
X158.6Y-127.4
X158.775Y-114.5
X158.9Y-110.4
X158.9Y-120.6
X159.0Y-96.0
X159.2Y-89.8
X159.2Y-116.5
X159.2Y-118.3
X159.35Y-84.6
X159.7Y-120.2
X159.75Y-94.0
X159.8Y-110.3
X159.8Y-127.4
X159.85Y-104.25
X159.908Y-105.938
X159.916Y-107.794
X160.0Y-84.0
X160.0Y-93.0
X160.0Y-116.5
X160.0Y-118.3
X160.2Y-111.4
X160.2Y-123.23
X160.2Y-124.12
X160.2Y-125.01
X160.2Y-125.9
X160.4Y-84.8
X160.425Y-113.55
X160.512Y-101.612
X160.7Y-116.5
X160.7Y-119.0
X160.7Y-128.9
X160.9Y-111.0
X161.0Y-83.0
X161.2Y-101.7
X161.2Y-118.3
X161.2Y-122.2
X161.36Y-116.261
X161.4Y-120.2
X161.433Y-94.133
X161.6Y-93.2
X161.618Y-104.228
X161.65Y-114.275
X161.652Y-107.285
X161.695Y-105.999
X161.855Y-110.11
X161.984Y-115.955
X162.0Y-118.1
X162.1Y-94.9
X162.7Y-110.9
X162.7Y-117.6
X162.8Y-115.8
X162.8Y-122.8
X162.8Y-123.6
X162.8Y-124.4
X162.8Y-125.2
X162.8Y-126.0
X162.8Y-126.8
X162.8Y-127.6
X162.8Y-128.4
X162.8Y-129.1
X162.85Y-101.7
X163.1Y-118.2
X163.3Y-107.3
X163.327Y-105.999
X163.35Y-95.95
X163.35Y-104.25
X163.398Y-120.2
X163.398Y-122.2
X163.4Y-110.9
X163.478Y-94.522
X163.6Y-115.8
X163.6Y-117.6
X163.9Y-114.9
X164.0Y-119.5
X164.2Y-118.4
X164.236Y-120.2
X164.236Y-122.2
X164.346Y-96.954
X164.354Y-110.11
X164.4Y-115.8
X164.5Y-101.8
X164.561Y-88.839
X164.7Y-89.8
X164.8Y-88.2
X164.8Y-114.8
X164.8Y-119.3
X165.0Y-90.9
X165.073Y-120.2
X165.073Y-122.2
X165.5Y-91.4
X165.6Y-115.2
X165.637Y-118.962
X165.821Y-104.74
X165.9Y-113.8
X165.911Y-120.2
X165.911Y-122.2
X166.0Y-103.1
X166.0Y-109.4
X166.25Y-92.15
X166.261Y-98.961
X166.4Y-103.7
X166.7Y-92.6
X166.749Y-120.2
X166.749Y-122.2
X166.75Y-101.0
X166.9Y-106.5
X166.9Y-107.1
X166.9Y-110.3
X167.37Y-104.054
X167.587Y-120.2
X167.587Y-122.2
X167.595Y-114.377
X167.75Y-93.65
X168.0Y-99.25
X168.2Y-94.1
X168.237Y-114.337
X168.424Y-120.2
X168.424Y-122.2
X168.8Y-111.3
X168.9Y-94.9
X169.2Y-115.1
X169.262Y-120.2
X169.262Y-122.2
X169.4Y-95.3
X169.7Y-111.3
X170.0Y-114.9
X170.1Y-113.1
X170.1Y-113.9
X170.1Y-120.2
X170.1Y-122.2
X170.2Y-118.4
X170.2Y-119.3
X170.4Y-95.6
X170.5Y-110.0
X170.5Y-112.25
X170.7Y-114.9
X170.8Y-110.8
X171.0Y-94.5
X171.0Y-122.0
X171.25Y-113.75
X171.35Y-104.95
X171.4Y-103.4
X171.4Y-104.1
X171.4Y-105.6
X171.4Y-114.9
X171.5Y-116.8
X171.55Y-95.85
X171.58Y-111.02
X171.7Y-121.5
X171.95Y-100.65
X172.0Y-122.1
X172.1Y-120.8
X172.149Y-95.451
X172.2Y-117.6
X172.2Y-118.4
X172.2Y-119.2
X172.262Y-116.9
X172.8Y-122.1
X173.0Y-109.75
X173.08Y-111.02
X173.092Y-114.9
X173.092Y-116.9
X173.25Y-120.5
X173.6Y-122.1
X173.7Y-101.4
X173.7Y-107.8
X173.7Y-108.9
X173.75Y-113.75
X173.789Y-100.289
X173.921Y-114.9
X174.3Y-117.9
X174.3Y-119.7
X174.3Y-120.5
X174.3Y-121.3
X174.3Y-122.0
X174.75Y-114.9
X175.2Y-109.9
X175.568Y-81.468
X175.6Y-115.1
X175.8Y-102.9
X175.845Y-106.345
X176.1Y-104.1
X176.1Y-105.2
X176.2Y-115.6
X176.232Y-82.132
X176.25Y-114.0
X176.395Y-120.441
X176.4Y-117.8
X176.4Y-119.7
X176.4Y-121.2
X176.5Y-83.9
X176.5Y-116.3
X176.619Y-100.27
X176.8Y-109.2
X176.8Y-110.2
X177.0Y-122.0
X177.3Y-87.1
X177.5Y-102.25
X177.5Y-105.5
X177.6Y-95.2
X177.7Y-122.0
X177.856Y-113.868
X178.0Y-117.25
X178.1Y-108.9
X178.16Y-100.308
X178.25Y-120.5
X178.255Y-84.155
X178.3Y-93.9
X178.5Y-122.0
X178.528Y-115.027
X178.6Y-97.2
X178.831Y-94.969
X178.919Y-84.819
X179.3Y-122.0
X179.347Y-99.372
X179.353Y-107.99
X179.379Y-101.213
X179.4Y-109.8
X179.5Y-104.25
X179.5Y-107.0
X179.6Y-86.3
X179.7Y-83.5
X179.7Y-98.6
X179.8Y-92.9
X179.8Y-114.0
X180.0Y-118.5
X180.1Y-122.0
X180.2Y-95.6
X180.3Y-85.8
X180.3Y-94.0
T2
X166.162Y-115.9
X166.162Y-117.0
X166.162Y-118.1
X167.262Y-115.9
X167.262Y-117.0
X167.262Y-118.1
X168.362Y-115.9
X168.362Y-117.0
X168.362Y-118.1
T3
X177.45Y-122.775
T5
X166.964Y-85.308
X168.76Y-87.104
X169.658Y-84.41
X170.556Y-88.9
X171.455Y-86.206
X172.353Y-90.696
X173.251Y-88.002
X174.149Y-92.492
X175.047Y-89.798
X176.843Y-91.594
T6
X158.49Y-92.276
X159.925Y-90.841
X168.085Y-101.872
X169.521Y-100.436
T7
X163.125Y-86.135
X174.226Y-97.237
T4
X174.63Y-100.28G85X175.73Y-100.28
G05
X174.63Y-108.92G85X175.73Y-108.92
G05
X179.06Y-100.28G85X179.66Y-100.28
G05
X179.06Y-108.92G85X179.66Y-108.92
G05
T0
M30
