G04 #@! TF.GenerationSoftware,KiCad,Pcbnew,(6.0.9)*
G04 #@! TF.CreationDate,2022-11-24T21:16:47+01:00*
G04 #@! TF.ProjectId,repeat-hw,72657065-6174-42d6-9877-2e6b69636164,rev?*
G04 #@! TF.SameCoordinates,Original*
G04 #@! TF.FileFunction,Paste,Top*
G04 #@! TF.FilePolarity,Positive*
%FSLAX46Y46*%
G04 Gerber Fmt 4.6, Leading zero omitted, Abs format (unit mm)*
G04 Created by KiCad (PCBNEW (6.0.9)) date 2022-11-24 21:16:47*
%MOMM*%
%LPD*%
G01*
G04 APERTURE LIST*
G04 Aperture macros list*
%AMRoundRect*
0 Rectangle with rounded corners*
0 $1 Rounding radius*
0 $2 $3 $4 $5 $6 $7 $8 $9 X,Y pos of 4 corners*
0 Add a 4 corners polygon primitive as box body*
4,1,4,$2,$3,$4,$5,$6,$7,$8,$9,$2,$3,0*
0 Add four circle primitives for the rounded corners*
1,1,$1+$1,$2,$3*
1,1,$1+$1,$4,$5*
1,1,$1+$1,$6,$7*
1,1,$1+$1,$8,$9*
0 Add four rect primitives between the rounded corners*
20,1,$1+$1,$2,$3,$4,$5,0*
20,1,$1+$1,$4,$5,$6,$7,0*
20,1,$1+$1,$6,$7,$8,$9,0*
20,1,$1+$1,$8,$9,$2,$3,0*%
G04 Aperture macros list end*
%ADD10C,0.400000*%
%ADD11R,2.200000X2.000000*%
%ADD12C,0.250000*%
%ADD13C,0.200000*%
%ADD14RoundRect,0.225000X0.250000X-0.225000X0.250000X0.225000X-0.250000X0.225000X-0.250000X-0.225000X0*%
%ADD15RoundRect,0.135000X0.185000X-0.135000X0.185000X0.135000X-0.185000X0.135000X-0.185000X-0.135000X0*%
%ADD16R,1.500000X2.400000*%
%ADD17R,1.500000X1.050000*%
%ADD18RoundRect,0.135000X0.035355X-0.226274X0.226274X-0.035355X-0.035355X0.226274X-0.226274X0.035355X0*%
%ADD19RoundRect,0.140000X-0.219203X-0.021213X-0.021213X-0.219203X0.219203X0.021213X0.021213X0.219203X0*%
%ADD20RoundRect,0.140000X0.140000X0.170000X-0.140000X0.170000X-0.140000X-0.170000X0.140000X-0.170000X0*%
%ADD21RoundRect,0.135000X-0.035355X0.226274X-0.226274X0.035355X0.035355X-0.226274X0.226274X-0.035355X0*%
%ADD22RoundRect,0.150000X-0.256326X-0.468458X0.468458X0.256326X0.256326X0.468458X-0.468458X-0.256326X0*%
%ADD23RoundRect,0.218750X-0.114905X0.424264X-0.424264X0.114905X0.114905X-0.424264X0.424264X-0.114905X0*%
%ADD24RoundRect,0.140000X-0.170000X0.140000X-0.170000X-0.140000X0.170000X-0.140000X0.170000X0.140000X0*%
%ADD25RoundRect,0.140000X-0.140000X-0.170000X0.140000X-0.170000X0.140000X0.170000X-0.140000X0.170000X0*%
%ADD26RoundRect,0.135000X-0.135000X-0.185000X0.135000X-0.185000X0.135000X0.185000X-0.135000X0.185000X0*%
%ADD27RoundRect,0.225000X-0.250000X0.225000X-0.250000X-0.225000X0.250000X-0.225000X0.250000X0.225000X0*%
%ADD28RoundRect,0.250000X0.650000X-0.325000X0.650000X0.325000X-0.650000X0.325000X-0.650000X-0.325000X0*%
%ADD29RoundRect,0.225000X-0.225000X-0.250000X0.225000X-0.250000X0.225000X0.250000X-0.225000X0.250000X0*%
%ADD30RoundRect,0.140000X0.170000X-0.140000X0.170000X0.140000X-0.170000X0.140000X-0.170000X-0.140000X0*%
%ADD31R,1.200000X0.900000*%
%ADD32R,0.640000X2.000000*%
%ADD33RoundRect,0.135000X-0.185000X0.135000X-0.185000X-0.135000X0.185000X-0.135000X0.185000X0.135000X0*%
%ADD34RoundRect,0.150000X-0.150000X0.587500X-0.150000X-0.587500X0.150000X-0.587500X0.150000X0.587500X0*%
%ADD35RoundRect,0.140000X0.219203X0.021213X0.021213X0.219203X-0.219203X-0.021213X-0.021213X-0.219203X0*%
%ADD36R,0.500000X0.500000*%
%ADD37R,1.150000X0.300000*%
%ADD38RoundRect,0.250000X-0.285000X0.285000X-0.285000X-0.285000X0.285000X-0.285000X0.285000X0.285000X0*%
%ADD39RoundRect,0.062500X-0.062500X0.337500X-0.062500X-0.337500X0.062500X-0.337500X0.062500X0.337500X0*%
%ADD40RoundRect,0.062500X-0.337500X0.062500X-0.337500X-0.062500X0.337500X-0.062500X0.337500X0.062500X0*%
%ADD41RoundRect,0.218750X0.256250X-0.218750X0.256250X0.218750X-0.256250X0.218750X-0.256250X-0.218750X0*%
%ADD42O,0.300000X0.950000*%
%ADD43O,0.950000X0.300000*%
%ADD44RoundRect,0.250000X-0.550000X1.250000X-0.550000X-1.250000X0.550000X-1.250000X0.550000X1.250000X0*%
%ADD45RoundRect,0.135000X0.135000X0.185000X-0.135000X0.185000X-0.135000X-0.185000X0.135000X-0.185000X0*%
%ADD46R,1.000000X1.050000*%
%ADD47R,1.050000X2.200000*%
%ADD48RoundRect,0.225000X0.017678X-0.335876X0.335876X-0.017678X-0.017678X0.335876X-0.335876X0.017678X0*%
%ADD49RoundRect,0.250000X0.325000X0.650000X-0.325000X0.650000X-0.325000X-0.650000X0.325000X-0.650000X0*%
%ADD50RoundRect,0.250000X0.555000X-0.435000X0.555000X0.435000X-0.555000X0.435000X-0.555000X-0.435000X0*%
%ADD51RoundRect,0.125000X0.125000X-0.262500X0.125000X0.262500X-0.125000X0.262500X-0.125000X-0.262500X0*%
%ADD52RoundRect,0.127000X-0.508000X0.888000X-0.508000X-0.888000X0.508000X-0.888000X0.508000X0.888000X0*%
%ADD53RoundRect,0.140000X-0.021213X0.219203X-0.219203X0.021213X0.021213X-0.219203X0.219203X-0.021213X0*%
%ADD54R,1.400000X1.200000*%
%ADD55R,1.500000X2.000000*%
%ADD56R,3.800000X2.000000*%
%ADD57R,1.700000X1.900000*%
%ADD58R,2.400000X0.600000*%
%ADD59R,1.600000X1.440000*%
%ADD60RoundRect,0.150000X0.150000X-0.587500X0.150000X0.587500X-0.150000X0.587500X-0.150000X-0.587500X0*%
%ADD61R,1.200000X1.400000*%
%ADD62R,0.580000X0.500000*%
%ADD63R,0.800000X0.750000*%
%ADD64RoundRect,0.150000X-0.512500X-0.150000X0.512500X-0.150000X0.512500X0.150000X-0.512500X0.150000X0*%
%ADD65R,0.500000X0.580000*%
%ADD66R,0.750000X0.800000*%
%ADD67RoundRect,0.250000X0.335000X0.335000X-0.335000X0.335000X-0.335000X-0.335000X0.335000X-0.335000X0*%
%ADD68RoundRect,0.075000X0.337500X0.075000X-0.337500X0.075000X-0.337500X-0.075000X0.337500X-0.075000X0*%
%ADD69RoundRect,0.075000X0.075000X0.337500X-0.075000X0.337500X-0.075000X-0.337500X0.075000X-0.337500X0*%
%ADD70RoundRect,0.140000X0.021213X-0.219203X0.219203X-0.021213X-0.021213X0.219203X-0.219203X0.021213X0*%
G04 APERTURE END LIST*
G36*
X139600000Y-83800000D02*
G01*
X140700000Y-83800000D01*
X140700000Y-82700000D01*
X139600000Y-82700000D01*
X139600000Y-83800000D01*
G37*
G36*
X139600000Y-85100000D02*
G01*
X140700000Y-85100000D01*
X140700000Y-84000000D01*
X139600000Y-84000000D01*
X139600000Y-85100000D01*
G37*
G36*
X140900000Y-85100000D02*
G01*
X142000000Y-85100000D01*
X142000000Y-84000000D01*
X140900000Y-84000000D01*
X140900000Y-85100000D01*
G37*
G36*
X140900000Y-83800000D02*
G01*
X142000000Y-83800000D01*
X142000000Y-82700000D01*
X140900000Y-82700000D01*
X140900000Y-83800000D01*
G37*
D10*
X155700000Y-121600000D03*
D11*
X154000000Y-117200000D03*
D10*
X155700000Y-115200000D03*
D11*
X151400000Y-117200000D03*
X151400000Y-119625000D03*
D10*
X149300000Y-121600000D03*
D11*
X154000000Y-119625000D03*
D10*
X149300000Y-115200000D03*
D12*
X150300000Y-115200000D03*
X151900000Y-115200000D03*
X152300000Y-115200000D03*
X152700000Y-115200000D03*
X153100000Y-115200000D03*
X153500000Y-115200000D03*
X153900000Y-115200000D03*
X154300000Y-115200000D03*
X154700000Y-115200000D03*
X149300000Y-119400000D03*
X155700000Y-119400000D03*
X149700000Y-119600000D03*
X149300000Y-119800000D03*
X155700000Y-119800000D03*
X149700000Y-120000000D03*
X149300000Y-120200000D03*
X155700000Y-120200000D03*
X149700000Y-120400000D03*
X149300000Y-120600000D03*
X155700000Y-120600000D03*
X149700000Y-120800000D03*
X149300000Y-121000000D03*
X155700000Y-121000000D03*
X149700000Y-121200000D03*
X150100000Y-121200000D03*
X150500000Y-121200000D03*
X150900000Y-121200000D03*
X151300000Y-121200000D03*
X151700000Y-121200000D03*
X152100000Y-121200000D03*
X152500000Y-121200000D03*
X152900000Y-121200000D03*
X153300000Y-121200000D03*
X153700000Y-121200000D03*
X154100000Y-121200000D03*
X154500000Y-121200000D03*
X154900000Y-121200000D03*
X155300000Y-121200000D03*
D13*
X149900000Y-121600000D03*
D12*
X150300000Y-121600000D03*
X150700000Y-121600000D03*
X151100000Y-121600000D03*
X151500000Y-121600000D03*
X151900000Y-121600000D03*
X152300000Y-121600000D03*
X152700000Y-121600000D03*
X153100000Y-121600000D03*
X153500000Y-121600000D03*
X153900000Y-121600000D03*
X154300000Y-121600000D03*
X154700000Y-121600000D03*
X155100000Y-121600000D03*
X149700000Y-115600000D03*
X150100000Y-115600000D03*
X150500000Y-115600000D03*
X150900000Y-115600000D03*
X151300000Y-115600000D03*
X151700000Y-115600000D03*
X152100000Y-115600000D03*
X152500000Y-115600000D03*
X152900000Y-115600000D03*
X153300000Y-115600000D03*
X153700000Y-115600000D03*
X154100000Y-115600000D03*
X154500000Y-115600000D03*
X154900000Y-115600000D03*
X155300000Y-115600000D03*
X149300000Y-115800000D03*
X155700000Y-115800000D03*
X149700000Y-116000000D03*
X149300000Y-116200000D03*
X155700000Y-116200000D03*
X149700000Y-116400000D03*
X149300000Y-116600000D03*
X155700000Y-116600000D03*
X149700000Y-116800000D03*
X149300000Y-117000000D03*
X155700000Y-117000000D03*
X149700000Y-117200000D03*
X149300000Y-117400000D03*
X155700000Y-117400000D03*
X149700000Y-117600000D03*
X149300000Y-117800000D03*
X155700000Y-117800000D03*
X149700000Y-118000000D03*
X149300000Y-118200000D03*
X155700000Y-118200000D03*
X149700000Y-118400000D03*
X149300000Y-118600000D03*
X155700000Y-118600000D03*
X149700000Y-118800000D03*
X149300000Y-119000000D03*
X155700000Y-119000000D03*
X149700000Y-119200000D03*
D14*
X156800000Y-100375000D03*
X156800000Y-98825000D03*
D15*
X142600000Y-112210000D03*
X142600000Y-111190000D03*
D16*
X135800000Y-85580000D03*
D17*
X135800000Y-83205000D03*
D15*
X143650000Y-114060000D03*
X143650000Y-113040000D03*
D18*
X160971466Y-96021427D03*
X161692714Y-95300179D03*
D19*
X178523940Y-85214752D03*
X179202762Y-85893574D03*
D20*
X152580000Y-106360000D03*
X151620000Y-106360000D03*
D21*
X165877638Y-96232412D03*
X165156390Y-96953660D03*
D22*
X167123915Y-94632583D03*
X167795666Y-95304334D03*
X168467417Y-95976085D03*
X170076085Y-94367417D03*
X169404334Y-93695666D03*
X168732583Y-93023915D03*
D23*
X175301301Y-83742202D03*
X173798699Y-85244804D03*
D24*
X150500000Y-123520000D03*
X150500000Y-124480000D03*
D25*
X142720000Y-121600000D03*
X143680000Y-121600000D03*
D26*
X161590000Y-92200000D03*
X162610000Y-92200000D03*
D27*
X133000000Y-120825000D03*
X133000000Y-122375000D03*
D26*
X146620000Y-106100000D03*
X147640000Y-106100000D03*
D14*
X149460000Y-83815000D03*
X149460000Y-82265000D03*
D28*
X135800000Y-110695000D03*
X135800000Y-107745000D03*
D29*
X137875000Y-117600000D03*
X139425000Y-117600000D03*
D20*
X147380000Y-119800000D03*
X146420000Y-119800000D03*
D30*
X156150000Y-113230000D03*
X156150000Y-112270000D03*
D20*
X147380000Y-115925000D03*
X146420000Y-115925000D03*
D31*
X133300000Y-86530000D03*
X133300000Y-83230000D03*
D24*
X152700000Y-123520000D03*
X152700000Y-124480000D03*
D18*
X164378573Y-99428533D03*
X165099821Y-98707285D03*
D32*
X146630000Y-98090000D03*
X149170000Y-98090000D03*
X149170000Y-88590000D03*
X146630000Y-88590000D03*
D18*
X163671466Y-98721427D03*
X164392714Y-98000179D03*
D20*
X159680000Y-117420000D03*
X158720000Y-117420000D03*
D30*
X148900000Y-108630000D03*
X148900000Y-107670000D03*
D24*
X142600000Y-113110000D03*
X142600000Y-114070000D03*
D30*
X155150000Y-113230000D03*
X155150000Y-112270000D03*
D24*
X131700000Y-121120000D03*
X131700000Y-122080000D03*
D29*
X135025000Y-81300000D03*
X136575000Y-81300000D03*
D25*
X147990000Y-85750000D03*
X148950000Y-85750000D03*
D30*
X149500000Y-112380000D03*
X149500000Y-111420000D03*
D19*
X177958255Y-83093432D03*
X178637077Y-83772254D03*
D20*
X178780000Y-110500000D03*
X177820000Y-110500000D03*
D29*
X137897500Y-119300000D03*
X139447500Y-119300000D03*
D33*
X154340000Y-103150000D03*
X154340000Y-104170000D03*
D34*
X145850000Y-109662500D03*
X143950000Y-109662500D03*
X144900000Y-111537500D03*
D20*
X167587500Y-113820000D03*
X166627500Y-113820000D03*
D24*
X143000000Y-119620000D03*
X143000000Y-120580000D03*
X154300000Y-123520000D03*
X154300000Y-124480000D03*
D14*
X148250000Y-112375000D03*
X148250000Y-110825000D03*
D30*
X172262500Y-115900000D03*
X172262500Y-114940000D03*
X171100000Y-119080000D03*
X171100000Y-118120000D03*
D25*
X155220000Y-106000000D03*
X156180000Y-106000000D03*
D35*
X177293574Y-82428751D03*
X176614752Y-81749929D03*
D15*
X142600000Y-108360000D03*
X142600000Y-107340000D03*
D28*
X157000000Y-88675000D03*
X157000000Y-85725000D03*
D27*
X166900000Y-107825000D03*
X166900000Y-109375000D03*
D14*
X150750000Y-112975000D03*
X150750000Y-111425000D03*
D35*
X175172254Y-81863066D03*
X174493432Y-81184244D03*
D15*
X146850000Y-86770000D03*
X146850000Y-85750000D03*
D20*
X171362500Y-115900000D03*
X170402500Y-115900000D03*
D25*
X166420000Y-105800000D03*
X167380000Y-105800000D03*
D36*
X174035000Y-111020000D03*
X176235000Y-111020000D03*
D37*
X174615000Y-107950000D03*
X174615000Y-107150000D03*
X174615000Y-105850000D03*
X174615000Y-104850000D03*
X174615000Y-104350000D03*
X174615000Y-103350000D03*
X174615000Y-102050000D03*
X174615000Y-101250000D03*
X174615000Y-101550000D03*
X174615000Y-102350000D03*
X174615000Y-102850000D03*
X174615000Y-103850000D03*
X174615000Y-105350000D03*
X174615000Y-106350000D03*
X174615000Y-106850000D03*
X174615000Y-107650000D03*
D20*
X156780000Y-104250000D03*
X155820000Y-104250000D03*
D15*
X173000000Y-102410000D03*
X173000000Y-101390000D03*
D21*
X166867588Y-97222361D03*
X166146340Y-97943609D03*
D38*
X162260000Y-106660000D03*
X162260000Y-105340000D03*
X162260000Y-104020000D03*
X163580000Y-105340000D03*
X163580000Y-104020000D03*
X159620000Y-106660000D03*
X159620000Y-107980000D03*
X160940000Y-107980000D03*
X160940000Y-105340000D03*
X163580000Y-107980000D03*
X163580000Y-106660000D03*
X160940000Y-106660000D03*
X162260000Y-107980000D03*
X159620000Y-105340000D03*
X160940000Y-104020000D03*
X159620000Y-104020000D03*
D39*
X164350000Y-102550000D03*
X163850000Y-102550000D03*
X163350000Y-102550000D03*
X162850000Y-102550000D03*
X162350000Y-102550000D03*
X161850000Y-102550000D03*
X161350000Y-102550000D03*
X160850000Y-102550000D03*
X160350000Y-102550000D03*
X159850000Y-102550000D03*
X159350000Y-102550000D03*
X158850000Y-102550000D03*
D40*
X158150000Y-103250000D03*
X158150000Y-103750000D03*
X158150000Y-104250000D03*
X158150000Y-104750000D03*
X158150000Y-105250000D03*
X158150000Y-105750000D03*
X158150000Y-106250000D03*
X158150000Y-106750000D03*
X158150000Y-107250000D03*
X158150000Y-107750000D03*
X158150000Y-108250000D03*
X158150000Y-108750000D03*
D39*
X158850000Y-109450000D03*
X159350000Y-109450000D03*
X159850000Y-109450000D03*
X160350000Y-109450000D03*
X160850000Y-109450000D03*
X161350000Y-109450000D03*
X161850000Y-109450000D03*
X162350000Y-109450000D03*
X162850000Y-109450000D03*
X163350000Y-109450000D03*
X163850000Y-109450000D03*
X164350000Y-109450000D03*
D40*
X165050000Y-108750000D03*
X165050000Y-108250000D03*
X165050000Y-107750000D03*
X165050000Y-107250000D03*
X165050000Y-106750000D03*
X165050000Y-106250000D03*
X165050000Y-105750000D03*
X165050000Y-105250000D03*
X165050000Y-104750000D03*
X165050000Y-104250000D03*
X165050000Y-103750000D03*
X165050000Y-103250000D03*
D20*
X156780000Y-108750000D03*
X155820000Y-108750000D03*
D15*
X159500000Y-100810000D03*
X159500000Y-99790000D03*
D36*
X134000000Y-110800000D03*
X131800000Y-110800000D03*
D41*
X158000000Y-115587500D03*
X158000000Y-114012500D03*
D42*
X139600000Y-86250000D03*
X140400000Y-86250000D03*
X141200000Y-86250000D03*
X142000000Y-86250000D03*
D43*
X143150000Y-85900000D03*
X143150000Y-85100000D03*
X143150000Y-84300000D03*
X143150000Y-83500000D03*
X143150000Y-82700000D03*
X143150000Y-81900000D03*
D42*
X142000000Y-81550000D03*
X141200000Y-81550000D03*
X140400000Y-81550000D03*
X139600000Y-81550000D03*
D43*
X138450000Y-81900000D03*
X138450000Y-82700000D03*
X138450000Y-83500000D03*
X138450000Y-84300000D03*
X138450000Y-85100000D03*
X138450000Y-85900000D03*
D15*
X143800000Y-116960000D03*
X143800000Y-115940000D03*
D20*
X156780000Y-107750000D03*
X155820000Y-107750000D03*
D27*
X155650000Y-123775000D03*
X155650000Y-125325000D03*
D25*
X147990000Y-86750000D03*
X148950000Y-86750000D03*
D44*
X134000000Y-113800000D03*
X134000000Y-118200000D03*
D24*
X157700000Y-117420000D03*
X157700000Y-118380000D03*
D45*
X145360000Y-85300000D03*
X144340000Y-85300000D03*
D25*
X166420000Y-104750000D03*
X167380000Y-104750000D03*
D27*
X149200000Y-123795000D03*
X149200000Y-125345000D03*
D30*
X160850000Y-115280000D03*
X160850000Y-114320000D03*
D26*
X177790000Y-111500000D03*
X178810000Y-111500000D03*
D23*
X176644804Y-85085705D03*
X175142202Y-86588307D03*
D20*
X145680000Y-84300000D03*
X144720000Y-84300000D03*
D46*
X159200000Y-125900000D03*
D47*
X160675000Y-127425000D03*
X157725000Y-127425000D03*
D29*
X132125000Y-109000000D03*
X133675000Y-109000000D03*
D27*
X145100000Y-116225000D03*
X145100000Y-117775000D03*
D24*
X142000000Y-117720000D03*
X142000000Y-118680000D03*
D48*
X178051992Y-94748008D03*
X179148008Y-93651992D03*
D49*
X179675000Y-97236789D03*
X176725000Y-97236789D03*
D30*
X159200000Y-123230000D03*
X159200000Y-122270000D03*
D33*
X158500000Y-99790000D03*
X158500000Y-100810000D03*
D28*
X159350000Y-88675000D03*
X159350000Y-85725000D03*
D50*
X144100000Y-126350000D03*
X146100000Y-124650000D03*
X144100000Y-124650000D03*
X146100000Y-126350000D03*
D51*
X143195000Y-128162500D03*
X144465000Y-128162500D03*
X145735000Y-128162500D03*
X147005000Y-128162500D03*
X147005000Y-122837500D03*
X145735000Y-122837500D03*
X144465000Y-122837500D03*
X143195000Y-122837500D03*
D24*
X164350000Y-110651151D03*
X164350000Y-111611151D03*
D52*
X133300000Y-88600000D03*
X135800000Y-88600000D03*
X138300000Y-88600000D03*
X140800000Y-88600000D03*
X143300000Y-88575000D03*
X143300000Y-105625000D03*
X140800000Y-105600000D03*
X138300000Y-105600000D03*
X135800000Y-105600000D03*
X133300000Y-105600000D03*
D41*
X153850000Y-112987500D03*
X153850000Y-111412500D03*
D29*
X165525000Y-111100000D03*
X167075000Y-111100000D03*
D30*
X142600000Y-110230000D03*
X142600000Y-109270000D03*
D14*
X147860000Y-83815000D03*
X147860000Y-82265000D03*
D20*
X156780000Y-103250000D03*
X155820000Y-103250000D03*
D24*
X161850000Y-110642283D03*
X161850000Y-111602283D03*
D20*
X164080000Y-116675000D03*
X163120000Y-116675000D03*
D53*
X160957837Y-94607727D03*
X160279015Y-95286549D03*
D54*
X150500000Y-109750000D03*
X152700000Y-109750000D03*
X152700000Y-108050000D03*
X150500000Y-108050000D03*
D22*
X164423915Y-91932583D03*
X165095666Y-92604334D03*
X165767417Y-93276085D03*
X167376085Y-91667417D03*
X166704334Y-90995666D03*
X166032583Y-90323915D03*
D25*
X151620000Y-100960000D03*
X152580000Y-100960000D03*
D53*
X165785715Y-99435605D03*
X165106893Y-100114427D03*
D19*
X175836935Y-82527747D03*
X176515757Y-83206569D03*
D35*
X177859259Y-84550071D03*
X177180437Y-83871249D03*
D23*
X177988307Y-86429208D03*
X176485705Y-87931810D03*
D26*
X144340000Y-83300000D03*
X145360000Y-83300000D03*
D14*
X152300000Y-112975000D03*
X152300000Y-111425000D03*
D55*
X139900000Y-121350000D03*
D56*
X137600000Y-127650000D03*
D55*
X137600000Y-121350000D03*
X135300000Y-121350000D03*
D24*
X142000000Y-119620000D03*
X142000000Y-120580000D03*
D26*
X170928016Y-101454277D03*
X171948016Y-101454277D03*
D57*
X138606000Y-112370000D03*
X140506000Y-112370000D03*
X138606000Y-110270000D03*
X140506000Y-110270000D03*
D58*
X139556000Y-113820000D03*
D59*
X140621000Y-107890000D03*
X138491000Y-107890000D03*
D24*
X154300000Y-107670000D03*
X154300000Y-108630000D03*
X143000000Y-117720000D03*
X143000000Y-118680000D03*
D15*
X153370000Y-86790000D03*
X153370000Y-85770000D03*
D53*
X165739411Y-88660589D03*
X165060589Y-89339411D03*
D24*
X160700000Y-117420000D03*
X160700000Y-118380000D03*
D60*
X177850000Y-115037500D03*
X179750000Y-115037500D03*
X178800000Y-113162500D03*
D20*
X159480000Y-98800000D03*
X158520000Y-98800000D03*
D15*
X157700000Y-120310000D03*
X157700000Y-119290000D03*
D35*
X179980580Y-85115757D03*
X179301758Y-84436935D03*
D32*
X153370000Y-88590000D03*
X150830000Y-88590000D03*
X150830000Y-98090000D03*
X153370000Y-98090000D03*
D15*
X179800000Y-111510000D03*
X179800000Y-110490000D03*
D33*
X148950000Y-99990000D03*
X148950000Y-101010000D03*
D25*
X171100000Y-120000000D03*
X172060000Y-120000000D03*
X168482500Y-113820000D03*
X169442500Y-113820000D03*
D20*
X159200000Y-124250000D03*
X158240000Y-124250000D03*
D61*
X152950000Y-104760000D03*
X152950000Y-102560000D03*
X151250000Y-102560000D03*
X151250000Y-104760000D03*
D20*
X147380000Y-117000000D03*
X146420000Y-117000000D03*
X147380000Y-118050000D03*
X146420000Y-118050000D03*
D18*
X161690657Y-96730636D03*
X162411905Y-96009388D03*
D34*
X148850000Y-102662500D03*
X146950000Y-102662500D03*
X147900000Y-104537500D03*
D25*
X175349999Y-121875001D03*
X176309999Y-121875001D03*
D14*
X159600000Y-115575000D03*
X159600000Y-114025000D03*
D62*
X160240000Y-121200000D03*
X162560000Y-121200000D03*
D63*
X162350000Y-122225000D03*
X160450000Y-120175000D03*
X160450000Y-122225000D03*
X162350000Y-120175000D03*
D64*
X170262500Y-103650000D03*
X170262500Y-104600000D03*
X170262500Y-105550000D03*
X172537500Y-105550000D03*
X172537500Y-104600000D03*
X172537500Y-103650000D03*
D45*
X147870000Y-100000000D03*
X146850000Y-100000000D03*
D19*
X175271249Y-80406426D03*
X175950071Y-81085248D03*
D65*
X175350000Y-119007204D03*
X175350000Y-116687204D03*
D66*
X176375000Y-118797204D03*
X176375000Y-116897204D03*
X174325000Y-118797204D03*
X174325000Y-116897204D03*
D25*
X158720000Y-119300000D03*
X159680000Y-119300000D03*
D20*
X147380000Y-120800000D03*
X146420000Y-120800000D03*
D21*
X163177639Y-93532412D03*
X162456391Y-94253660D03*
D23*
X173957798Y-82398699D03*
X172455196Y-83901301D03*
D53*
X171739411Y-94660589D03*
X171060589Y-95339411D03*
D67*
X166587500Y-116325000D03*
X167937500Y-117675000D03*
X167937500Y-116325000D03*
X166587500Y-117675000D03*
D68*
X169225000Y-117975000D03*
X169225000Y-117325000D03*
X169225000Y-116675000D03*
X169225000Y-116025000D03*
D69*
X168237500Y-115037500D03*
X167587500Y-115037500D03*
X166937500Y-115037500D03*
X166287500Y-115037500D03*
D68*
X165300000Y-116025000D03*
X165300000Y-116675000D03*
X165300000Y-117325000D03*
X165300000Y-117975000D03*
D69*
X166287500Y-118962500D03*
X166937500Y-118962500D03*
X167587500Y-118962500D03*
X168237500Y-118962500D03*
D25*
X146880000Y-101000000D03*
X147840000Y-101000000D03*
D33*
X173000000Y-106790000D03*
X173000000Y-107810000D03*
D24*
X151500000Y-123520000D03*
X151500000Y-124480000D03*
D14*
X151060000Y-83815000D03*
X151060000Y-82265000D03*
D30*
X175350000Y-120855000D03*
X175350000Y-119895000D03*
D70*
X179250539Y-95387940D03*
X179929361Y-94709118D03*
D21*
X164167588Y-94522361D03*
X163446340Y-95243609D03*
M02*
