M48
; DRILL file {KiCad (6.0.9)} date So 26. listopadu 2022, 18:32:47
; FORMAT={-:-/ absolute / inch / decimal}
; #@! TF.CreationDate,2022-11-26T18:32:47+01:00
; #@! TF.GenerationSoftware,Kicad,Pcbnew,(6.0.9)
; #@! TF.FileFunction,Plated,1,6,PTH
FMAT,2
INCH
; #@! TA.AperFunction,Plated,PTH,ViaDrill
T1C0.0079
; #@! TA.AperFunction,Plated,PTH,ComponentDrill
T2C0.0079
; #@! TA.AperFunction,Plated,PTH,ComponentDrill
T3C0.0118
; #@! TA.AperFunction,Plated,PTH,ComponentDrill
T4C0.0236
; #@! TA.AperFunction,Plated,PTH,ComponentDrill
T5C0.0354
; #@! TA.AperFunction,Plated,PTH,ComponentDrill
T6C0.0394
; #@! TA.AperFunction,Plated,PTH,ComponentDrill
T7C0.0630
%
G90
G05
T1
X5.1807Y-3.4189
X5.1827Y-3.3224
X5.185Y-4.8346
X5.187Y-4.7047
X5.1929Y-4.5236
X5.1969Y-4.4331
X5.1969Y-4.4803
X5.1969Y-4.5965
X5.2043Y-4.1565
X5.2067Y-4.9311
X5.2244Y-4.4567
X5.2244Y-4.5079
X5.2343Y-3.3327
X5.2343Y-3.3622
X5.2362Y-3.2295
X5.2362Y-4.8583
X5.2499Y-4.2133
X5.2598Y-4.2441
X5.2618Y-3.3484
X5.2618Y-3.378
X5.2657Y-5.0098
X5.2717Y-4.8189
X5.2819Y-3.1929
X5.2827Y-3.2232
X5.2953Y-4.2441
X5.297Y-4.1338
X5.2972Y-4.1899
X5.3189Y-4.2795
X5.3248Y-4.8917
X5.3346Y-4.5433
X5.3346Y-4.5709
X5.3346Y-4.5984
X5.3465Y-4.2795
X5.3642Y-4.9606
X5.374Y-4.2795
X5.3771Y-3.1655
X5.3777Y-3.2364
X5.3898Y-4.9331
X5.3928Y-4.1572
X5.3993Y-4.2414
X5.4035Y-3.2677
X5.4097Y-3.2009
X5.4114Y-3.3878
X5.4134Y-4.5768
X5.4154Y-3.3563
X5.4173Y-4.9055
X5.4173Y-4.9606
X5.4429Y-3.1594
X5.4449Y-4.9331
X5.4724Y-4.9606
X5.4961Y-3.1732
X5.5029Y-3.2874
X5.5042Y-3.3416
X5.5079Y-4.8386
X5.5217Y-4.9213
X5.5276Y-3.1732
X5.5436Y-3.3123
X5.5591Y-3.1732
X5.5591Y-4.7244
X5.5591Y-4.7756
X5.5591Y-4.8346
X5.5709Y-5.0295
X5.5807Y-4.9114
X5.5824Y-3.3426
X5.5841Y-3.2871
X5.5906Y-3.1732
X5.5906Y-4.6063
X5.6122Y-4.5138
X5.6171Y-4.8136
X5.622Y-4.5748
X5.6299Y-4.6083
X5.6376Y-5.0746
X5.6457Y-4.378
X5.6535Y-4.5118
X5.6575Y-4.7598
X5.6614Y-4.815
X5.6713Y-3.3189
X5.6732Y-3.2244
X5.6811Y-4.6378
X5.6827Y-4.5803
X5.6879Y-5.0746
X5.6988Y-3.4055
X5.7087Y-4.2126
X5.7244Y-4.2736
X5.7362Y-4.6063
X5.7362Y-4.7165
X5.7362Y-4.7559
X5.7376Y-4.8012
X5.7382Y-5.0746
X5.748Y-3.9764
X5.748Y-4.0945
X5.75Y-3.2795
X5.7598Y-3.3189
X5.7638Y-4.5315
X5.7776Y-4.2224
X5.7796Y-4.4606
X5.7796Y-4.4961
X5.7835Y-4.4134
X5.7874Y-4.3701
X5.7874Y-5.0787
X5.7876Y-4.8012
X5.815Y-3.8622
X5.815Y-4.2913
X5.815Y-5.0472
X5.8213Y-3.3287
X5.8228Y-5.0039
X5.8268Y-4.5591
X5.8268Y-4.7165
X5.8268Y-4.748
X5.8281Y-4.6074
X5.8307Y-4.6496
X5.8346Y-3.4882
X5.8386Y-4.7835
X5.8386Y-4.9331
X5.8543Y-3.2677
X5.8543Y-5.0591
X5.8661Y-4.1339
X5.8843Y-3.3283
X5.8898Y-4.2126
X5.8937Y-4.6772
X5.8937Y-4.6929
X5.8937Y-4.7559
X5.8937Y-4.7717
X5.9016Y-4.8465
X5.9055Y-4.0157
X5.9094Y-3.3819
X5.9094Y-4.7717
X5.9134Y-4.4173
X5.9173Y-3.2677
X5.9173Y-4.5354
X5.9173Y-4.7874
X5.9173Y-4.937
X5.9252Y-4.2087
X5.9291Y-4.8484
X5.9307Y-4.5869
X5.9316Y-4.646
X5.9316Y-4.7043
X5.9409Y-4.189
X5.9409Y-4.4961
X5.9409Y-4.7717
X5.9449Y-3.937
X5.9469Y-3.3287
X5.9528Y-3.4213
X5.9567Y-4.7717
X5.9606Y-4.5157
X5.9646Y-4.4173
X5.9646Y-4.9291
X5.9646Y-4.9685
X5.9685Y-4.2165
X5.9685Y-4.2874
X5.9685Y-4.8346
X5.9724Y-4.7717
X5.9803Y-3.4882
X5.9843Y-3.8583
X5.9882Y-4.7717
X5.9921Y-3.3819
X6.0014Y-4.6465
X6.0018Y-4.7043
X6.0039Y-4.7717
X6.0053Y-4.5878
X6.0079Y-3.9449
X6.008Y-4.9664
X6.0118Y-4.8346
X6.0118Y-4.9252
X6.0197Y-4.7717
X6.0236Y-3.3071
X6.0276Y-4.4173
X6.0276Y-4.5354
X6.0277Y-4.9466
X6.0285Y-4.4921
X6.0354Y-3.9764
X6.0354Y-4.7717
X6.0394Y-3.9252
X6.0618Y-4.7038
X6.0627Y-4.6482
X6.063Y-3.937
X6.063Y-4.1929
X6.0649Y-4.5891
X6.0669Y-4.5512
X6.0748Y-4.8346
X6.0748Y-4.9291
X6.0787Y-4.3071
X6.0906Y-4.5354
X6.0906Y-5.0669
X6.095Y-4.3863
X6.0984Y-4.7717
X6.1024Y-3.3465
X6.1024Y-3.8583
X6.1024Y-4.1969
X6.1063Y-4.2677
X6.1102Y-4.1024
X6.1102Y-4.2402
X6.1152Y-3.9518
X6.1208Y-4.494
X6.1299Y-4.5906
X6.1299Y-4.685
X6.1299Y-4.7008
X6.1299Y-4.9724
X6.1299Y-5.0669
X6.1339Y-4.0394
X6.1339Y-4.1299
X6.1358Y-4.3898
X6.1417Y-3.7795
X6.1427Y-3.9518
X6.1535Y-4.6575
X6.1594Y-4.1398
X6.1614Y-3.3386
X6.1614Y-3.5315
X6.1614Y-4.7402
X6.166Y-4.5525
X6.1693Y-4.9331
X6.1772Y-4.7992
X6.1772Y-4.8268
X6.1811Y-3.622
X6.1811Y-3.7008
X6.1811Y-4.6575
X6.1834Y-4.5869
X6.1844Y-4.2028
X6.185Y-4.1575
X6.185Y-4.6969
X6.189Y-3.8543
X6.1946Y-4.1324
X6.1949Y-4.1043
X6.1949Y-4.2539
X6.1949Y-4.2815
X6.1954Y-4.065
X6.2008Y-3.3386
X6.2008Y-3.5315
X6.2008Y-4.8898
X6.2087Y-4.5866
X6.2087Y-5.0748
X6.2106Y-4.3996
X6.2126Y-3.8898
X6.2126Y-3.9685
X6.2283Y-4.748
X6.2283Y-4.815
X6.2283Y-4.8516
X6.2283Y-4.9217
X6.2283Y-4.9567
X6.2323Y-3.3386
X6.2323Y-4.7756
X6.2362Y-3.5354
X6.2362Y-4.5866
X6.2362Y-4.6575
X6.2441Y-5.0118
X6.251Y-4.5079
X6.252Y-4.4291
X6.2559Y-4.3465
X6.2559Y-4.748
X6.2598Y-3.7795
X6.2677Y-3.5354
X6.2677Y-4.5866
X6.2677Y-4.6575
X6.2736Y-3.3307
X6.2874Y-4.7323
X6.2894Y-3.7008
X6.2913Y-4.3425
X6.2913Y-5.0118
X6.2933Y-4.1043
X6.2956Y-4.1708
X6.2959Y-4.2438
X6.2992Y-3.3071
X6.2992Y-3.6614
X6.2992Y-4.5866
X6.2992Y-4.6575
X6.3071Y-4.3898
X6.3071Y-4.8516
X6.3071Y-4.8866
X6.3071Y-4.9217
X6.3071Y-4.9567
X6.315Y-3.3386
X6.3159Y-4.4705
X6.3194Y-4.0005
X6.3268Y-4.5866
X6.3268Y-4.6831
X6.3268Y-5.0748
X6.3346Y-4.3701
X6.3386Y-3.2677
X6.3465Y-4.0039
X6.3465Y-4.6575
X6.3465Y-4.811
X6.3528Y-4.5772
X6.3543Y-4.7323
X6.3556Y-3.706
X6.3622Y-3.6693
X6.3629Y-4.1035
X6.3642Y-4.499
X6.3643Y-4.2238
X6.3659Y-4.1732
X6.3723Y-4.3351
X6.3773Y-4.5652
X6.378Y-4.6496
X6.3819Y-3.7362
X6.4055Y-4.3661
X6.4055Y-4.6299
X6.4094Y-4.5599
X6.4094Y-4.8346
X6.4094Y-4.8661
X6.4094Y-4.8976
X6.4094Y-4.9291
X6.4094Y-4.9606
X6.4094Y-4.9921
X6.4094Y-5.0236
X6.4094Y-5.0551
X6.4094Y-5.0827
X6.4114Y-4.0039
X6.4213Y-4.6535
X6.4291Y-4.2244
X6.4302Y-4.1732
X6.4311Y-3.7776
X6.4311Y-4.1043
X6.433Y-4.7323
X6.433Y-4.811
X6.4331Y-4.3661
X6.435Y-4.626
X6.4361Y-3.7214
X6.4397Y-4.5602
X6.4528Y-4.5236
X6.4567Y-4.7047
X6.4646Y-4.6614
X6.466Y-4.7323
X6.466Y-4.811
X6.4698Y-4.5598
X6.4703Y-3.8171
X6.4706Y-4.335
X6.4764Y-4.0079
X6.4788Y-3.4976
X6.4823Y-4.5217
X6.4843Y-3.5354
X6.4882Y-3.4724
X6.4882Y-4.6969
X6.4961Y-3.5787
X6.499Y-4.7323
X6.499Y-4.811
X6.5157Y-3.5984
X6.5212Y-4.6836
X6.5236Y-4.5295
X6.5237Y-4.1237
X6.5315Y-4.4803
X6.5319Y-4.7323
X6.5319Y-4.811
X6.5354Y-4.0591
X6.5354Y-4.3071
X6.5453Y-3.628
X6.5457Y-3.8961
X6.5512Y-4.0827
X6.563Y-3.6457
X6.5649Y-4.7323
X6.5649Y-4.811
X6.565Y-3.9764
X6.5709Y-4.1929
X6.5709Y-4.2165
X6.5709Y-4.3425
X6.5894Y-4.0966
X6.5979Y-4.7323
X6.5979Y-4.811
X6.5982Y-4.503
X6.6043Y-3.687
X6.6142Y-3.9075
X6.622Y-3.7047
X6.6235Y-4.5015
X6.6309Y-4.7323
X6.6309Y-4.811
X6.6457Y-4.3819
X6.6496Y-3.7362
X6.6614Y-4.5315
X6.6639Y-4.7323
X6.6639Y-4.811
X6.6693Y-3.752
X6.6811Y-4.3819
X6.6929Y-4.5236
X6.6969Y-4.4528
X6.6969Y-4.4843
X6.6969Y-4.7323
X6.6969Y-4.811
X6.7008Y-4.6614
X6.7008Y-4.6969
X6.7087Y-3.7638
X6.7126Y-4.3307
X6.7126Y-4.4193
X6.7205Y-4.5236
X6.7303Y-4.3563
X6.7323Y-3.7205
X6.7323Y-4.8031
X6.7421Y-4.4783
X6.7461Y-4.1319
X6.748Y-4.0709
X6.748Y-4.0984
X6.748Y-4.1575
X6.748Y-4.5236
X6.752Y-4.5984
X6.7539Y-3.7736
X6.7551Y-4.3709
X6.7598Y-4.7835
X6.7697Y-3.9626
X6.7717Y-4.8071
X6.7756Y-3.7579
X6.7756Y-4.7559
X6.7795Y-4.6299
X6.7795Y-4.6614
X6.7795Y-4.6929
X6.782Y-4.6024
X6.8031Y-4.8071
X6.811Y-4.3209
X6.8142Y-4.3709
X6.8146Y-4.5236
X6.8146Y-4.6024
X6.8209Y-4.7441
X6.8346Y-4.8071
X6.8386Y-3.9921
X6.8386Y-4.2441
X6.8386Y-4.2874
X6.8406Y-4.4783
X6.8421Y-3.9484
X6.8473Y-4.5236
X6.8622Y-4.6417
X6.8622Y-4.7126
X6.8622Y-4.7441
X6.8622Y-4.7756
X6.8622Y-4.8031
X6.8799Y-4.5236
X6.8976Y-4.3268
X6.9108Y-3.2087
X6.9134Y-4.5315
X6.9213Y-4.0512
X6.923Y-4.1868
X6.9331Y-4.0984
X6.9331Y-4.1417
X6.937Y-4.5512
X6.9383Y-3.2336
X6.939Y-4.4882
X6.9447Y-4.7418
X6.9449Y-4.6378
X6.9449Y-4.7126
X6.9449Y-4.7717
X6.9488Y-3.3031
X6.9488Y-4.5787
X6.9535Y-3.9476
X6.9606Y-4.2992
X6.9606Y-4.3386
X6.9685Y-4.8031
X6.9803Y-3.4291
X6.9882Y-4.0256
X6.9882Y-4.1535
X6.9921Y-3.748
X6.9961Y-4.8031
X7.0022Y-4.483
X7.0079Y-4.6161
X7.0118Y-4.2874
X7.0142Y-3.9492
X7.0177Y-4.7441
X7.0179Y-3.3132
X7.0197Y-3.6929
X7.0276Y-4.8031
X7.0287Y-4.5286
X7.0315Y-3.8268
X7.0406Y-3.7389
X7.0441Y-3.3393
X7.0591Y-4.8031
X7.0609Y-3.9123
X7.0612Y-4.2516
X7.0622Y-3.9848
X7.063Y-4.3228
X7.0669Y-4.1043
X7.0669Y-4.2126
X7.0709Y-3.3976
X7.0748Y-3.2874
X7.0748Y-3.8819
X7.0787Y-3.6575
X7.0787Y-4.4882
X7.0866Y-4.6654
X7.0906Y-4.8031
X7.0945Y-3.7638
X7.0984Y-3.378
X7.0984Y-3.7008
T2
X6.5418Y-4.563
X6.5418Y-4.6063
X6.5418Y-4.6496
X6.5851Y-4.563
X6.5851Y-4.6063
X6.5851Y-4.6496
X6.6284Y-4.563
X6.6284Y-4.6063
X6.6284Y-4.6496
T3
X6.9862Y-4.8337
T5
X6.5734Y-3.3586
X6.6441Y-3.4293
X6.6795Y-3.3232
X6.7148Y-3.5
X6.7502Y-3.3939
X6.7855Y-3.5707
X6.8209Y-3.4646
X6.8562Y-3.6414
X6.8916Y-3.5354
X6.9623Y-3.6061
T6
X6.2398Y-3.6329
X6.2963Y-3.5764
X6.6175Y-4.0107
X6.674Y-3.9542
T7
X6.4222Y-3.3912
X6.8593Y-3.8282
T4
G00X6.8752Y-3.948
M15
G01X6.9185Y-3.948
M16
G05
G00X6.8752Y-4.2882
M15
G01X6.9185Y-4.2882
M16
G05
G00X7.0496Y-3.948
M15
G01X7.0732Y-3.948
M16
G05
G00X7.0496Y-4.2882
M15
G01X7.0732Y-4.2882
M16
G05
T0
M30
