%TF.GenerationSoftware,KiCad,Pcbnew,(6.0.9)*%
%TF.CreationDate,2022-11-26T18:32:48+01:00*%
%TF.ProjectId,repeat-hw,72657065-6174-42d6-9877-2e6b69636164,rev?*%
%TF.SameCoordinates,Original*%
%TF.FileFunction,Drillmap*%
%TF.FilePolarity,Positive*%
%FSLAX45Y45*%
G04 Gerber Fmt 4.5, Leading zero omitted, Abs format (unit mm)*
G04 Created by KiCad (PCBNEW (6.0.9)) date 2022-11-26 18:32:48*
%MOMM*%
%LPD*%
G01*
G04 APERTURE LIST*
%ADD10C,0.100000*%
%ADD11C,0.200000*%
%ADD12C,0.065000*%
%ADD13C,0.070000*%
%ADD14C,0.320000*%
G04 APERTURE END LIST*
D10*
X14010000Y-9285000D02*
G75*
G03*
X14010000Y-9385000I0J-50000D01*
G01*
X17480000Y-12960000D02*
G75*
G03*
X18080000Y-12360000I0J600000D01*
G01*
X18080000Y-8560000D02*
G75*
G03*
X17480000Y-7960000I-600000J0D01*
G01*
X15480000Y-9385000D02*
G75*
G03*
X15530000Y-9335000I0J50000D01*
G01*
X14010000Y-9285000D02*
X15440000Y-9285000D01*
X14010000Y-9385000D02*
X15480000Y-9385000D01*
X13080000Y-8560000D02*
X13080000Y-12360000D01*
X16051000Y-8770000D02*
G75*
G03*
X16051000Y-8670000I0J50000D01*
G01*
X18080000Y-12360000D02*
X18080000Y-8560000D01*
X15530000Y-9335000D02*
X15530000Y-8770000D01*
X13080000Y-12360000D02*
G75*
G03*
X13680000Y-12960000I600000J0D01*
G01*
X13680000Y-7960000D02*
X17480000Y-7960000D01*
X16051000Y-8670000D02*
X15490000Y-8670000D01*
X15490000Y-8670000D02*
G75*
G03*
X15440000Y-8720000I0J-50000D01*
G01*
X17480000Y-12960000D02*
X13680000Y-12960000D01*
X15440000Y-8720000D02*
X15440000Y-9285000D01*
X15530000Y-8770000D02*
X16051000Y-8770000D01*
X13680000Y-7960000D02*
G75*
G03*
X13080000Y-8560000I0J-600000D01*
G01*
D11*
D12*
X17535500Y-10138500D02*
X17600500Y-10203500D01*
X17600500Y-10138500D02*
X17535500Y-10203500D01*
X17535500Y-10716500D02*
X17600500Y-10781500D01*
X17600500Y-10716500D02*
X17535500Y-10781500D01*
D13*
X14941000Y-12727450D02*
G75*
G03*
X14941000Y-12727450I-35000J0D01*
G01*
X15068000Y-12727450D02*
G75*
G03*
X15068000Y-12727450I-35000J0D01*
G01*
X15195000Y-12727450D02*
G75*
G03*
X15195000Y-12727450I-35000J0D01*
G01*
X15322000Y-12727450D02*
G75*
G03*
X15322000Y-12727450I-35000J0D01*
G01*
X15449000Y-12727450D02*
G75*
G03*
X15449000Y-12727450I-35000J0D01*
G01*
D14*
X16247780Y-8820156D02*
X16247780Y-9140156D01*
X16087780Y-8980156D02*
X16407780Y-8980156D01*
X17056003Y-9628379D02*
X17056003Y-9948379D01*
X16896003Y-9788379D02*
X17216003Y-9788379D01*
D11*
X13332619Y-13275476D02*
X13332619Y-13075476D01*
X13380238Y-13075476D01*
X13408809Y-13085000D01*
X13427857Y-13104048D01*
X13437381Y-13123095D01*
X13446905Y-13161190D01*
X13446905Y-13189762D01*
X13437381Y-13227857D01*
X13427857Y-13246905D01*
X13408809Y-13265952D01*
X13380238Y-13275476D01*
X13332619Y-13275476D01*
X13532619Y-13275476D02*
X13532619Y-13142143D01*
X13532619Y-13180238D02*
X13542143Y-13161190D01*
X13551667Y-13151667D01*
X13570714Y-13142143D01*
X13589762Y-13142143D01*
X13656428Y-13275476D02*
X13656428Y-13142143D01*
X13656428Y-13075476D02*
X13646905Y-13085000D01*
X13656428Y-13094524D01*
X13665952Y-13085000D01*
X13656428Y-13075476D01*
X13656428Y-13094524D01*
X13780238Y-13275476D02*
X13761190Y-13265952D01*
X13751667Y-13246905D01*
X13751667Y-13075476D01*
X13885000Y-13275476D02*
X13865952Y-13265952D01*
X13856428Y-13246905D01*
X13856428Y-13075476D01*
X14113571Y-13275476D02*
X14113571Y-13075476D01*
X14180238Y-13218333D01*
X14246905Y-13075476D01*
X14246905Y-13275476D01*
X14427857Y-13275476D02*
X14427857Y-13170714D01*
X14418333Y-13151667D01*
X14399286Y-13142143D01*
X14361190Y-13142143D01*
X14342143Y-13151667D01*
X14427857Y-13265952D02*
X14408809Y-13275476D01*
X14361190Y-13275476D01*
X14342143Y-13265952D01*
X14332619Y-13246905D01*
X14332619Y-13227857D01*
X14342143Y-13208809D01*
X14361190Y-13199286D01*
X14408809Y-13199286D01*
X14427857Y-13189762D01*
X14523095Y-13142143D02*
X14523095Y-13342143D01*
X14523095Y-13151667D02*
X14542143Y-13142143D01*
X14580238Y-13142143D01*
X14599286Y-13151667D01*
X14608809Y-13161190D01*
X14618333Y-13180238D01*
X14618333Y-13237381D01*
X14608809Y-13256428D01*
X14599286Y-13265952D01*
X14580238Y-13275476D01*
X14542143Y-13275476D01*
X14523095Y-13265952D01*
X14704048Y-13256428D02*
X14713571Y-13265952D01*
X14704048Y-13275476D01*
X14694524Y-13265952D01*
X14704048Y-13256428D01*
X14704048Y-13275476D01*
X14704048Y-13151667D02*
X14713571Y-13161190D01*
X14704048Y-13170714D01*
X14694524Y-13161190D01*
X14704048Y-13151667D01*
X14704048Y-13170714D01*
D12*
X13010000Y-13572500D02*
X13075000Y-13637500D01*
X13075000Y-13572500D02*
X13010000Y-13637500D01*
D11*
X13370714Y-13495476D02*
X13389762Y-13495476D01*
X13408809Y-13505000D01*
X13418333Y-13514524D01*
X13427857Y-13533571D01*
X13437381Y-13571667D01*
X13437381Y-13619286D01*
X13427857Y-13657381D01*
X13418333Y-13676428D01*
X13408809Y-13685952D01*
X13389762Y-13695476D01*
X13370714Y-13695476D01*
X13351667Y-13685952D01*
X13342143Y-13676428D01*
X13332619Y-13657381D01*
X13323095Y-13619286D01*
X13323095Y-13571667D01*
X13332619Y-13533571D01*
X13342143Y-13514524D01*
X13351667Y-13505000D01*
X13370714Y-13495476D01*
X13523095Y-13676428D02*
X13532619Y-13685952D01*
X13523095Y-13695476D01*
X13513571Y-13685952D01*
X13523095Y-13676428D01*
X13523095Y-13695476D01*
X13704048Y-13495476D02*
X13665952Y-13495476D01*
X13646905Y-13505000D01*
X13637381Y-13514524D01*
X13618333Y-13543095D01*
X13608809Y-13581190D01*
X13608809Y-13657381D01*
X13618333Y-13676428D01*
X13627857Y-13685952D01*
X13646905Y-13695476D01*
X13685000Y-13695476D01*
X13704048Y-13685952D01*
X13713571Y-13676428D01*
X13723095Y-13657381D01*
X13723095Y-13609762D01*
X13713571Y-13590714D01*
X13704048Y-13581190D01*
X13685000Y-13571667D01*
X13646905Y-13571667D01*
X13627857Y-13581190D01*
X13618333Y-13590714D01*
X13608809Y-13609762D01*
X13904048Y-13495476D02*
X13808809Y-13495476D01*
X13799286Y-13590714D01*
X13808809Y-13581190D01*
X13827857Y-13571667D01*
X13875476Y-13571667D01*
X13894524Y-13581190D01*
X13904048Y-13590714D01*
X13913571Y-13609762D01*
X13913571Y-13657381D01*
X13904048Y-13676428D01*
X13894524Y-13685952D01*
X13875476Y-13695476D01*
X13827857Y-13695476D01*
X13808809Y-13685952D01*
X13799286Y-13676428D01*
X14037381Y-13495476D02*
X14056428Y-13495476D01*
X14075476Y-13505000D01*
X14085000Y-13514524D01*
X14094524Y-13533571D01*
X14104048Y-13571667D01*
X14104048Y-13619286D01*
X14094524Y-13657381D01*
X14085000Y-13676428D01*
X14075476Y-13685952D01*
X14056428Y-13695476D01*
X14037381Y-13695476D01*
X14018333Y-13685952D01*
X14008809Y-13676428D01*
X13999286Y-13657381D01*
X13989762Y-13619286D01*
X13989762Y-13571667D01*
X13999286Y-13533571D01*
X14008809Y-13514524D01*
X14018333Y-13505000D01*
X14037381Y-13495476D01*
X14189762Y-13695476D02*
X14189762Y-13562143D01*
X14189762Y-13581190D02*
X14199286Y-13571667D01*
X14218333Y-13562143D01*
X14246905Y-13562143D01*
X14265952Y-13571667D01*
X14275476Y-13590714D01*
X14275476Y-13695476D01*
X14275476Y-13590714D02*
X14285000Y-13571667D01*
X14304048Y-13562143D01*
X14332619Y-13562143D01*
X14351667Y-13571667D01*
X14361190Y-13590714D01*
X14361190Y-13695476D01*
X14456428Y-13695476D02*
X14456428Y-13562143D01*
X14456428Y-13581190D02*
X14465952Y-13571667D01*
X14485000Y-13562143D01*
X14513571Y-13562143D01*
X14532619Y-13571667D01*
X14542143Y-13590714D01*
X14542143Y-13695476D01*
X14542143Y-13590714D02*
X14551667Y-13571667D01*
X14570714Y-13562143D01*
X14599286Y-13562143D01*
X14618333Y-13571667D01*
X14627857Y-13590714D01*
X14627857Y-13695476D01*
X15018333Y-13485952D02*
X14846905Y-13743095D01*
X15275476Y-13495476D02*
X15294524Y-13495476D01*
X15313571Y-13505000D01*
X15323095Y-13514524D01*
X15332619Y-13533571D01*
X15342143Y-13571667D01*
X15342143Y-13619286D01*
X15332619Y-13657381D01*
X15323095Y-13676428D01*
X15313571Y-13685952D01*
X15294524Y-13695476D01*
X15275476Y-13695476D01*
X15256428Y-13685952D01*
X15246905Y-13676428D01*
X15237381Y-13657381D01*
X15227857Y-13619286D01*
X15227857Y-13571667D01*
X15237381Y-13533571D01*
X15246905Y-13514524D01*
X15256428Y-13505000D01*
X15275476Y-13495476D01*
X15427857Y-13676428D02*
X15437381Y-13685952D01*
X15427857Y-13695476D01*
X15418333Y-13685952D01*
X15427857Y-13676428D01*
X15427857Y-13695476D01*
X15561190Y-13495476D02*
X15580238Y-13495476D01*
X15599286Y-13505000D01*
X15608809Y-13514524D01*
X15618333Y-13533571D01*
X15627857Y-13571667D01*
X15627857Y-13619286D01*
X15618333Y-13657381D01*
X15608809Y-13676428D01*
X15599286Y-13685952D01*
X15580238Y-13695476D01*
X15561190Y-13695476D01*
X15542143Y-13685952D01*
X15532619Y-13676428D01*
X15523095Y-13657381D01*
X15513571Y-13619286D01*
X15513571Y-13571667D01*
X15523095Y-13533571D01*
X15532619Y-13514524D01*
X15542143Y-13505000D01*
X15561190Y-13495476D01*
X15704048Y-13514524D02*
X15713571Y-13505000D01*
X15732619Y-13495476D01*
X15780238Y-13495476D01*
X15799286Y-13505000D01*
X15808809Y-13514524D01*
X15818333Y-13533571D01*
X15818333Y-13552619D01*
X15808809Y-13581190D01*
X15694524Y-13695476D01*
X15818333Y-13695476D01*
X15999286Y-13495476D02*
X15904048Y-13495476D01*
X15894524Y-13590714D01*
X15904048Y-13581190D01*
X15923095Y-13571667D01*
X15970714Y-13571667D01*
X15989762Y-13581190D01*
X15999286Y-13590714D01*
X16008809Y-13609762D01*
X16008809Y-13657381D01*
X15999286Y-13676428D01*
X15989762Y-13685952D01*
X15970714Y-13695476D01*
X15923095Y-13695476D01*
X15904048Y-13685952D01*
X15894524Y-13676428D01*
X16180238Y-13495476D02*
X16142143Y-13495476D01*
X16123095Y-13505000D01*
X16113571Y-13514524D01*
X16094524Y-13543095D01*
X16085000Y-13581190D01*
X16085000Y-13657381D01*
X16094524Y-13676428D01*
X16104048Y-13685952D01*
X16123095Y-13695476D01*
X16161190Y-13695476D01*
X16180238Y-13685952D01*
X16189762Y-13676428D01*
X16199286Y-13657381D01*
X16199286Y-13609762D01*
X16189762Y-13590714D01*
X16180238Y-13581190D01*
X16161190Y-13571667D01*
X16123095Y-13571667D01*
X16104048Y-13581190D01*
X16094524Y-13590714D01*
X16085000Y-13609762D01*
X16275476Y-13495476D02*
X16275476Y-13533571D01*
X16351667Y-13495476D02*
X16351667Y-13533571D01*
X16646905Y-13771667D02*
X16637381Y-13762143D01*
X16618333Y-13733571D01*
X16608809Y-13714524D01*
X16599286Y-13685952D01*
X16589762Y-13638333D01*
X16589762Y-13600238D01*
X16599286Y-13552619D01*
X16608809Y-13524048D01*
X16618333Y-13505000D01*
X16637381Y-13476428D01*
X16646905Y-13466905D01*
X16713571Y-13514524D02*
X16723095Y-13505000D01*
X16742143Y-13495476D01*
X16789762Y-13495476D01*
X16808810Y-13505000D01*
X16818333Y-13514524D01*
X16827857Y-13533571D01*
X16827857Y-13552619D01*
X16818333Y-13581190D01*
X16704048Y-13695476D01*
X16827857Y-13695476D01*
X17065952Y-13695476D02*
X17065952Y-13495476D01*
X17151667Y-13695476D02*
X17151667Y-13590714D01*
X17142143Y-13571667D01*
X17123095Y-13562143D01*
X17094524Y-13562143D01*
X17075476Y-13571667D01*
X17065952Y-13581190D01*
X17275476Y-13695476D02*
X17256429Y-13685952D01*
X17246905Y-13676428D01*
X17237381Y-13657381D01*
X17237381Y-13600238D01*
X17246905Y-13581190D01*
X17256429Y-13571667D01*
X17275476Y-13562143D01*
X17304048Y-13562143D01*
X17323095Y-13571667D01*
X17332619Y-13581190D01*
X17342143Y-13600238D01*
X17342143Y-13657381D01*
X17332619Y-13676428D01*
X17323095Y-13685952D01*
X17304048Y-13695476D01*
X17275476Y-13695476D01*
X17456429Y-13695476D02*
X17437381Y-13685952D01*
X17427857Y-13666905D01*
X17427857Y-13495476D01*
X17608810Y-13685952D02*
X17589762Y-13695476D01*
X17551667Y-13695476D01*
X17532619Y-13685952D01*
X17523095Y-13666905D01*
X17523095Y-13590714D01*
X17532619Y-13571667D01*
X17551667Y-13562143D01*
X17589762Y-13562143D01*
X17608810Y-13571667D01*
X17618333Y-13590714D01*
X17618333Y-13609762D01*
X17523095Y-13628809D01*
X17694524Y-13685952D02*
X17713571Y-13695476D01*
X17751667Y-13695476D01*
X17770714Y-13685952D01*
X17780238Y-13666905D01*
X17780238Y-13657381D01*
X17770714Y-13638333D01*
X17751667Y-13628809D01*
X17723095Y-13628809D01*
X17704048Y-13619286D01*
X17694524Y-13600238D01*
X17694524Y-13590714D01*
X17704048Y-13571667D01*
X17723095Y-13562143D01*
X17751667Y-13562143D01*
X17770714Y-13571667D01*
X17846905Y-13771667D02*
X17856429Y-13762143D01*
X17875476Y-13733571D01*
X17885000Y-13714524D01*
X17894524Y-13685952D01*
X17904048Y-13638333D01*
X17904048Y-13600238D01*
X17894524Y-13552619D01*
X17885000Y-13524048D01*
X17875476Y-13505000D01*
X17856429Y-13476428D01*
X17846905Y-13466905D01*
X18208810Y-13771667D02*
X18199286Y-13762143D01*
X18180238Y-13733571D01*
X18170714Y-13714524D01*
X18161190Y-13685952D01*
X18151667Y-13638333D01*
X18151667Y-13600238D01*
X18161190Y-13552619D01*
X18170714Y-13524048D01*
X18180238Y-13505000D01*
X18199286Y-13476428D01*
X18208810Y-13466905D01*
X18285000Y-13562143D02*
X18285000Y-13695476D01*
X18285000Y-13581190D02*
X18294524Y-13571667D01*
X18313571Y-13562143D01*
X18342143Y-13562143D01*
X18361190Y-13571667D01*
X18370714Y-13590714D01*
X18370714Y-13695476D01*
X18494524Y-13695476D02*
X18475476Y-13685952D01*
X18465952Y-13676428D01*
X18456429Y-13657381D01*
X18456429Y-13600238D01*
X18465952Y-13581190D01*
X18475476Y-13571667D01*
X18494524Y-13562143D01*
X18523095Y-13562143D01*
X18542143Y-13571667D01*
X18551667Y-13581190D01*
X18561190Y-13600238D01*
X18561190Y-13657381D01*
X18551667Y-13676428D01*
X18542143Y-13685952D01*
X18523095Y-13695476D01*
X18494524Y-13695476D01*
X18618333Y-13562143D02*
X18694524Y-13562143D01*
X18646905Y-13495476D02*
X18646905Y-13666905D01*
X18656429Y-13685952D01*
X18675476Y-13695476D01*
X18694524Y-13695476D01*
X18913571Y-13562143D02*
X18913571Y-13762143D01*
X18913571Y-13571667D02*
X18932619Y-13562143D01*
X18970714Y-13562143D01*
X18989762Y-13571667D01*
X18999286Y-13581190D01*
X19008810Y-13600238D01*
X19008810Y-13657381D01*
X18999286Y-13676428D01*
X18989762Y-13685952D01*
X18970714Y-13695476D01*
X18932619Y-13695476D01*
X18913571Y-13685952D01*
X19123095Y-13695476D02*
X19104048Y-13685952D01*
X19094524Y-13666905D01*
X19094524Y-13495476D01*
X19285000Y-13695476D02*
X19285000Y-13590714D01*
X19275476Y-13571667D01*
X19256429Y-13562143D01*
X19218333Y-13562143D01*
X19199286Y-13571667D01*
X19285000Y-13685952D02*
X19265952Y-13695476D01*
X19218333Y-13695476D01*
X19199286Y-13685952D01*
X19189762Y-13666905D01*
X19189762Y-13647857D01*
X19199286Y-13628809D01*
X19218333Y-13619286D01*
X19265952Y-13619286D01*
X19285000Y-13609762D01*
X19351667Y-13562143D02*
X19427857Y-13562143D01*
X19380238Y-13495476D02*
X19380238Y-13666905D01*
X19389762Y-13685952D01*
X19408810Y-13695476D01*
X19427857Y-13695476D01*
X19570714Y-13685952D02*
X19551667Y-13695476D01*
X19513571Y-13695476D01*
X19494524Y-13685952D01*
X19485000Y-13666905D01*
X19485000Y-13590714D01*
X19494524Y-13571667D01*
X19513571Y-13562143D01*
X19551667Y-13562143D01*
X19570714Y-13571667D01*
X19580238Y-13590714D01*
X19580238Y-13609762D01*
X19485000Y-13628809D01*
X19751667Y-13695476D02*
X19751667Y-13495476D01*
X19751667Y-13685952D02*
X19732619Y-13695476D01*
X19694524Y-13695476D01*
X19675476Y-13685952D01*
X19665952Y-13676428D01*
X19656429Y-13657381D01*
X19656429Y-13600238D01*
X19665952Y-13581190D01*
X19675476Y-13571667D01*
X19694524Y-13562143D01*
X19732619Y-13562143D01*
X19751667Y-13571667D01*
X19827857Y-13771667D02*
X19837381Y-13762143D01*
X19856429Y-13733571D01*
X19865952Y-13714524D01*
X19875476Y-13685952D01*
X19885000Y-13638333D01*
X19885000Y-13600238D01*
X19875476Y-13552619D01*
X19865952Y-13524048D01*
X19856429Y-13505000D01*
X19837381Y-13476428D01*
X19827857Y-13466905D01*
D13*
X13075000Y-13869000D02*
G75*
G03*
X13075000Y-13869000I-35000J0D01*
G01*
D11*
X13370714Y-13759476D02*
X13389762Y-13759476D01*
X13408809Y-13769000D01*
X13418333Y-13778524D01*
X13427857Y-13797571D01*
X13437381Y-13835667D01*
X13437381Y-13883286D01*
X13427857Y-13921381D01*
X13418333Y-13940428D01*
X13408809Y-13949952D01*
X13389762Y-13959476D01*
X13370714Y-13959476D01*
X13351667Y-13949952D01*
X13342143Y-13940428D01*
X13332619Y-13921381D01*
X13323095Y-13883286D01*
X13323095Y-13835667D01*
X13332619Y-13797571D01*
X13342143Y-13778524D01*
X13351667Y-13769000D01*
X13370714Y-13759476D01*
X13523095Y-13940428D02*
X13532619Y-13949952D01*
X13523095Y-13959476D01*
X13513571Y-13949952D01*
X13523095Y-13940428D01*
X13523095Y-13959476D01*
X13599286Y-13759476D02*
X13732619Y-13759476D01*
X13646905Y-13959476D01*
X13846905Y-13759476D02*
X13865952Y-13759476D01*
X13885000Y-13769000D01*
X13894524Y-13778524D01*
X13904048Y-13797571D01*
X13913571Y-13835667D01*
X13913571Y-13883286D01*
X13904048Y-13921381D01*
X13894524Y-13940428D01*
X13885000Y-13949952D01*
X13865952Y-13959476D01*
X13846905Y-13959476D01*
X13827857Y-13949952D01*
X13818333Y-13940428D01*
X13808809Y-13921381D01*
X13799286Y-13883286D01*
X13799286Y-13835667D01*
X13808809Y-13797571D01*
X13818333Y-13778524D01*
X13827857Y-13769000D01*
X13846905Y-13759476D01*
X14037381Y-13759476D02*
X14056428Y-13759476D01*
X14075476Y-13769000D01*
X14085000Y-13778524D01*
X14094524Y-13797571D01*
X14104048Y-13835667D01*
X14104048Y-13883286D01*
X14094524Y-13921381D01*
X14085000Y-13940428D01*
X14075476Y-13949952D01*
X14056428Y-13959476D01*
X14037381Y-13959476D01*
X14018333Y-13949952D01*
X14008809Y-13940428D01*
X13999286Y-13921381D01*
X13989762Y-13883286D01*
X13989762Y-13835667D01*
X13999286Y-13797571D01*
X14008809Y-13778524D01*
X14018333Y-13769000D01*
X14037381Y-13759476D01*
X14189762Y-13959476D02*
X14189762Y-13826143D01*
X14189762Y-13845190D02*
X14199286Y-13835667D01*
X14218333Y-13826143D01*
X14246905Y-13826143D01*
X14265952Y-13835667D01*
X14275476Y-13854714D01*
X14275476Y-13959476D01*
X14275476Y-13854714D02*
X14285000Y-13835667D01*
X14304048Y-13826143D01*
X14332619Y-13826143D01*
X14351667Y-13835667D01*
X14361190Y-13854714D01*
X14361190Y-13959476D01*
X14456428Y-13959476D02*
X14456428Y-13826143D01*
X14456428Y-13845190D02*
X14465952Y-13835667D01*
X14485000Y-13826143D01*
X14513571Y-13826143D01*
X14532619Y-13835667D01*
X14542143Y-13854714D01*
X14542143Y-13959476D01*
X14542143Y-13854714D02*
X14551667Y-13835667D01*
X14570714Y-13826143D01*
X14599286Y-13826143D01*
X14618333Y-13835667D01*
X14627857Y-13854714D01*
X14627857Y-13959476D01*
X15018333Y-13749952D02*
X14846905Y-14007095D01*
X15275476Y-13759476D02*
X15294524Y-13759476D01*
X15313571Y-13769000D01*
X15323095Y-13778524D01*
X15332619Y-13797571D01*
X15342143Y-13835667D01*
X15342143Y-13883286D01*
X15332619Y-13921381D01*
X15323095Y-13940428D01*
X15313571Y-13949952D01*
X15294524Y-13959476D01*
X15275476Y-13959476D01*
X15256428Y-13949952D01*
X15246905Y-13940428D01*
X15237381Y-13921381D01*
X15227857Y-13883286D01*
X15227857Y-13835667D01*
X15237381Y-13797571D01*
X15246905Y-13778524D01*
X15256428Y-13769000D01*
X15275476Y-13759476D01*
X15427857Y-13940428D02*
X15437381Y-13949952D01*
X15427857Y-13959476D01*
X15418333Y-13949952D01*
X15427857Y-13940428D01*
X15427857Y-13959476D01*
X15561190Y-13759476D02*
X15580238Y-13759476D01*
X15599286Y-13769000D01*
X15608809Y-13778524D01*
X15618333Y-13797571D01*
X15627857Y-13835667D01*
X15627857Y-13883286D01*
X15618333Y-13921381D01*
X15608809Y-13940428D01*
X15599286Y-13949952D01*
X15580238Y-13959476D01*
X15561190Y-13959476D01*
X15542143Y-13949952D01*
X15532619Y-13940428D01*
X15523095Y-13921381D01*
X15513571Y-13883286D01*
X15513571Y-13835667D01*
X15523095Y-13797571D01*
X15532619Y-13778524D01*
X15542143Y-13769000D01*
X15561190Y-13759476D01*
X15704048Y-13778524D02*
X15713571Y-13769000D01*
X15732619Y-13759476D01*
X15780238Y-13759476D01*
X15799286Y-13769000D01*
X15808809Y-13778524D01*
X15818333Y-13797571D01*
X15818333Y-13816619D01*
X15808809Y-13845190D01*
X15694524Y-13959476D01*
X15818333Y-13959476D01*
X15885000Y-13759476D02*
X16018333Y-13759476D01*
X15932619Y-13959476D01*
X16180238Y-13759476D02*
X16142143Y-13759476D01*
X16123095Y-13769000D01*
X16113571Y-13778524D01*
X16094524Y-13807095D01*
X16085000Y-13845190D01*
X16085000Y-13921381D01*
X16094524Y-13940428D01*
X16104048Y-13949952D01*
X16123095Y-13959476D01*
X16161190Y-13959476D01*
X16180238Y-13949952D01*
X16189762Y-13940428D01*
X16199286Y-13921381D01*
X16199286Y-13873762D01*
X16189762Y-13854714D01*
X16180238Y-13845190D01*
X16161190Y-13835667D01*
X16123095Y-13835667D01*
X16104048Y-13845190D01*
X16094524Y-13854714D01*
X16085000Y-13873762D01*
X16275476Y-13759476D02*
X16275476Y-13797571D01*
X16351667Y-13759476D02*
X16351667Y-13797571D01*
X16646905Y-14035667D02*
X16637381Y-14026143D01*
X16618333Y-13997571D01*
X16608809Y-13978524D01*
X16599286Y-13949952D01*
X16589762Y-13902333D01*
X16589762Y-13864238D01*
X16599286Y-13816619D01*
X16608809Y-13788048D01*
X16618333Y-13769000D01*
X16637381Y-13740428D01*
X16646905Y-13730905D01*
X16818333Y-13759476D02*
X16723095Y-13759476D01*
X16713571Y-13854714D01*
X16723095Y-13845190D01*
X16742143Y-13835667D01*
X16789762Y-13835667D01*
X16808810Y-13845190D01*
X16818333Y-13854714D01*
X16827857Y-13873762D01*
X16827857Y-13921381D01*
X16818333Y-13940428D01*
X16808810Y-13949952D01*
X16789762Y-13959476D01*
X16742143Y-13959476D01*
X16723095Y-13949952D01*
X16713571Y-13940428D01*
X17065952Y-13959476D02*
X17065952Y-13759476D01*
X17151667Y-13959476D02*
X17151667Y-13854714D01*
X17142143Y-13835667D01*
X17123095Y-13826143D01*
X17094524Y-13826143D01*
X17075476Y-13835667D01*
X17065952Y-13845190D01*
X17275476Y-13959476D02*
X17256429Y-13949952D01*
X17246905Y-13940428D01*
X17237381Y-13921381D01*
X17237381Y-13864238D01*
X17246905Y-13845190D01*
X17256429Y-13835667D01*
X17275476Y-13826143D01*
X17304048Y-13826143D01*
X17323095Y-13835667D01*
X17332619Y-13845190D01*
X17342143Y-13864238D01*
X17342143Y-13921381D01*
X17332619Y-13940428D01*
X17323095Y-13949952D01*
X17304048Y-13959476D01*
X17275476Y-13959476D01*
X17456429Y-13959476D02*
X17437381Y-13949952D01*
X17427857Y-13930905D01*
X17427857Y-13759476D01*
X17608810Y-13949952D02*
X17589762Y-13959476D01*
X17551667Y-13959476D01*
X17532619Y-13949952D01*
X17523095Y-13930905D01*
X17523095Y-13854714D01*
X17532619Y-13835667D01*
X17551667Y-13826143D01*
X17589762Y-13826143D01*
X17608810Y-13835667D01*
X17618333Y-13854714D01*
X17618333Y-13873762D01*
X17523095Y-13892809D01*
X17694524Y-13949952D02*
X17713571Y-13959476D01*
X17751667Y-13959476D01*
X17770714Y-13949952D01*
X17780238Y-13930905D01*
X17780238Y-13921381D01*
X17770714Y-13902333D01*
X17751667Y-13892809D01*
X17723095Y-13892809D01*
X17704048Y-13883286D01*
X17694524Y-13864238D01*
X17694524Y-13854714D01*
X17704048Y-13835667D01*
X17723095Y-13826143D01*
X17751667Y-13826143D01*
X17770714Y-13835667D01*
X17846905Y-14035667D02*
X17856429Y-14026143D01*
X17875476Y-13997571D01*
X17885000Y-13978524D01*
X17894524Y-13949952D01*
X17904048Y-13902333D01*
X17904048Y-13864238D01*
X17894524Y-13816619D01*
X17885000Y-13788048D01*
X17875476Y-13769000D01*
X17856429Y-13740428D01*
X17846905Y-13730905D01*
X18208810Y-14035667D02*
X18199286Y-14026143D01*
X18180238Y-13997571D01*
X18170714Y-13978524D01*
X18161190Y-13949952D01*
X18151667Y-13902333D01*
X18151667Y-13864238D01*
X18161190Y-13816619D01*
X18170714Y-13788048D01*
X18180238Y-13769000D01*
X18199286Y-13740428D01*
X18208810Y-13730905D01*
X18285000Y-13826143D02*
X18285000Y-13959476D01*
X18285000Y-13845190D02*
X18294524Y-13835667D01*
X18313571Y-13826143D01*
X18342143Y-13826143D01*
X18361190Y-13835667D01*
X18370714Y-13854714D01*
X18370714Y-13959476D01*
X18494524Y-13959476D02*
X18475476Y-13949952D01*
X18465952Y-13940428D01*
X18456429Y-13921381D01*
X18456429Y-13864238D01*
X18465952Y-13845190D01*
X18475476Y-13835667D01*
X18494524Y-13826143D01*
X18523095Y-13826143D01*
X18542143Y-13835667D01*
X18551667Y-13845190D01*
X18561190Y-13864238D01*
X18561190Y-13921381D01*
X18551667Y-13940428D01*
X18542143Y-13949952D01*
X18523095Y-13959476D01*
X18494524Y-13959476D01*
X18618333Y-13826143D02*
X18694524Y-13826143D01*
X18646905Y-13759476D02*
X18646905Y-13930905D01*
X18656429Y-13949952D01*
X18675476Y-13959476D01*
X18694524Y-13959476D01*
X18913571Y-13826143D02*
X18913571Y-14026143D01*
X18913571Y-13835667D02*
X18932619Y-13826143D01*
X18970714Y-13826143D01*
X18989762Y-13835667D01*
X18999286Y-13845190D01*
X19008810Y-13864238D01*
X19008810Y-13921381D01*
X18999286Y-13940428D01*
X18989762Y-13949952D01*
X18970714Y-13959476D01*
X18932619Y-13959476D01*
X18913571Y-13949952D01*
X19123095Y-13959476D02*
X19104048Y-13949952D01*
X19094524Y-13930905D01*
X19094524Y-13759476D01*
X19285000Y-13959476D02*
X19285000Y-13854714D01*
X19275476Y-13835667D01*
X19256429Y-13826143D01*
X19218333Y-13826143D01*
X19199286Y-13835667D01*
X19285000Y-13949952D02*
X19265952Y-13959476D01*
X19218333Y-13959476D01*
X19199286Y-13949952D01*
X19189762Y-13930905D01*
X19189762Y-13911857D01*
X19199286Y-13892809D01*
X19218333Y-13883286D01*
X19265952Y-13883286D01*
X19285000Y-13873762D01*
X19351667Y-13826143D02*
X19427857Y-13826143D01*
X19380238Y-13759476D02*
X19380238Y-13930905D01*
X19389762Y-13949952D01*
X19408810Y-13959476D01*
X19427857Y-13959476D01*
X19570714Y-13949952D02*
X19551667Y-13959476D01*
X19513571Y-13959476D01*
X19494524Y-13949952D01*
X19485000Y-13930905D01*
X19485000Y-13854714D01*
X19494524Y-13835667D01*
X19513571Y-13826143D01*
X19551667Y-13826143D01*
X19570714Y-13835667D01*
X19580238Y-13854714D01*
X19580238Y-13873762D01*
X19485000Y-13892809D01*
X19751667Y-13959476D02*
X19751667Y-13759476D01*
X19751667Y-13949952D02*
X19732619Y-13959476D01*
X19694524Y-13959476D01*
X19675476Y-13949952D01*
X19665952Y-13940428D01*
X19656429Y-13921381D01*
X19656429Y-13864238D01*
X19665952Y-13845190D01*
X19675476Y-13835667D01*
X19694524Y-13826143D01*
X19732619Y-13826143D01*
X19751667Y-13835667D01*
X19827857Y-14035667D02*
X19837381Y-14026143D01*
X19856429Y-13997571D01*
X19865952Y-13978524D01*
X19875476Y-13949952D01*
X19885000Y-13902333D01*
X19885000Y-13864238D01*
X19875476Y-13816619D01*
X19865952Y-13788048D01*
X19856429Y-13769000D01*
X19837381Y-13740428D01*
X19827857Y-13730905D01*
X12975000Y-14033000D02*
X12975000Y-14233000D01*
X12875000Y-14133000D02*
X13075000Y-14133000D01*
X13313571Y-14023476D02*
X13437381Y-14023476D01*
X13370714Y-14099667D01*
X13399286Y-14099667D01*
X13418333Y-14109190D01*
X13427857Y-14118714D01*
X13437381Y-14137762D01*
X13437381Y-14185381D01*
X13427857Y-14204428D01*
X13418333Y-14213952D01*
X13399286Y-14223476D01*
X13342143Y-14223476D01*
X13323095Y-14213952D01*
X13313571Y-14204428D01*
X13523095Y-14204428D02*
X13532619Y-14213952D01*
X13523095Y-14223476D01*
X13513571Y-14213952D01*
X13523095Y-14204428D01*
X13523095Y-14223476D01*
X13608809Y-14042524D02*
X13618333Y-14033000D01*
X13637381Y-14023476D01*
X13685000Y-14023476D01*
X13704048Y-14033000D01*
X13713571Y-14042524D01*
X13723095Y-14061571D01*
X13723095Y-14080619D01*
X13713571Y-14109190D01*
X13599286Y-14223476D01*
X13723095Y-14223476D01*
X13846905Y-14023476D02*
X13865952Y-14023476D01*
X13885000Y-14033000D01*
X13894524Y-14042524D01*
X13904048Y-14061571D01*
X13913571Y-14099667D01*
X13913571Y-14147286D01*
X13904048Y-14185381D01*
X13894524Y-14204428D01*
X13885000Y-14213952D01*
X13865952Y-14223476D01*
X13846905Y-14223476D01*
X13827857Y-14213952D01*
X13818333Y-14204428D01*
X13808809Y-14185381D01*
X13799286Y-14147286D01*
X13799286Y-14099667D01*
X13808809Y-14061571D01*
X13818333Y-14042524D01*
X13827857Y-14033000D01*
X13846905Y-14023476D01*
X14037381Y-14023476D02*
X14056428Y-14023476D01*
X14075476Y-14033000D01*
X14085000Y-14042524D01*
X14094524Y-14061571D01*
X14104048Y-14099667D01*
X14104048Y-14147286D01*
X14094524Y-14185381D01*
X14085000Y-14204428D01*
X14075476Y-14213952D01*
X14056428Y-14223476D01*
X14037381Y-14223476D01*
X14018333Y-14213952D01*
X14008809Y-14204428D01*
X13999286Y-14185381D01*
X13989762Y-14147286D01*
X13989762Y-14099667D01*
X13999286Y-14061571D01*
X14008809Y-14042524D01*
X14018333Y-14033000D01*
X14037381Y-14023476D01*
X14189762Y-14223476D02*
X14189762Y-14090143D01*
X14189762Y-14109190D02*
X14199286Y-14099667D01*
X14218333Y-14090143D01*
X14246905Y-14090143D01*
X14265952Y-14099667D01*
X14275476Y-14118714D01*
X14275476Y-14223476D01*
X14275476Y-14118714D02*
X14285000Y-14099667D01*
X14304048Y-14090143D01*
X14332619Y-14090143D01*
X14351667Y-14099667D01*
X14361190Y-14118714D01*
X14361190Y-14223476D01*
X14456428Y-14223476D02*
X14456428Y-14090143D01*
X14456428Y-14109190D02*
X14465952Y-14099667D01*
X14485000Y-14090143D01*
X14513571Y-14090143D01*
X14532619Y-14099667D01*
X14542143Y-14118714D01*
X14542143Y-14223476D01*
X14542143Y-14118714D02*
X14551667Y-14099667D01*
X14570714Y-14090143D01*
X14599286Y-14090143D01*
X14618333Y-14099667D01*
X14627857Y-14118714D01*
X14627857Y-14223476D01*
X15018333Y-14013952D02*
X14846905Y-14271095D01*
X15275476Y-14023476D02*
X15294524Y-14023476D01*
X15313571Y-14033000D01*
X15323095Y-14042524D01*
X15332619Y-14061571D01*
X15342143Y-14099667D01*
X15342143Y-14147286D01*
X15332619Y-14185381D01*
X15323095Y-14204428D01*
X15313571Y-14213952D01*
X15294524Y-14223476D01*
X15275476Y-14223476D01*
X15256428Y-14213952D01*
X15246905Y-14204428D01*
X15237381Y-14185381D01*
X15227857Y-14147286D01*
X15227857Y-14099667D01*
X15237381Y-14061571D01*
X15246905Y-14042524D01*
X15256428Y-14033000D01*
X15275476Y-14023476D01*
X15427857Y-14204428D02*
X15437381Y-14213952D01*
X15427857Y-14223476D01*
X15418333Y-14213952D01*
X15427857Y-14204428D01*
X15427857Y-14223476D01*
X15627857Y-14223476D02*
X15513571Y-14223476D01*
X15570714Y-14223476D02*
X15570714Y-14023476D01*
X15551667Y-14052048D01*
X15532619Y-14071095D01*
X15513571Y-14080619D01*
X15704048Y-14042524D02*
X15713571Y-14033000D01*
X15732619Y-14023476D01*
X15780238Y-14023476D01*
X15799286Y-14033000D01*
X15808809Y-14042524D01*
X15818333Y-14061571D01*
X15818333Y-14080619D01*
X15808809Y-14109190D01*
X15694524Y-14223476D01*
X15818333Y-14223476D01*
X15989762Y-14023476D02*
X15951667Y-14023476D01*
X15932619Y-14033000D01*
X15923095Y-14042524D01*
X15904048Y-14071095D01*
X15894524Y-14109190D01*
X15894524Y-14185381D01*
X15904048Y-14204428D01*
X15913571Y-14213952D01*
X15932619Y-14223476D01*
X15970714Y-14223476D01*
X15989762Y-14213952D01*
X15999286Y-14204428D01*
X16008809Y-14185381D01*
X16008809Y-14137762D01*
X15999286Y-14118714D01*
X15989762Y-14109190D01*
X15970714Y-14099667D01*
X15932619Y-14099667D01*
X15913571Y-14109190D01*
X15904048Y-14118714D01*
X15894524Y-14137762D01*
X16132619Y-14023476D02*
X16151667Y-14023476D01*
X16170714Y-14033000D01*
X16180238Y-14042524D01*
X16189762Y-14061571D01*
X16199286Y-14099667D01*
X16199286Y-14147286D01*
X16189762Y-14185381D01*
X16180238Y-14204428D01*
X16170714Y-14213952D01*
X16151667Y-14223476D01*
X16132619Y-14223476D01*
X16113571Y-14213952D01*
X16104048Y-14204428D01*
X16094524Y-14185381D01*
X16085000Y-14147286D01*
X16085000Y-14099667D01*
X16094524Y-14061571D01*
X16104048Y-14042524D01*
X16113571Y-14033000D01*
X16132619Y-14023476D01*
X16275476Y-14023476D02*
X16275476Y-14061571D01*
X16351667Y-14023476D02*
X16351667Y-14061571D01*
X16646905Y-14299667D02*
X16637381Y-14290143D01*
X16618333Y-14261571D01*
X16608809Y-14242524D01*
X16599286Y-14213952D01*
X16589762Y-14166333D01*
X16589762Y-14128238D01*
X16599286Y-14080619D01*
X16608809Y-14052048D01*
X16618333Y-14033000D01*
X16637381Y-14004428D01*
X16646905Y-13994905D01*
X16713571Y-14042524D02*
X16723095Y-14033000D01*
X16742143Y-14023476D01*
X16789762Y-14023476D01*
X16808810Y-14033000D01*
X16818333Y-14042524D01*
X16827857Y-14061571D01*
X16827857Y-14080619D01*
X16818333Y-14109190D01*
X16704048Y-14223476D01*
X16827857Y-14223476D01*
X17065952Y-14223476D02*
X17065952Y-14023476D01*
X17151667Y-14223476D02*
X17151667Y-14118714D01*
X17142143Y-14099667D01*
X17123095Y-14090143D01*
X17094524Y-14090143D01*
X17075476Y-14099667D01*
X17065952Y-14109190D01*
X17275476Y-14223476D02*
X17256429Y-14213952D01*
X17246905Y-14204428D01*
X17237381Y-14185381D01*
X17237381Y-14128238D01*
X17246905Y-14109190D01*
X17256429Y-14099667D01*
X17275476Y-14090143D01*
X17304048Y-14090143D01*
X17323095Y-14099667D01*
X17332619Y-14109190D01*
X17342143Y-14128238D01*
X17342143Y-14185381D01*
X17332619Y-14204428D01*
X17323095Y-14213952D01*
X17304048Y-14223476D01*
X17275476Y-14223476D01*
X17456429Y-14223476D02*
X17437381Y-14213952D01*
X17427857Y-14194905D01*
X17427857Y-14023476D01*
X17608810Y-14213952D02*
X17589762Y-14223476D01*
X17551667Y-14223476D01*
X17532619Y-14213952D01*
X17523095Y-14194905D01*
X17523095Y-14118714D01*
X17532619Y-14099667D01*
X17551667Y-14090143D01*
X17589762Y-14090143D01*
X17608810Y-14099667D01*
X17618333Y-14118714D01*
X17618333Y-14137762D01*
X17523095Y-14156809D01*
X17694524Y-14213952D02*
X17713571Y-14223476D01*
X17751667Y-14223476D01*
X17770714Y-14213952D01*
X17780238Y-14194905D01*
X17780238Y-14185381D01*
X17770714Y-14166333D01*
X17751667Y-14156809D01*
X17723095Y-14156809D01*
X17704048Y-14147286D01*
X17694524Y-14128238D01*
X17694524Y-14118714D01*
X17704048Y-14099667D01*
X17723095Y-14090143D01*
X17751667Y-14090143D01*
X17770714Y-14099667D01*
X17846905Y-14299667D02*
X17856429Y-14290143D01*
X17875476Y-14261571D01*
X17885000Y-14242524D01*
X17894524Y-14213952D01*
X17904048Y-14166333D01*
X17904048Y-14128238D01*
X17894524Y-14080619D01*
X17885000Y-14052048D01*
X17875476Y-14033000D01*
X17856429Y-14004428D01*
X17846905Y-13994905D01*
X18208810Y-14299667D02*
X18199286Y-14290143D01*
X18180238Y-14261571D01*
X18170714Y-14242524D01*
X18161190Y-14213952D01*
X18151667Y-14166333D01*
X18151667Y-14128238D01*
X18161190Y-14080619D01*
X18170714Y-14052048D01*
X18180238Y-14033000D01*
X18199286Y-14004428D01*
X18208810Y-13994905D01*
X18285000Y-14090143D02*
X18285000Y-14223476D01*
X18285000Y-14109190D02*
X18294524Y-14099667D01*
X18313571Y-14090143D01*
X18342143Y-14090143D01*
X18361190Y-14099667D01*
X18370714Y-14118714D01*
X18370714Y-14223476D01*
X18494524Y-14223476D02*
X18475476Y-14213952D01*
X18465952Y-14204428D01*
X18456429Y-14185381D01*
X18456429Y-14128238D01*
X18465952Y-14109190D01*
X18475476Y-14099667D01*
X18494524Y-14090143D01*
X18523095Y-14090143D01*
X18542143Y-14099667D01*
X18551667Y-14109190D01*
X18561190Y-14128238D01*
X18561190Y-14185381D01*
X18551667Y-14204428D01*
X18542143Y-14213952D01*
X18523095Y-14223476D01*
X18494524Y-14223476D01*
X18618333Y-14090143D02*
X18694524Y-14090143D01*
X18646905Y-14023476D02*
X18646905Y-14194905D01*
X18656429Y-14213952D01*
X18675476Y-14223476D01*
X18694524Y-14223476D01*
X18913571Y-14090143D02*
X18913571Y-14290143D01*
X18913571Y-14099667D02*
X18932619Y-14090143D01*
X18970714Y-14090143D01*
X18989762Y-14099667D01*
X18999286Y-14109190D01*
X19008810Y-14128238D01*
X19008810Y-14185381D01*
X18999286Y-14204428D01*
X18989762Y-14213952D01*
X18970714Y-14223476D01*
X18932619Y-14223476D01*
X18913571Y-14213952D01*
X19123095Y-14223476D02*
X19104048Y-14213952D01*
X19094524Y-14194905D01*
X19094524Y-14023476D01*
X19285000Y-14223476D02*
X19285000Y-14118714D01*
X19275476Y-14099667D01*
X19256429Y-14090143D01*
X19218333Y-14090143D01*
X19199286Y-14099667D01*
X19285000Y-14213952D02*
X19265952Y-14223476D01*
X19218333Y-14223476D01*
X19199286Y-14213952D01*
X19189762Y-14194905D01*
X19189762Y-14175857D01*
X19199286Y-14156809D01*
X19218333Y-14147286D01*
X19265952Y-14147286D01*
X19285000Y-14137762D01*
X19351667Y-14090143D02*
X19427857Y-14090143D01*
X19380238Y-14023476D02*
X19380238Y-14194905D01*
X19389762Y-14213952D01*
X19408810Y-14223476D01*
X19427857Y-14223476D01*
X19570714Y-14213952D02*
X19551667Y-14223476D01*
X19513571Y-14223476D01*
X19494524Y-14213952D01*
X19485000Y-14194905D01*
X19485000Y-14118714D01*
X19494524Y-14099667D01*
X19513571Y-14090143D01*
X19551667Y-14090143D01*
X19570714Y-14099667D01*
X19580238Y-14118714D01*
X19580238Y-14137762D01*
X19485000Y-14156809D01*
X19751667Y-14223476D02*
X19751667Y-14023476D01*
X19751667Y-14213952D02*
X19732619Y-14223476D01*
X19694524Y-14223476D01*
X19675476Y-14213952D01*
X19665952Y-14204428D01*
X19656429Y-14185381D01*
X19656429Y-14128238D01*
X19665952Y-14109190D01*
X19675476Y-14099667D01*
X19694524Y-14090143D01*
X19732619Y-14090143D01*
X19751667Y-14099667D01*
X19827857Y-14299667D02*
X19837381Y-14290143D01*
X19856429Y-14261571D01*
X19865952Y-14242524D01*
X19875476Y-14213952D01*
X19885000Y-14166333D01*
X19885000Y-14128238D01*
X19875476Y-14080619D01*
X19865952Y-14052048D01*
X19856429Y-14033000D01*
X19837381Y-14004428D01*
X19827857Y-13994905D01*
M02*
