%TF.GenerationSoftware,KiCad,Pcbnew,(6.0.9)*%
%TF.CreationDate,2022-11-20T21:59:21+01:00*%
%TF.ProjectId,repeat-hw,72657065-6174-42d6-9877-2e6b69636164,rev?*%
%TF.SameCoordinates,Original*%
%TF.FileFunction,Soldermask,Bot*%
%TF.FilePolarity,Negative*%
%FSLAX46Y46*%
G04 Gerber Fmt 4.6, Leading zero omitted, Abs format (unit mm)*
G04 Created by KiCad (PCBNEW (6.0.9)) date 2022-11-20 21:59:21*
%MOMM*%
%LPD*%
G01*
G04 APERTURE LIST*
G04 Aperture macros list*
%AMRotRect*
0 Rectangle, with rotation*
0 The origin of the aperture is its center*
0 $1 length*
0 $2 width*
0 $3 Rotation angle, in degrees counterclockwise*
0 Add horizontal line*
21,1,$1,$2,0,0,$3*%
G04 Aperture macros list end*
%ADD10C,0.650000*%
%ADD11O,2.100000X1.000000*%
%ADD12O,1.600000X1.000000*%
%ADD13C,0.700000*%
%ADD14O,0.800000X1.500000*%
%ADD15C,3.250000*%
%ADD16RotRect,1.800000X1.800000X135.000000*%
%ADD17C,1.800000*%
%ADD18C,1.600000*%
%ADD19C,3.000000*%
G04 APERTURE END LIST*
D10*
%TO.C,J1*%
X175680000Y-107490000D03*
X175680000Y-101710000D03*
D11*
X175180000Y-108920000D03*
D12*
X179360000Y-100280000D03*
X179360000Y-108920000D03*
D11*
X175180000Y-100280000D03*
%TD*%
D13*
%TO.C,J4*%
X150330000Y-127274500D03*
X149060000Y-127274500D03*
X154140000Y-127274500D03*
X152870000Y-127274500D03*
X151600000Y-127274500D03*
D14*
X149695000Y-128429500D03*
X150965000Y-128429500D03*
X152235000Y-128429500D03*
X153505000Y-128429500D03*
%TD*%
D15*
%TO.C,J2*%
X162477802Y-89801561D03*
X170560032Y-97883791D03*
D16*
X166964394Y-85307897D03*
D17*
X169658471Y-84409872D03*
X168760445Y-87103948D03*
X171454522Y-86205923D03*
X170556497Y-88900000D03*
X173250574Y-88001974D03*
X172352548Y-90696051D03*
X175046625Y-89798025D03*
X174148599Y-92492102D03*
X176842676Y-91594076D03*
D18*
X169520585Y-100436447D03*
X168085159Y-101871874D03*
X159925146Y-90841008D03*
X158489719Y-92276434D03*
D19*
X174226381Y-97236789D03*
X163124804Y-86135212D03*
%TD*%
D15*
%TO.C,J2*%
X162477802Y-89801561D03*
X170560032Y-97883791D03*
D16*
X166964394Y-85307897D03*
D17*
X169658471Y-84409872D03*
X168760445Y-87103948D03*
X171454522Y-86205923D03*
X170556497Y-88900000D03*
X173250574Y-88001974D03*
X172352548Y-90696051D03*
X175046625Y-89798025D03*
X174148599Y-92492102D03*
X176842676Y-91594076D03*
D18*
X169520585Y-100436447D03*
X168085159Y-101871874D03*
X159925146Y-90841008D03*
X158489719Y-92276434D03*
D19*
X174226381Y-97236789D03*
X163124804Y-86135212D03*
%TD*%
M02*
